<svg viewBox="-16 -32 880 192" width="880" height="192" xmlns="http://www.w3.org/2000/svg"><desc>Generated with https://github.com/Platane/snk</desc><style>:root{--cb:#1b1f230a;--cs:#d70401;--ce:#161b22;--c0:#161b22;--c1:#01311f;--c2:#034525;--c3:#0f6d31;--c4:#00c647}.c{shape-rendering:geometricPrecision;fill:var(--ce);stroke-width:1px;stroke:var(--cb);animation:none 23700ms linear infinite;width:12px;height:12px}@keyframes c0{3.37%{fill:var(--c1)}3.39%,100%{fill:var(--ce)}}.c.c0{fill:var(--c1);animation-name:c0}@keyframes c1{96.19%{fill:var(--c4)}96.21%,100%{fill:var(--ce)}}.c.c1{fill:var(--c4);animation-name:c1}@keyframes c2{95.77%{fill:var(--c4)}95.79%,100%{fill:var(--ce)}}.c.c2{fill:var(--c4);animation-name:c2}@keyframes c3{95.35%{fill:var(--c4)}95.37%,100%{fill:var(--ce)}}.c.c3{fill:var(--c4);animation-name:c3}@keyframes c4{48.51%{fill:var(--c2)}48.53%,100%{fill:var(--ce)}}.c.c4{fill:var(--c2);animation-name:c4}@keyframes c5{93.66%{fill:var(--c4)}93.68%,100%{fill:var(--ce)}}.c.c5{fill:var(--c4);animation-name:c5}@keyframes c6{44.72%{fill:var(--c2)}44.74%,100%{fill:var(--ce)}}.c.c6{fill:var(--c2);animation-name:c6}@keyframes c7{54%{fill:var(--c3)}54.02%,100%{fill:var(--ce)}}.c.c7{fill:var(--c3);animation-name:c7}@keyframes c8{53.58%{fill:var(--c3)}53.6%,100%{fill:var(--ce)}}.c.c8{fill:var(--c3);animation-name:c8}@keyframes c9{42.18%{fill:var(--c2)}42.2%,100%{fill:var(--ce)}}.c.c9{fill:var(--c2);animation-name:c9}@keyframes ca{54.42%{fill:var(--c3)}54.44%,100%{fill:var(--ce)}}.c.ca{fill:var(--c3);animation-name:ca}@keyframes cb{10.12%{fill:var(--c1)}10.14%,100%{fill:var(--ce)}}.c.cb{fill:var(--c1);animation-name:cb}@keyframes cc{37.96%{fill:var(--c2)}37.98%,100%{fill:var(--ce)}}.c.cc{fill:var(--c2);animation-name:cc}@keyframes cd{37.54%{fill:var(--c2)}37.56%,100%{fill:var(--ce)}}.c.cd{fill:var(--c2);animation-name:cd}@keyframes ce{15.18%{fill:var(--c1)}15.2%,100%{fill:var(--ce)}}.c.ce{fill:var(--c1);animation-name:ce}@keyframes cf{15.6%{fill:var(--c1)}15.62%,100%{fill:var(--ce)}}.c.cf{fill:var(--c1);animation-name:cf}@keyframes cg{85.64%{fill:var(--c4)}85.66%,100%{fill:var(--ce)}}.c.cg{fill:var(--c4);animation-name:cg}@keyframes ch{16.45%{fill:var(--c1)}16.47%,100%{fill:var(--ce)}}.c.ch{fill:var(--c1);animation-name:ch}@keyframes ci{17.71%{fill:var(--c1)}17.73%,100%{fill:var(--ce)}}.c.ci{fill:var(--c1);animation-name:ci}@keyframes cj{19.4%{fill:var(--c1)}19.42%,100%{fill:var(--ce)}}.c.cj{fill:var(--c1);animation-name:cj}@keyframes ck{82.27%{fill:var(--c4)}82.29%,100%{fill:var(--ce)}}.c.ck{fill:var(--c4);animation-name:ck}@keyframes cl{20.67%{fill:var(--c1)}20.69%,100%{fill:var(--ce)}}.c.cl{fill:var(--c1);animation-name:cl}@keyframes cm{22.77%{fill:var(--c1)}22.79%,100%{fill:var(--ce)}}.c.cm{fill:var(--c1);animation-name:cm}@keyframes cn{25.31%{fill:var(--c1)}25.33%,100%{fill:var(--ce)}}.c.cn{fill:var(--c1);animation-name:cn}@keyframes co{75.94%{fill:var(--c4)}75.96%,100%{fill:var(--ce)}}.c.co{fill:var(--c4);animation-name:co}@keyframes cp{76.36%{fill:var(--c4)}76.38%,100%{fill:var(--ce)}}.c.cp{fill:var(--c4);animation-name:cp}@keyframes cq{29.53%{fill:var(--c2)}29.55%,100%{fill:var(--ce)}}.c.cq{fill:var(--c2);animation-name:cq}@keyframes cr{74.67%{fill:var(--c4)}74.69%,100%{fill:var(--ce)}}.c.cr{fill:var(--c4);animation-name:cr}@keyframes cs{28.26%{fill:var(--c1)}28.28%,100%{fill:var(--ce)}}.c.cs{fill:var(--c1);animation-name:cs}@keyframes ct{27.84%{fill:var(--c1)}27.86%,100%{fill:var(--ce)}}.c.ct{fill:var(--c1);animation-name:ct}@keyframes cu{70.88%{fill:var(--c4)}70.9%,100%{fill:var(--ce)}}.c.cu{fill:var(--c4);animation-name:cu}@keyframes cv{70.45%{fill:var(--c3)}70.47%,100%{fill:var(--ce)}}.c.cv{fill:var(--c3);animation-name:cv}.u{transform-origin:0 0;transform:scale(0,1);animation:none linear 23700ms infinite}@keyframes u0{3.37%{transform:scale(0.000,1)}3.39%,10.12%{transform:scale(0.083,1)}10.14%,15.18%{transform:scale(0.167,1)}15.2%,15.6%{transform:scale(0.250,1)}15.62%,16.45%{transform:scale(0.333,1)}16.47%,17.71%{transform:scale(0.417,1)}17.73%,19.4%{transform:scale(0.500,1)}19.42%,20.67%{transform:scale(0.583,1)}20.69%,22.77%{transform:scale(0.667,1)}22.79%,25.31%{transform:scale(0.750,1)}25.33%,27.84%{transform:scale(0.833,1)}27.86%,28.26%{transform:scale(0.917,1)}28.28%,100%{transform:scale(1.000,1)}}.u.u0{fill:var(--c1);animation-name:u0;transform-origin:0.0px 0}@keyframes u1{29.53%{transform:scale(0.000,1)}29.55%,37.54%{transform:scale(0.167,1)}37.56%,37.96%{transform:scale(0.333,1)}37.98%,42.18%{transform:scale(0.500,1)}42.2%,44.72%{transform:scale(0.667,1)}44.74%,48.51%{transform:scale(0.833,1)}48.53%,100%{transform:scale(1.000,1)}}.u.u1{fill:var(--c2);animation-name:u1;transform-origin:318.0px 0}@keyframes u2{53.58%{transform:scale(0.000,1)}53.6%,54%{transform:scale(0.250,1)}54.02%,54.42%{transform:scale(0.500,1)}54.44%,70.45%{transform:scale(0.750,1)}70.47%,100%{transform:scale(1.000,1)}}.u.u2{fill:var(--c3);animation-name:u2;transform-origin:477.0px 0}@keyframes u3{70.88%{transform:scale(0.000,1)}70.9%,74.67%{transform:scale(0.100,1)}74.69%,75.94%{transform:scale(0.200,1)}75.96%,76.36%{transform:scale(0.300,1)}76.38%,82.27%{transform:scale(0.400,1)}82.29%,85.64%{transform:scale(0.500,1)}85.66%,93.66%{transform:scale(0.600,1)}93.68%,95.35%{transform:scale(0.700,1)}95.37%,95.77%{transform:scale(0.800,1)}95.79%,96.19%{transform:scale(0.900,1)}96.21%,100%{transform:scale(1.000,1)}}.u.u3{fill:var(--c4);animation-name:u3;transform-origin:583.0px 0}.s{shape-rendering:geometricPrecision;fill:var(--cs);animation:none linear 23700ms infinite}@keyframes s0{0%,99.58%{transform:translate(0px,-16px)}0.42%{transform:translate(0px,0px)}2.53%{transform:translate(80px,0px)}4.64%{transform:translate(80px,80px)}5.49%,49.37%{transform:translate(112px,80px)}5.91%,48.1%,49.79%{transform:translate(112px,64px)}9.28%{transform:translate(240px,64px)}10.13%,41.35%{transform:translate(240px,32px)}13.08%{transform:translate(352px,32px)}13.5%{transform:translate(352px,16px)}14.77%{transform:translate(400px,16px)}15.19%{transform:translate(400px,32px)}16.03%{transform:translate(432px,32px)}16.46%{transform:translate(432px,16px)}17.3%,18.99%{transform:translate(464px,16px)}17.72%{transform:translate(464px,0px)}18.14%{transform:translate(480px,0px)}18.57%{transform:translate(480px,16px)}19.83%{transform:translate(464px,48px)}20.25%{transform:translate(480px,48px)}20.68%{transform:translate(480px,64px)}22.36%{transform:translate(544px,64px)}22.78%{transform:translate(544px,48px)}27%{transform:translate(704px,48px)}28.27%{transform:translate(704px,0px)}29.11%{transform:translate(672px,0px)}29.54%{transform:translate(672px,16px)}37.13%{transform:translate(384px,16px)}37.55%{transform:translate(384px,32px)}41.77%{transform:translate(240px,48px)}42.62%{transform:translate(208px,48px)}43.88%{transform:translate(208px,0px)}46.41%{transform:translate(112px,0px)}48.52%{transform:translate(96px,64px)}48.95%{transform:translate(96px,80px)}52.74%{transform:translate(224px,64px)}54.01%{transform:translate(224px,16px)}69.2%{transform:translate(800px,16px)}70.04%{transform:translate(800px,48px)}70.46%{transform:translate(816px,48px)}70.89%{transform:translate(816px,32px)}75.11%{transform:translate(656px,32px)}76.37%{transform:translate(656px,80px)}76.79%{transform:translate(640px,80px)}78.06%{transform:translate(640px,32px)}83.97%{transform:translate(416px,32px)}85.65%{transform:translate(416px,96px)}86.08%{transform:translate(400px,96px)}86.5%{transform:translate(400px,80px)}93.67%{transform:translate(128px,80px)}94.51%{transform:translate(128px,48px)}95.36%{transform:translate(96px,48px)}96.62%{transform:translate(96px,0px)}97.47%{transform:translate(64px,0px)}97.89%{transform:translate(64px,-16px)}}.s.s0{transform:translate(0px,-16px);animation-name:s0}@keyframes s1{0%,99.58%{transform:translate(16px,-16px)}0.42%{transform:translate(0px,-16px)}0.84%{transform:translate(0px,0px)}2.95%{transform:translate(80px,0px)}5.06%{transform:translate(80px,80px)}5.91%,49.79%{transform:translate(112px,80px)}6.33%,48.52%,50.21%{transform:translate(112px,64px)}9.7%{transform:translate(240px,64px)}10.55%,41.77%{transform:translate(240px,32px)}13.5%{transform:translate(352px,32px)}13.92%{transform:translate(352px,16px)}15.19%{transform:translate(400px,16px)}15.61%{transform:translate(400px,32px)}16.46%{transform:translate(432px,32px)}16.88%{transform:translate(432px,16px)}17.72%,19.41%{transform:translate(464px,16px)}18.14%{transform:translate(464px,0px)}18.57%{transform:translate(480px,0px)}18.99%{transform:translate(480px,16px)}20.25%{transform:translate(464px,48px)}20.68%{transform:translate(480px,48px)}21.1%{transform:translate(480px,64px)}22.78%{transform:translate(544px,64px)}23.21%{transform:translate(544px,48px)}27.43%{transform:translate(704px,48px)}28.69%{transform:translate(704px,0px)}29.54%{transform:translate(672px,0px)}29.96%{transform:translate(672px,16px)}37.55%{transform:translate(384px,16px)}37.97%{transform:translate(384px,32px)}42.19%{transform:translate(240px,48px)}43.04%{transform:translate(208px,48px)}44.3%{transform:translate(208px,0px)}46.84%{transform:translate(112px,0px)}48.95%{transform:translate(96px,64px)}49.37%{transform:translate(96px,80px)}53.16%{transform:translate(224px,64px)}54.43%{transform:translate(224px,16px)}69.62%{transform:translate(800px,16px)}70.46%{transform:translate(800px,48px)}70.89%{transform:translate(816px,48px)}71.31%{transform:translate(816px,32px)}75.53%{transform:translate(656px,32px)}76.79%{transform:translate(656px,80px)}77.22%{transform:translate(640px,80px)}78.48%{transform:translate(640px,32px)}84.39%{transform:translate(416px,32px)}86.08%{transform:translate(416px,96px)}86.5%{transform:translate(400px,96px)}86.92%{transform:translate(400px,80px)}94.09%{transform:translate(128px,80px)}94.94%{transform:translate(128px,48px)}95.78%{transform:translate(96px,48px)}97.05%{transform:translate(96px,0px)}97.89%{transform:translate(64px,0px)}98.31%{transform:translate(64px,-16px)}}.s.s1{transform:translate(16px,-16px);animation-name:s1}@keyframes s2{0%,99.58%{transform:translate(32px,-16px)}0.84%{transform:translate(0px,-16px)}1.27%{transform:translate(0px,0px)}3.38%{transform:translate(80px,0px)}5.49%{transform:translate(80px,80px)}6.33%,50.21%{transform:translate(112px,80px)}6.75%,48.95%,50.63%{transform:translate(112px,64px)}10.13%{transform:translate(240px,64px)}10.97%,42.19%{transform:translate(240px,32px)}13.92%{transform:translate(352px,32px)}14.35%{transform:translate(352px,16px)}15.61%{transform:translate(400px,16px)}16.03%{transform:translate(400px,32px)}16.88%{transform:translate(432px,32px)}17.3%{transform:translate(432px,16px)}18.14%,19.83%{transform:translate(464px,16px)}18.57%{transform:translate(464px,0px)}18.99%{transform:translate(480px,0px)}19.41%{transform:translate(480px,16px)}20.68%{transform:translate(464px,48px)}21.1%{transform:translate(480px,48px)}21.52%{transform:translate(480px,64px)}23.21%{transform:translate(544px,64px)}23.63%{transform:translate(544px,48px)}27.85%{transform:translate(704px,48px)}29.11%{transform:translate(704px,0px)}29.96%{transform:translate(672px,0px)}30.38%{transform:translate(672px,16px)}37.97%{transform:translate(384px,16px)}38.4%{transform:translate(384px,32px)}42.62%{transform:translate(240px,48px)}43.46%{transform:translate(208px,48px)}44.73%{transform:translate(208px,0px)}47.26%{transform:translate(112px,0px)}49.37%{transform:translate(96px,64px)}49.79%{transform:translate(96px,80px)}53.59%{transform:translate(224px,64px)}54.85%{transform:translate(224px,16px)}70.04%{transform:translate(800px,16px)}70.89%{transform:translate(800px,48px)}71.31%{transform:translate(816px,48px)}71.73%{transform:translate(816px,32px)}75.95%{transform:translate(656px,32px)}77.22%{transform:translate(656px,80px)}77.64%{transform:translate(640px,80px)}78.9%{transform:translate(640px,32px)}84.81%{transform:translate(416px,32px)}86.5%{transform:translate(416px,96px)}86.92%{transform:translate(400px,96px)}87.34%{transform:translate(400px,80px)}94.51%{transform:translate(128px,80px)}95.36%{transform:translate(128px,48px)}96.2%{transform:translate(96px,48px)}97.47%{transform:translate(96px,0px)}98.31%{transform:translate(64px,0px)}98.73%{transform:translate(64px,-16px)}}.s.s2{transform:translate(32px,-16px);animation-name:s2}@keyframes s3{0%,99.58%{transform:translate(48px,-16px)}1.27%{transform:translate(0px,-16px)}1.69%{transform:translate(0px,0px)}3.8%{transform:translate(80px,0px)}5.91%{transform:translate(80px,80px)}6.75%,50.63%{transform:translate(112px,80px)}7.17%,49.37%,51.05%{transform:translate(112px,64px)}10.55%{transform:translate(240px,64px)}11.39%,42.62%{transform:translate(240px,32px)}14.35%{transform:translate(352px,32px)}14.77%{transform:translate(352px,16px)}16.03%{transform:translate(400px,16px)}16.46%{transform:translate(400px,32px)}17.3%{transform:translate(432px,32px)}17.72%{transform:translate(432px,16px)}18.57%,20.25%{transform:translate(464px,16px)}18.99%{transform:translate(464px,0px)}19.41%{transform:translate(480px,0px)}19.83%{transform:translate(480px,16px)}21.1%{transform:translate(464px,48px)}21.52%{transform:translate(480px,48px)}21.94%{transform:translate(480px,64px)}23.63%{transform:translate(544px,64px)}24.05%{transform:translate(544px,48px)}28.27%{transform:translate(704px,48px)}29.54%{transform:translate(704px,0px)}30.38%{transform:translate(672px,0px)}30.8%{transform:translate(672px,16px)}38.4%{transform:translate(384px,16px)}38.82%{transform:translate(384px,32px)}43.04%{transform:translate(240px,48px)}43.88%{transform:translate(208px,48px)}45.15%{transform:translate(208px,0px)}47.68%{transform:translate(112px,0px)}49.79%{transform:translate(96px,64px)}50.21%{transform:translate(96px,80px)}54.01%{transform:translate(224px,64px)}55.27%{transform:translate(224px,16px)}70.46%{transform:translate(800px,16px)}71.31%{transform:translate(800px,48px)}71.73%{transform:translate(816px,48px)}72.15%{transform:translate(816px,32px)}76.37%{transform:translate(656px,32px)}77.64%{transform:translate(656px,80px)}78.06%{transform:translate(640px,80px)}79.32%{transform:translate(640px,32px)}85.23%{transform:translate(416px,32px)}86.92%{transform:translate(416px,96px)}87.34%{transform:translate(400px,96px)}87.76%{transform:translate(400px,80px)}94.94%{transform:translate(128px,80px)}95.78%{transform:translate(128px,48px)}96.62%{transform:translate(96px,48px)}97.89%{transform:translate(96px,0px)}98.73%{transform:translate(64px,0px)}99.16%{transform:translate(64px,-16px)}}.s.s3{transform:translate(48px,-16px);animation-name:s3}</style><rect class="c" x="2" y="2" rx="2" ry="2"/><rect class="c" x="2" y="18" rx="2" ry="2"/><rect class="c" x="2" y="34" rx="2" ry="2"/><rect class="c" x="2" y="50" rx="2" ry="2"/><rect class="c" x="2" y="66" rx="2" ry="2"/><rect class="c" x="2" y="82" rx="2" ry="2"/><rect class="c" x="2" y="98" rx="2" ry="2"/><rect class="c" x="18" y="2" rx="2" ry="2"/><rect class="c" x="18" y="18" rx="2" ry="2"/><rect class="c" x="18" y="34" rx="2" ry="2"/><rect class="c" x="18" y="50" rx="2" ry="2"/><rect class="c" x="18" y="66" rx="2" ry="2"/><rect class="c" x="18" y="82" rx="2" ry="2"/><rect class="c" x="18" y="98" rx="2" ry="2"/><rect class="c" x="34" y="2" rx="2" ry="2"/><rect class="c" x="34" y="18" rx="2" ry="2"/><rect class="c" x="34" y="34" rx="2" ry="2"/><rect class="c" x="34" y="50" rx="2" ry="2"/><rect class="c" x="34" y="66" rx="2" ry="2"/><rect class="c" x="34" y="82" rx="2" ry="2"/><rect class="c" x="34" y="98" rx="2" ry="2"/><rect class="c" x="50" y="2" rx="2" ry="2"/><rect class="c" x="50" y="18" rx="2" ry="2"/><rect class="c" x="50" y="34" rx="2" ry="2"/><rect class="c" x="50" y="50" rx="2" ry="2"/><rect class="c" x="50" y="66" rx="2" ry="2"/><rect class="c" x="50" y="82" rx="2" ry="2"/><rect class="c" x="50" y="98" rx="2" ry="2"/><rect class="c" x="66" y="2" rx="2" ry="2"/><rect class="c" x="66" y="18" rx="2" ry="2"/><rect class="c" x="66" y="34" rx="2" ry="2"/><rect class="c" x="66" y="50" rx="2" ry="2"/><rect class="c" x="66" y="66" rx="2" ry="2"/><rect class="c" x="66" y="82" rx="2" ry="2"/><rect class="c" x="66" y="98" rx="2" ry="2"/><rect class="c" x="82" y="2" rx="2" ry="2"/><rect class="c" x="82" y="18" rx="2" ry="2"/><rect class="c c0" x="82" y="34" rx="2" ry="2"/><rect class="c" x="82" y="50" rx="2" ry="2"/><rect class="c" x="82" y="66" rx="2" ry="2"/><rect class="c" x="82" y="82" rx="2" ry="2"/><rect class="c" x="82" y="98" rx="2" ry="2"/><rect class="c" x="98" y="2" rx="2" ry="2"/><rect class="c c1" x="98" y="18" rx="2" ry="2"/><rect class="c c2" x="98" y="34" rx="2" ry="2"/><rect class="c c3" x="98" y="50" rx="2" ry="2"/><rect class="c c4" x="98" y="66" rx="2" ry="2"/><rect class="c" x="98" y="82" rx="2" ry="2"/><rect class="c" x="98" y="98" rx="2" ry="2"/><rect class="c" x="114" y="2" rx="2" ry="2"/><rect class="c" x="114" y="18" rx="2" ry="2"/><rect class="c" x="114" y="34" rx="2" ry="2"/><rect class="c" x="114" y="50" rx="2" ry="2"/><rect class="c" x="114" y="66" rx="2" ry="2"/><rect class="c" x="114" y="82" rx="2" ry="2"/><rect class="c" x="114" y="98" rx="2" ry="2"/><rect class="c" x="130" y="2" rx="2" ry="2"/><rect class="c" x="130" y="18" rx="2" ry="2"/><rect class="c" x="130" y="34" rx="2" ry="2"/><rect class="c" x="130" y="50" rx="2" ry="2"/><rect class="c" x="130" y="66" rx="2" ry="2"/><rect class="c c5" x="130" y="82" rx="2" ry="2"/><rect class="c" x="130" y="98" rx="2" ry="2"/><rect class="c" x="146" y="2" rx="2" ry="2"/><rect class="c" x="146" y="18" rx="2" ry="2"/><rect class="c" x="146" y="34" rx="2" ry="2"/><rect class="c" x="146" y="50" rx="2" ry="2"/><rect class="c" x="146" y="66" rx="2" ry="2"/><rect class="c" x="146" y="82" rx="2" ry="2"/><rect class="c" x="146" y="98" rx="2" ry="2"/><rect class="c" x="162" y="2" rx="2" ry="2"/><rect class="c" x="162" y="18" rx="2" ry="2"/><rect class="c" x="162" y="34" rx="2" ry="2"/><rect class="c" x="162" y="50" rx="2" ry="2"/><rect class="c" x="162" y="66" rx="2" ry="2"/><rect class="c" x="162" y="82" rx="2" ry="2"/><rect class="c" x="162" y="98" rx="2" ry="2"/><rect class="c c6" x="178" y="2" rx="2" ry="2"/><rect class="c" x="178" y="18" rx="2" ry="2"/><rect class="c" x="178" y="34" rx="2" ry="2"/><rect class="c" x="178" y="50" rx="2" ry="2"/><rect class="c" x="178" y="66" rx="2" ry="2"/><rect class="c" x="178" y="82" rx="2" ry="2"/><rect class="c" x="178" y="98" rx="2" ry="2"/><rect class="c" x="194" y="2" rx="2" ry="2"/><rect class="c" x="194" y="18" rx="2" ry="2"/><rect class="c" x="194" y="34" rx="2" ry="2"/><rect class="c" x="194" y="50" rx="2" ry="2"/><rect class="c" x="194" y="66" rx="2" ry="2"/><rect class="c" x="194" y="82" rx="2" ry="2"/><rect class="c" x="194" y="98" rx="2" ry="2"/><rect class="c" x="210" y="2" rx="2" ry="2"/><rect class="c" x="210" y="18" rx="2" ry="2"/><rect class="c" x="210" y="34" rx="2" ry="2"/><rect class="c" x="210" y="50" rx="2" ry="2"/><rect class="c" x="210" y="66" rx="2" ry="2"/><rect class="c" x="210" y="82" rx="2" ry="2"/><rect class="c" x="210" y="98" rx="2" ry="2"/><rect class="c" x="226" y="2" rx="2" ry="2"/><rect class="c c7" x="226" y="18" rx="2" ry="2"/><rect class="c c8" x="226" y="34" rx="2" ry="2"/><rect class="c c9" x="226" y="50" rx="2" ry="2"/><rect class="c" x="226" y="66" rx="2" ry="2"/><rect class="c" x="226" y="82" rx="2" ry="2"/><rect class="c" x="226" y="98" rx="2" ry="2"/><rect class="c" x="242" y="2" rx="2" ry="2"/><rect class="c ca" x="242" y="18" rx="2" ry="2"/><rect class="c cb" x="242" y="34" rx="2" ry="2"/><rect class="c" x="242" y="50" rx="2" ry="2"/><rect class="c" x="242" y="66" rx="2" ry="2"/><rect class="c" x="242" y="82" rx="2" ry="2"/><rect class="c" x="242" y="98" rx="2" ry="2"/><rect class="c" x="258" y="2" rx="2" ry="2"/><rect class="c" x="258" y="18" rx="2" ry="2"/><rect class="c" x="258" y="34" rx="2" ry="2"/><rect class="c" x="258" y="50" rx="2" ry="2"/><rect class="c" x="258" y="66" rx="2" ry="2"/><rect class="c" x="258" y="82" rx="2" ry="2"/><rect class="c" x="258" y="98" rx="2" ry="2"/><rect class="c" x="274" y="2" rx="2" ry="2"/><rect class="c" x="274" y="18" rx="2" ry="2"/><rect class="c" x="274" y="34" rx="2" ry="2"/><rect class="c" x="274" y="50" rx="2" ry="2"/><rect class="c" x="274" y="66" rx="2" ry="2"/><rect class="c" x="274" y="82" rx="2" ry="2"/><rect class="c" x="274" y="98" rx="2" ry="2"/><rect class="c" x="290" y="2" rx="2" ry="2"/><rect class="c" x="290" y="18" rx="2" ry="2"/><rect class="c" x="290" y="34" rx="2" ry="2"/><rect class="c" x="290" y="50" rx="2" ry="2"/><rect class="c" x="290" y="66" rx="2" ry="2"/><rect class="c" x="290" y="82" rx="2" ry="2"/><rect class="c" x="290" y="98" rx="2" ry="2"/><rect class="c" x="306" y="2" rx="2" ry="2"/><rect class="c" x="306" y="18" rx="2" ry="2"/><rect class="c" x="306" y="34" rx="2" ry="2"/><rect class="c" x="306" y="50" rx="2" ry="2"/><rect class="c" x="306" y="66" rx="2" ry="2"/><rect class="c" x="306" y="82" rx="2" ry="2"/><rect class="c" x="306" y="98" rx="2" ry="2"/><rect class="c" x="322" y="2" rx="2" ry="2"/><rect class="c" x="322" y="18" rx="2" ry="2"/><rect class="c" x="322" y="34" rx="2" ry="2"/><rect class="c" x="322" y="50" rx="2" ry="2"/><rect class="c" x="322" y="66" rx="2" ry="2"/><rect class="c" x="322" y="82" rx="2" ry="2"/><rect class="c" x="322" y="98" rx="2" ry="2"/><rect class="c" x="338" y="2" rx="2" ry="2"/><rect class="c" x="338" y="18" rx="2" ry="2"/><rect class="c" x="338" y="34" rx="2" ry="2"/><rect class="c" x="338" y="50" rx="2" ry="2"/><rect class="c" x="338" y="66" rx="2" ry="2"/><rect class="c" x="338" y="82" rx="2" ry="2"/><rect class="c" x="338" y="98" rx="2" ry="2"/><rect class="c" x="354" y="2" rx="2" ry="2"/><rect class="c" x="354" y="18" rx="2" ry="2"/><rect class="c" x="354" y="34" rx="2" ry="2"/><rect class="c" x="354" y="50" rx="2" ry="2"/><rect class="c" x="354" y="66" rx="2" ry="2"/><rect class="c" x="354" y="82" rx="2" ry="2"/><rect class="c" x="354" y="98" rx="2" ry="2"/><rect class="c" x="370" y="2" rx="2" ry="2"/><rect class="c" x="370" y="18" rx="2" ry="2"/><rect class="c cc" x="370" y="34" rx="2" ry="2"/><rect class="c" x="370" y="50" rx="2" ry="2"/><rect class="c" x="370" y="66" rx="2" ry="2"/><rect class="c" x="370" y="82" rx="2" ry="2"/><rect class="c" x="370" y="98" rx="2" ry="2"/><rect class="c" x="386" y="2" rx="2" ry="2"/><rect class="c" x="386" y="18" rx="2" ry="2"/><rect class="c cd" x="386" y="34" rx="2" ry="2"/><rect class="c" x="386" y="50" rx="2" ry="2"/><rect class="c" x="386" y="66" rx="2" ry="2"/><rect class="c" x="386" y="82" rx="2" ry="2"/><rect class="c" x="386" y="98" rx="2" ry="2"/><rect class="c" x="402" y="2" rx="2" ry="2"/><rect class="c" x="402" y="18" rx="2" ry="2"/><rect class="c ce" x="402" y="34" rx="2" ry="2"/><rect class="c" x="402" y="50" rx="2" ry="2"/><rect class="c" x="402" y="66" rx="2" ry="2"/><rect class="c" x="402" y="82" rx="2" ry="2"/><rect class="c" x="402" y="98" rx="2" ry="2"/><rect class="c" x="418" y="2" rx="2" ry="2"/><rect class="c" x="418" y="18" rx="2" ry="2"/><rect class="c cf" x="418" y="34" rx="2" ry="2"/><rect class="c" x="418" y="50" rx="2" ry="2"/><rect class="c" x="418" y="66" rx="2" ry="2"/><rect class="c" x="418" y="82" rx="2" ry="2"/><rect class="c cg" x="418" y="98" rx="2" ry="2"/><rect class="c" x="434" y="2" rx="2" ry="2"/><rect class="c ch" x="434" y="18" rx="2" ry="2"/><rect class="c" x="434" y="34" rx="2" ry="2"/><rect class="c" x="434" y="50" rx="2" ry="2"/><rect class="c" x="434" y="66" rx="2" ry="2"/><rect class="c" x="434" y="82" rx="2" ry="2"/><rect class="c" x="434" y="98" rx="2" ry="2"/><rect class="c" x="450" y="2" rx="2" ry="2"/><rect class="c" x="450" y="18" rx="2" ry="2"/><rect class="c" x="450" y="34" rx="2" ry="2"/><rect class="c" x="450" y="50" rx="2" ry="2"/><rect class="c" x="450" y="66" rx="2" ry="2"/><rect class="c" x="450" y="82" rx="2" ry="2"/><rect class="c" x="450" y="98" rx="2" ry="2"/><rect class="c ci" x="466" y="2" rx="2" ry="2"/><rect class="c" x="466" y="18" rx="2" ry="2"/><rect class="c cj" x="466" y="34" rx="2" ry="2"/><rect class="c" x="466" y="50" rx="2" ry="2"/><rect class="c" x="466" y="66" rx="2" ry="2"/><rect class="c" x="466" y="82" rx="2" ry="2"/><rect class="c" x="466" y="98" rx="2" ry="2"/><rect class="c" x="482" y="2" rx="2" ry="2"/><rect class="c" x="482" y="18" rx="2" ry="2"/><rect class="c ck" x="482" y="34" rx="2" ry="2"/><rect class="c" x="482" y="50" rx="2" ry="2"/><rect class="c cl" x="482" y="66" rx="2" ry="2"/><rect class="c" x="482" y="82" rx="2" ry="2"/><rect class="c" x="482" y="98" rx="2" ry="2"/><rect class="c" x="498" y="2" rx="2" ry="2"/><rect class="c" x="498" y="18" rx="2" ry="2"/><rect class="c" x="498" y="34" rx="2" ry="2"/><rect class="c" x="498" y="50" rx="2" ry="2"/><rect class="c" x="498" y="66" rx="2" ry="2"/><rect class="c" x="498" y="82" rx="2" ry="2"/><rect class="c" x="498" y="98" rx="2" ry="2"/><rect class="c" x="514" y="2" rx="2" ry="2"/><rect class="c" x="514" y="18" rx="2" ry="2"/><rect class="c" x="514" y="34" rx="2" ry="2"/><rect class="c" x="514" y="50" rx="2" ry="2"/><rect class="c" x="514" y="66" rx="2" ry="2"/><rect class="c" x="514" y="82" rx="2" ry="2"/><rect class="c" x="514" y="98" rx="2" ry="2"/><rect class="c" x="530" y="2" rx="2" ry="2"/><rect class="c" x="530" y="18" rx="2" ry="2"/><rect class="c" x="530" y="34" rx="2" ry="2"/><rect class="c" x="530" y="50" rx="2" ry="2"/><rect class="c" x="530" y="66" rx="2" ry="2"/><rect class="c" x="530" y="82" rx="2" ry="2"/><rect class="c" x="530" y="98" rx="2" ry="2"/><rect class="c" x="546" y="2" rx="2" ry="2"/><rect class="c" x="546" y="18" rx="2" ry="2"/><rect class="c" x="546" y="34" rx="2" ry="2"/><rect class="c cm" x="546" y="50" rx="2" ry="2"/><rect class="c" x="546" y="66" rx="2" ry="2"/><rect class="c" x="546" y="82" rx="2" ry="2"/><rect class="c" x="546" y="98" rx="2" ry="2"/><rect class="c" x="562" y="2" rx="2" ry="2"/><rect class="c" x="562" y="18" rx="2" ry="2"/><rect class="c" x="562" y="34" rx="2" ry="2"/><rect class="c" x="562" y="50" rx="2" ry="2"/><rect class="c" x="562" y="66" rx="2" ry="2"/><rect class="c" x="562" y="82" rx="2" ry="2"/><rect class="c" x="562" y="98" rx="2" ry="2"/><rect class="c" x="578" y="2" rx="2" ry="2"/><rect class="c" x="578" y="18" rx="2" ry="2"/><rect class="c" x="578" y="34" rx="2" ry="2"/><rect class="c" x="578" y="50" rx="2" ry="2"/><rect class="c" x="578" y="66" rx="2" ry="2"/><rect class="c" x="578" y="82" rx="2" ry="2"/><rect class="c" x="578" y="98" rx="2" ry="2"/><rect class="c" x="594" y="2" rx="2" ry="2"/><rect class="c" x="594" y="18" rx="2" ry="2"/><rect class="c" x="594" y="34" rx="2" ry="2"/><rect class="c" x="594" y="50" rx="2" ry="2"/><rect class="c" x="594" y="66" rx="2" ry="2"/><rect class="c" x="594" y="82" rx="2" ry="2"/><rect class="c" x="594" y="98" rx="2" ry="2"/><rect class="c" x="610" y="2" rx="2" ry="2"/><rect class="c" x="610" y="18" rx="2" ry="2"/><rect class="c" x="610" y="34" rx="2" ry="2"/><rect class="c" x="610" y="50" rx="2" ry="2"/><rect class="c" x="610" y="66" rx="2" ry="2"/><rect class="c" x="610" y="82" rx="2" ry="2"/><rect class="c" x="610" y="98" rx="2" ry="2"/><rect class="c" x="626" y="2" rx="2" ry="2"/><rect class="c" x="626" y="18" rx="2" ry="2"/><rect class="c" x="626" y="34" rx="2" ry="2"/><rect class="c" x="626" y="50" rx="2" ry="2"/><rect class="c" x="626" y="66" rx="2" ry="2"/><rect class="c" x="626" y="82" rx="2" ry="2"/><rect class="c" x="626" y="98" rx="2" ry="2"/><rect class="c" x="642" y="2" rx="2" ry="2"/><rect class="c" x="642" y="18" rx="2" ry="2"/><rect class="c" x="642" y="34" rx="2" ry="2"/><rect class="c cn" x="642" y="50" rx="2" ry="2"/><rect class="c" x="642" y="66" rx="2" ry="2"/><rect class="c" x="642" y="82" rx="2" ry="2"/><rect class="c" x="642" y="98" rx="2" ry="2"/><rect class="c" x="658" y="2" rx="2" ry="2"/><rect class="c" x="658" y="18" rx="2" ry="2"/><rect class="c" x="658" y="34" rx="2" ry="2"/><rect class="c" x="658" y="50" rx="2" ry="2"/><rect class="c co" x="658" y="66" rx="2" ry="2"/><rect class="c cp" x="658" y="82" rx="2" ry="2"/><rect class="c" x="658" y="98" rx="2" ry="2"/><rect class="c" x="674" y="2" rx="2" ry="2"/><rect class="c cq" x="674" y="18" rx="2" ry="2"/><rect class="c cr" x="674" y="34" rx="2" ry="2"/><rect class="c" x="674" y="50" rx="2" ry="2"/><rect class="c" x="674" y="66" rx="2" ry="2"/><rect class="c" x="674" y="82" rx="2" ry="2"/><rect class="c" x="674" y="98" rx="2" ry="2"/><rect class="c" x="690" y="2" rx="2" ry="2"/><rect class="c" x="690" y="18" rx="2" ry="2"/><rect class="c" x="690" y="34" rx="2" ry="2"/><rect class="c" x="690" y="50" rx="2" ry="2"/><rect class="c" x="690" y="66" rx="2" ry="2"/><rect class="c" x="690" y="82" rx="2" ry="2"/><rect class="c" x="690" y="98" rx="2" ry="2"/><rect class="c cs" x="706" y="2" rx="2" ry="2"/><rect class="c ct" x="706" y="18" rx="2" ry="2"/><rect class="c" x="706" y="34" rx="2" ry="2"/><rect class="c" x="706" y="50" rx="2" ry="2"/><rect class="c" x="706" y="66" rx="2" ry="2"/><rect class="c" x="706" y="82" rx="2" ry="2"/><rect class="c" x="706" y="98" rx="2" ry="2"/><rect class="c" x="722" y="2" rx="2" ry="2"/><rect class="c" x="722" y="18" rx="2" ry="2"/><rect class="c" x="722" y="34" rx="2" ry="2"/><rect class="c" x="722" y="50" rx="2" ry="2"/><rect class="c" x="722" y="66" rx="2" ry="2"/><rect class="c" x="722" y="82" rx="2" ry="2"/><rect class="c" x="722" y="98" rx="2" ry="2"/><rect class="c" x="738" y="2" rx="2" ry="2"/><rect class="c" x="738" y="18" rx="2" ry="2"/><rect class="c" x="738" y="34" rx="2" ry="2"/><rect class="c" x="738" y="50" rx="2" ry="2"/><rect class="c" x="738" y="66" rx="2" ry="2"/><rect class="c" x="738" y="82" rx="2" ry="2"/><rect class="c" x="738" y="98" rx="2" ry="2"/><rect class="c" x="754" y="2" rx="2" ry="2"/><rect class="c" x="754" y="18" rx="2" ry="2"/><rect class="c" x="754" y="34" rx="2" ry="2"/><rect class="c" x="754" y="50" rx="2" ry="2"/><rect class="c" x="754" y="66" rx="2" ry="2"/><rect class="c" x="754" y="82" rx="2" ry="2"/><rect class="c" x="754" y="98" rx="2" ry="2"/><rect class="c" x="770" y="2" rx="2" ry="2"/><rect class="c" x="770" y="18" rx="2" ry="2"/><rect class="c" x="770" y="34" rx="2" ry="2"/><rect class="c" x="770" y="50" rx="2" ry="2"/><rect class="c" x="770" y="66" rx="2" ry="2"/><rect class="c" x="770" y="82" rx="2" ry="2"/><rect class="c" x="770" y="98" rx="2" ry="2"/><rect class="c" x="786" y="2" rx="2" ry="2"/><rect class="c" x="786" y="18" rx="2" ry="2"/><rect class="c" x="786" y="34" rx="2" ry="2"/><rect class="c" x="786" y="50" rx="2" ry="2"/><rect class="c" x="786" y="66" rx="2" ry="2"/><rect class="c" x="786" y="82" rx="2" ry="2"/><rect class="c" x="786" y="98" rx="2" ry="2"/><rect class="c" x="802" y="2" rx="2" ry="2"/><rect class="c" x="802" y="18" rx="2" ry="2"/><rect class="c" x="802" y="34" rx="2" ry="2"/><rect class="c" x="802" y="50" rx="2" ry="2"/><rect class="c" x="802" y="66" rx="2" ry="2"/><rect class="c" x="802" y="82" rx="2" ry="2"/><rect class="c" x="802" y="98" rx="2" ry="2"/><rect class="c" x="818" y="2" rx="2" ry="2"/><rect class="c" x="818" y="18" rx="2" ry="2"/><rect class="c cu" x="818" y="34" rx="2" ry="2"/><rect class="c cv" x="818" y="50" rx="2" ry="2"/><rect class="c" x="818" y="66" rx="2" ry="2"/><rect class="c" x="818" y="82" rx="2" ry="2"/><rect class="c" x="818" y="98" rx="2" ry="2"/><rect class="c" x="834" y="2" rx="2" ry="2"/><rect class="c" x="834" y="18" rx="2" ry="2"/><rect class="c" x="834" y="34" rx="2" ry="2"/><rect class="c" x="834" y="50" rx="2" ry="2"/><rect class="c" x="834" y="66" rx="2" ry="2"/><rect class="c" x="834" y="82" rx="2" ry="2"/><rect class="c" x="834" y="98" rx="2" ry="2"/><rect class="u u0" height="12" width="318.6" x="0.0" y="144"/><rect class="u u1" height="12" width="159.6" x="318.0" y="144"/><rect class="u u2" height="12" width="106.6" x="477.0" y="144"/><rect class="u u3" height="12" width="265.6" x="583.0" y="144"/><rect class="s s0" x="0.8" y="0.8" width="14.4" height="14.4" rx="4.5" ry="4.5"/><rect class="s s1" x="1.8" y="1.8" width="12.3" height="12.3" rx="4.1" ry="4.1"/><rect class="s s2" x="2.6" y="2.6" width="10.8" height="10.8" rx="3.6" ry="3.6"/><rect class="s s3" x="3.0" y="3.0" width="9.9" height="9.9" rx="3.3" ry="3.3"/></svg>