<svg viewBox="-16 -32 880 192" width="880" height="192" xmlns="http://www.w3.org/2000/svg"><desc>Generated with https://github.com/Platane/snk</desc><style>:root{--cb:#1b1f230a;--cs:#d79401;--ce:#161b22;--c0:#161b22;--c1:#01311f;--c2:#034525;--c3:#0f6d31;--c4:#00c647}.c{shape-rendering:geometricPrecision;fill:var(--ce);stroke-width:1px;stroke:var(--cb);animation:none 34300ms linear infinite;width:12px;height:12px}@keyframes c0{5.24%{fill:var(--c1)}5.26%,100%{fill:var(--ce)}}.c.c0{fill:var(--c1);animation-name:c0}@keyframes c1{4.65%{fill:var(--c1)}4.67%,100%{fill:var(--ce)}}.c.c1{fill:var(--c1);animation-name:c1}@keyframes c2{5.82%{fill:var(--c1)}5.84%,100%{fill:var(--ce)}}.c.c2{fill:var(--c1);animation-name:c2}@keyframes c3{1.16%{fill:var(--c1)}1.18%,100%{fill:var(--ce)}}.c.c3{fill:var(--c1);animation-name:c3}@keyframes c4{4.07%{fill:var(--c1)}4.09%,100%{fill:var(--ce)}}.c.c4{fill:var(--c1);animation-name:c4}@keyframes c5{1.74%{fill:var(--c1)}1.76%,100%{fill:var(--ce)}}.c.c5{fill:var(--c1);animation-name:c5}@keyframes c6{3.78%{fill:var(--c1)}3.8%,100%{fill:var(--ce)}}.c.c6{fill:var(--c1);animation-name:c6}@keyframes c7{66.17%{fill:var(--c2)}66.19%,100%{fill:var(--ce)}}.c.c7{fill:var(--c2);animation-name:c7}@keyframes c8{2.32%{fill:var(--c1)}2.34%,100%{fill:var(--ce)}}.c.c8{fill:var(--c1);animation-name:c8}@keyframes c9{12.23%{fill:var(--c1)}12.25%,100%{fill:var(--ce)}}.c.c9{fill:var(--c1);animation-name:c9}@keyframes ca{8.74%{fill:var(--c1)}8.76%,100%{fill:var(--ce)}}.c.ca{fill:var(--c1);animation-name:ca}@keyframes cb{64.42%{fill:var(--c2)}64.44%,100%{fill:var(--ce)}}.c.cb{fill:var(--c2);animation-name:cb}@keyframes cc{11.94%{fill:var(--c1)}11.96%,100%{fill:var(--ce)}}.c.cc{fill:var(--c1);animation-name:cc}@keyframes cd{9.03%{fill:var(--c1)}9.05%,100%{fill:var(--ce)}}.c.cd{fill:var(--c1);animation-name:cd}@keyframes ce{63.26%{fill:var(--c2)}63.28%,100%{fill:var(--ce)}}.c.ce{fill:var(--c2);animation-name:ce}@keyframes cf{9.61%{fill:var(--c1)}9.63%,100%{fill:var(--ce)}}.c.cf{fill:var(--c1);animation-name:cf}@keyframes cg{69.96%{fill:var(--c3)}69.98%,100%{fill:var(--ce)}}.c.cg{fill:var(--c3);animation-name:cg}@keyframes ch{11.36%{fill:var(--c1)}11.38%,100%{fill:var(--ce)}}.c.ch{fill:var(--c1);animation-name:ch}@keyframes ci{10.78%{fill:var(--c1)}10.8%,100%{fill:var(--ce)}}.c.ci{fill:var(--c1);animation-name:ci}@keyframes cj{16.02%{fill:var(--c1)}16.04%,100%{fill:var(--ce)}}.c.cj{fill:var(--c1);animation-name:cj}@keyframes ck{18.07%{fill:var(--c1)}18.09%,100%{fill:var(--ce)}}.c.ck{fill:var(--c1);animation-name:ck}@keyframes cl{41.68%{fill:var(--c2)}41.7%,100%{fill:var(--ce)}}.c.cl{fill:var(--c2);animation-name:cl}@keyframes cm{40.22%{fill:var(--c1)}40.24%,100%{fill:var(--ce)}}.c.cm{fill:var(--c1);animation-name:cm}@keyframes cn{21.27%{fill:var(--c1)}21.29%,100%{fill:var(--ce)}}.c.cn{fill:var(--c1);animation-name:cn}@keyframes co{43.72%{fill:var(--c2)}43.74%,100%{fill:var(--ce)}}.c.co{fill:var(--c2);animation-name:co}@keyframes cp{22.44%{fill:var(--c1)}22.46%,100%{fill:var(--ce)}}.c.cp{fill:var(--c1);animation-name:cp}@keyframes cq{44.3%{fill:var(--c2)}44.32%,100%{fill:var(--ce)}}.c.cq{fill:var(--c2);animation-name:cq}@keyframes cr{23.02%{fill:var(--c1)}23.04%,100%{fill:var(--ce)}}.c.cr{fill:var(--c1);animation-name:cr}@keyframes cs{25.06%{fill:var(--c1)}25.08%,100%{fill:var(--ce)}}.c.cs{fill:var(--c1);animation-name:cs}@keyframes ct{79%{fill:var(--c3)}79.02%,100%{fill:var(--ce)}}.c.ct{fill:var(--c3);animation-name:ct}@keyframes cu{77.54%{fill:var(--c3)}77.56%,100%{fill:var(--ce)}}.c.cu{fill:var(--c3);animation-name:cu}@keyframes cv{47.51%{fill:var(--c2)}47.53%,100%{fill:var(--ce)}}.c.cv{fill:var(--c2);animation-name:cv}@keyframes cw{78.42%{fill:var(--c3)}78.44%,100%{fill:var(--ce)}}.c.cw{fill:var(--c3);animation-name:cw}@keyframes cx{46.93%{fill:var(--c2)}46.95%,100%{fill:var(--ce)}}.c.cx{fill:var(--c2);animation-name:cx}@keyframes cy{28.56%{fill:var(--c1)}28.58%,100%{fill:var(--ce)}}.c.cy{fill:var(--c1);animation-name:cy}@keyframes cz{28.27%{fill:var(--c1)}28.29%,100%{fill:var(--ce)}}.c.cz{fill:var(--c1);animation-name:cz}@keyframes c10{27.98%{fill:var(--c1)}28%,100%{fill:var(--ce)}}.c.c10{fill:var(--c1);animation-name:c10}@keyframes c11{27.69%{fill:var(--c1)}27.71%,100%{fill:var(--ce)}}.c.c11{fill:var(--c1);animation-name:c11}@keyframes c12{30.89%{fill:var(--c1)}30.91%,100%{fill:var(--ce)}}.c.c12{fill:var(--c1);animation-name:c12}@keyframes c13{31.48%{fill:var(--c1)}31.5%,100%{fill:var(--ce)}}.c.c13{fill:var(--c1);animation-name:c13}@keyframes c14{83.96%{fill:var(--c4)}83.98%,100%{fill:var(--ce)}}.c.c14{fill:var(--c4);animation-name:c14}@keyframes c15{51.59%{fill:var(--c2)}51.61%,100%{fill:var(--ce)}}.c.c15{fill:var(--c2);animation-name:c15}@keyframes c16{32.06%{fill:var(--c1)}32.08%,100%{fill:var(--ce)}}.c.c16{fill:var(--c1);animation-name:c16}.u{transform-origin:0 0;transform:scale(0,1);animation:none linear 34300ms infinite}@keyframes u0{1.16%{transform:scale(0.000,1)}1.18%,1.74%{transform:scale(0.034,1)}1.76%,2.32%{transform:scale(0.069,1)}2.34%,3.78%{transform:scale(0.103,1)}3.8%,4.07%{transform:scale(0.138,1)}4.09%,4.65%{transform:scale(0.172,1)}4.67%,5.24%{transform:scale(0.207,1)}5.26%,5.82%{transform:scale(0.241,1)}5.84%,8.74%{transform:scale(0.276,1)}8.76%,9.03%{transform:scale(0.310,1)}9.05%,9.61%{transform:scale(0.345,1)}9.63%,10.78%{transform:scale(0.379,1)}10.8%,11.36%{transform:scale(0.414,1)}11.38%,11.94%{transform:scale(0.448,1)}11.96%,12.23%{transform:scale(0.483,1)}12.25%,16.02%{transform:scale(0.517,1)}16.04%,18.07%{transform:scale(0.552,1)}18.09%,21.27%{transform:scale(0.586,1)}21.29%,22.44%{transform:scale(0.621,1)}22.46%,23.02%{transform:scale(0.655,1)}23.04%,25.06%{transform:scale(0.690,1)}25.08%,27.69%{transform:scale(0.724,1)}27.71%,27.98%{transform:scale(0.759,1)}28%,28.27%{transform:scale(0.793,1)}28.29%,28.56%{transform:scale(0.828,1)}28.58%,30.89%{transform:scale(0.862,1)}30.91%,31.48%{transform:scale(0.897,1)}31.5%,32.06%{transform:scale(0.931,1)}32.08%,40.22%{transform:scale(0.966,1)}40.24%,100%{transform:scale(1.000,1)}}.u.u0{fill:var(--c1);animation-name:u0;transform-origin:0.0px 0}@keyframes u1{41.68%{transform:scale(0.000,1)}41.7%,43.72%{transform:scale(0.111,1)}43.74%,44.3%{transform:scale(0.222,1)}44.32%,46.93%{transform:scale(0.333,1)}46.95%,47.51%{transform:scale(0.444,1)}47.53%,51.59%{transform:scale(0.556,1)}51.61%,63.26%{transform:scale(0.667,1)}63.28%,64.42%{transform:scale(0.778,1)}64.44%,66.17%{transform:scale(0.889,1)}66.19%,100%{transform:scale(1.000,1)}}.u.u1{fill:var(--c2);animation-name:u1;transform-origin:571.9px 0}@keyframes u2{69.96%{transform:scale(0.000,1)}69.98%,77.54%{transform:scale(0.250,1)}77.56%,78.42%{transform:scale(0.500,1)}78.44%,79%{transform:scale(0.750,1)}79.02%,100%{transform:scale(1.000,1)}}.u.u2{fill:var(--c3);animation-name:u2;transform-origin:749.4px 0}@keyframes u3{83.96%{transform:scale(0.000,1)}83.98%,100%{transform:scale(1.000,1)}}.u.u3{fill:var(--c4);animation-name:u3;transform-origin:828.3px 0}.s{shape-rendering:geometricPrecision;fill:var(--cs);animation:none linear 34300ms infinite}@keyframes s0{0%,99.71%{transform:translate(0px,-16px)}0.29%{transform:translate(0px,0px)}1.46%{transform:translate(64px,0px)}1.75%{transform:translate(64px,16px)}2.33%{transform:translate(96px,16px)}2.62%{transform:translate(96px,32px)}3.21%{transform:translate(64px,32px)}3.79%,6.71%{transform:translate(64px,64px)}4.96%{transform:translate(0px,64px)}5.25%{transform:translate(0px,80px)}6.41%{transform:translate(64px,80px)}9.33%{transform:translate(208px,64px)}9.62%{transform:translate(208px,80px)}10.2%{transform:translate(240px,80px)}11.08%{transform:translate(240px,32px)}12.24%{transform:translate(176px,32px)}12.54%{transform:translate(176px,16px)}13.12%{transform:translate(208px,16px)}13.41%{transform:translate(208px,0px)}15.74%{transform:translate(336px,0px)}16.03%{transform:translate(336px,16px)}16.62%{transform:translate(368px,16px)}18.08%{transform:translate(368px,96px)}20.41%{transform:translate(496px,96px)}21.28%{transform:translate(496px,48px)}22.16%{transform:translate(544px,48px)}22.45%{transform:translate(544px,32px)}22.74%{transform:translate(560px,32px)}23.03%{transform:translate(560px,16px)}24.2%{transform:translate(624px,16px)}25.07%,46.06%,78.72%{transform:translate(624px,64px)}25.36%,45.77%{transform:translate(608px,64px)}25.95%{transform:translate(608px,96px)}27.11%{transform:translate(672px,96px)}28.57%{transform:translate(672px,16px)}30.61%{transform:translate(784px,16px)}30.9%{transform:translate(784px,32px)}31.2%{transform:translate(800px,32px)}31.49%{transform:translate(800px,48px)}32.36%{transform:translate(848px,48px)}33.24%{transform:translate(848px,0px)}40.82%{transform:translate(432px,0px)}41.69%{transform:translate(432px,48px)}43.44%{transform:translate(528px,48px)}43.73%{transform:translate(528px,64px)}44.02%{transform:translate(544px,64px)}44.31%{transform:translate(544px,80px)}45.48%{transform:translate(608px,80px)}46.36%{transform:translate(624px,48px)}46.94%{transform:translate(656px,48px)}47.23%{transform:translate(656px,32px)}47.52%{transform:translate(640px,32px)}47.81%{transform:translate(640px,48px)}51.31%{transform:translate(832px,48px)}51.6%{transform:translate(832px,32px)}62.97%{transform:translate(208px,32px)}63.27%{transform:translate(208px,48px)}63.85%{transform:translate(176px,48px)}64.43%{transform:translate(176px,80px)}66.18%{transform:translate(80px,80px)}66.47%{transform:translate(80px,64px)}69.1%{transform:translate(224px,64px)}69.97%{transform:translate(224px,16px)}77.55%{transform:translate(640px,16px)}78.43%{transform:translate(640px,64px)}79.01%{transform:translate(624px,80px)}82.8%{transform:translate(832px,80px)}83.97%{transform:translate(832px,16px)}97.08%{transform:translate(112px,16px)}97.67%{transform:translate(112px,-16px)}}.s.s0{transform:translate(0px,-16px);animation-name:s0}@keyframes s1{0%,99.71%{transform:translate(16px,-16px)}0.29%{transform:translate(0px,-16px)}0.58%{transform:translate(0px,0px)}1.75%{transform:translate(64px,0px)}2.04%{transform:translate(64px,16px)}2.62%{transform:translate(96px,16px)}2.92%{transform:translate(96px,32px)}3.5%{transform:translate(64px,32px)}4.08%,7%{transform:translate(64px,64px)}5.25%{transform:translate(0px,64px)}5.54%{transform:translate(0px,80px)}6.71%{transform:translate(64px,80px)}9.62%{transform:translate(208px,64px)}9.91%{transform:translate(208px,80px)}10.5%{transform:translate(240px,80px)}11.37%{transform:translate(240px,32px)}12.54%{transform:translate(176px,32px)}12.83%{transform:translate(176px,16px)}13.41%{transform:translate(208px,16px)}13.7%{transform:translate(208px,0px)}16.03%{transform:translate(336px,0px)}16.33%{transform:translate(336px,16px)}16.91%{transform:translate(368px,16px)}18.37%{transform:translate(368px,96px)}20.7%{transform:translate(496px,96px)}21.57%{transform:translate(496px,48px)}22.45%{transform:translate(544px,48px)}22.74%{transform:translate(544px,32px)}23.03%{transform:translate(560px,32px)}23.32%{transform:translate(560px,16px)}24.49%{transform:translate(624px,16px)}25.36%,46.36%,79.01%{transform:translate(624px,64px)}25.66%,46.06%{transform:translate(608px,64px)}26.24%{transform:translate(608px,96px)}27.41%{transform:translate(672px,96px)}28.86%{transform:translate(672px,16px)}30.9%{transform:translate(784px,16px)}31.2%{transform:translate(784px,32px)}31.49%{transform:translate(800px,32px)}31.78%{transform:translate(800px,48px)}32.65%{transform:translate(848px,48px)}33.53%{transform:translate(848px,0px)}41.11%{transform:translate(432px,0px)}41.98%{transform:translate(432px,48px)}43.73%{transform:translate(528px,48px)}44.02%{transform:translate(528px,64px)}44.31%{transform:translate(544px,64px)}44.61%{transform:translate(544px,80px)}45.77%{transform:translate(608px,80px)}46.65%{transform:translate(624px,48px)}47.23%{transform:translate(656px,48px)}47.52%{transform:translate(656px,32px)}47.81%{transform:translate(640px,32px)}48.1%{transform:translate(640px,48px)}51.6%{transform:translate(832px,48px)}51.9%{transform:translate(832px,32px)}63.27%{transform:translate(208px,32px)}63.56%{transform:translate(208px,48px)}64.14%{transform:translate(176px,48px)}64.72%{transform:translate(176px,80px)}66.47%{transform:translate(80px,80px)}66.76%{transform:translate(80px,64px)}69.39%{transform:translate(224px,64px)}70.26%{transform:translate(224px,16px)}77.84%{transform:translate(640px,16px)}78.72%{transform:translate(640px,64px)}79.3%{transform:translate(624px,80px)}83.09%{transform:translate(832px,80px)}84.26%{transform:translate(832px,16px)}97.38%{transform:translate(112px,16px)}97.96%{transform:translate(112px,-16px)}}.s.s1{transform:translate(16px,-16px);animation-name:s1}@keyframes s2{0%,99.71%{transform:translate(32px,-16px)}0.58%{transform:translate(0px,-16px)}0.87%{transform:translate(0px,0px)}2.04%{transform:translate(64px,0px)}2.33%{transform:translate(64px,16px)}2.92%{transform:translate(96px,16px)}3.21%{transform:translate(96px,32px)}3.79%{transform:translate(64px,32px)}4.37%,7.29%{transform:translate(64px,64px)}5.54%{transform:translate(0px,64px)}5.83%{transform:translate(0px,80px)}7%{transform:translate(64px,80px)}9.91%{transform:translate(208px,64px)}10.2%{transform:translate(208px,80px)}10.79%{transform:translate(240px,80px)}11.66%{transform:translate(240px,32px)}12.83%{transform:translate(176px,32px)}13.12%{transform:translate(176px,16px)}13.7%{transform:translate(208px,16px)}13.99%{transform:translate(208px,0px)}16.33%{transform:translate(336px,0px)}16.62%{transform:translate(336px,16px)}17.2%{transform:translate(368px,16px)}18.66%{transform:translate(368px,96px)}20.99%{transform:translate(496px,96px)}21.87%{transform:translate(496px,48px)}22.74%{transform:translate(544px,48px)}23.03%{transform:translate(544px,32px)}23.32%{transform:translate(560px,32px)}23.62%{transform:translate(560px,16px)}24.78%{transform:translate(624px,16px)}25.66%,46.65%,79.3%{transform:translate(624px,64px)}25.95%,46.36%{transform:translate(608px,64px)}26.53%{transform:translate(608px,96px)}27.7%{transform:translate(672px,96px)}29.15%{transform:translate(672px,16px)}31.2%{transform:translate(784px,16px)}31.49%{transform:translate(784px,32px)}31.78%{transform:translate(800px,32px)}32.07%{transform:translate(800px,48px)}32.94%{transform:translate(848px,48px)}33.82%{transform:translate(848px,0px)}41.4%{transform:translate(432px,0px)}42.27%{transform:translate(432px,48px)}44.02%{transform:translate(528px,48px)}44.31%{transform:translate(528px,64px)}44.61%{transform:translate(544px,64px)}44.9%{transform:translate(544px,80px)}46.06%{transform:translate(608px,80px)}46.94%{transform:translate(624px,48px)}47.52%{transform:translate(656px,48px)}47.81%{transform:translate(656px,32px)}48.1%{transform:translate(640px,32px)}48.4%{transform:translate(640px,48px)}51.9%{transform:translate(832px,48px)}52.19%{transform:translate(832px,32px)}63.56%{transform:translate(208px,32px)}63.85%{transform:translate(208px,48px)}64.43%{transform:translate(176px,48px)}65.01%{transform:translate(176px,80px)}66.76%{transform:translate(80px,80px)}67.06%{transform:translate(80px,64px)}69.68%{transform:translate(224px,64px)}70.55%{transform:translate(224px,16px)}78.13%{transform:translate(640px,16px)}79.01%{transform:translate(640px,64px)}79.59%{transform:translate(624px,80px)}83.38%{transform:translate(832px,80px)}84.55%{transform:translate(832px,16px)}97.67%{transform:translate(112px,16px)}98.25%{transform:translate(112px,-16px)}}.s.s2{transform:translate(32px,-16px);animation-name:s2}@keyframes s3{0%,99.71%{transform:translate(48px,-16px)}0.87%{transform:translate(0px,-16px)}1.17%{transform:translate(0px,0px)}2.33%{transform:translate(64px,0px)}2.62%{transform:translate(64px,16px)}3.21%{transform:translate(96px,16px)}3.5%{transform:translate(96px,32px)}4.08%{transform:translate(64px,32px)}4.66%,7.58%{transform:translate(64px,64px)}5.83%{transform:translate(0px,64px)}6.12%{transform:translate(0px,80px)}7.29%{transform:translate(64px,80px)}10.2%{transform:translate(208px,64px)}10.5%{transform:translate(208px,80px)}11.08%{transform:translate(240px,80px)}11.95%{transform:translate(240px,32px)}13.12%{transform:translate(176px,32px)}13.41%{transform:translate(176px,16px)}13.99%{transform:translate(208px,16px)}14.29%{transform:translate(208px,0px)}16.62%{transform:translate(336px,0px)}16.91%{transform:translate(336px,16px)}17.49%{transform:translate(368px,16px)}18.95%{transform:translate(368px,96px)}21.28%{transform:translate(496px,96px)}22.16%{transform:translate(496px,48px)}23.03%{transform:translate(544px,48px)}23.32%{transform:translate(544px,32px)}23.62%{transform:translate(560px,32px)}23.91%{transform:translate(560px,16px)}25.07%{transform:translate(624px,16px)}25.95%,46.94%,79.59%{transform:translate(624px,64px)}26.24%,46.65%{transform:translate(608px,64px)}26.82%{transform:translate(608px,96px)}27.99%{transform:translate(672px,96px)}29.45%{transform:translate(672px,16px)}31.49%{transform:translate(784px,16px)}31.78%{transform:translate(784px,32px)}32.07%{transform:translate(800px,32px)}32.36%{transform:translate(800px,48px)}33.24%{transform:translate(848px,48px)}34.11%{transform:translate(848px,0px)}41.69%{transform:translate(432px,0px)}42.57%{transform:translate(432px,48px)}44.31%{transform:translate(528px,48px)}44.61%{transform:translate(528px,64px)}44.9%{transform:translate(544px,64px)}45.19%{transform:translate(544px,80px)}46.36%{transform:translate(608px,80px)}47.23%{transform:translate(624px,48px)}47.81%{transform:translate(656px,48px)}48.1%{transform:translate(656px,32px)}48.4%{transform:translate(640px,32px)}48.69%{transform:translate(640px,48px)}52.19%{transform:translate(832px,48px)}52.48%{transform:translate(832px,32px)}63.85%{transform:translate(208px,32px)}64.14%{transform:translate(208px,48px)}64.72%{transform:translate(176px,48px)}65.31%{transform:translate(176px,80px)}67.06%{transform:translate(80px,80px)}67.35%{transform:translate(80px,64px)}69.97%{transform:translate(224px,64px)}70.85%{transform:translate(224px,16px)}78.43%{transform:translate(640px,16px)}79.3%{transform:translate(640px,64px)}79.88%{transform:translate(624px,80px)}83.67%{transform:translate(832px,80px)}84.84%{transform:translate(832px,16px)}97.96%{transform:translate(112px,16px)}98.54%{transform:translate(112px,-16px)}}.s.s3{transform:translate(48px,-16px);animation-name:s3}</style><rect class="c" x="2" y="2" rx="2" ry="2"/><rect class="c" x="2" y="18" rx="2" ry="2"/><rect class="c" x="2" y="34" rx="2" ry="2"/><rect class="c" x="2" y="50" rx="2" ry="2"/><rect class="c" x="2" y="66" rx="2" ry="2"/><rect class="c c0" x="2" y="82" rx="2" ry="2"/><rect class="c" x="2" y="98" rx="2" ry="2"/><rect class="c" x="18" y="2" rx="2" ry="2"/><rect class="c" x="18" y="18" rx="2" ry="2"/><rect class="c" x="18" y="34" rx="2" ry="2"/><rect class="c" x="18" y="50" rx="2" ry="2"/><rect class="c c1" x="18" y="66" rx="2" ry="2"/><rect class="c" x="18" y="82" rx="2" ry="2"/><rect class="c" x="18" y="98" rx="2" ry="2"/><rect class="c" x="34" y="2" rx="2" ry="2"/><rect class="c" x="34" y="18" rx="2" ry="2"/><rect class="c" x="34" y="34" rx="2" ry="2"/><rect class="c" x="34" y="50" rx="2" ry="2"/><rect class="c" x="34" y="66" rx="2" ry="2"/><rect class="c c2" x="34" y="82" rx="2" ry="2"/><rect class="c" x="34" y="98" rx="2" ry="2"/><rect class="c c3" x="50" y="2" rx="2" ry="2"/><rect class="c" x="50" y="18" rx="2" ry="2"/><rect class="c" x="50" y="34" rx="2" ry="2"/><rect class="c" x="50" y="50" rx="2" ry="2"/><rect class="c c4" x="50" y="66" rx="2" ry="2"/><rect class="c" x="50" y="82" rx="2" ry="2"/><rect class="c" x="50" y="98" rx="2" ry="2"/><rect class="c" x="66" y="2" rx="2" ry="2"/><rect class="c c5" x="66" y="18" rx="2" ry="2"/><rect class="c" x="66" y="34" rx="2" ry="2"/><rect class="c" x="66" y="50" rx="2" ry="2"/><rect class="c c6" x="66" y="66" rx="2" ry="2"/><rect class="c" x="66" y="82" rx="2" ry="2"/><rect class="c" x="66" y="98" rx="2" ry="2"/><rect class="c" x="82" y="2" rx="2" ry="2"/><rect class="c" x="82" y="18" rx="2" ry="2"/><rect class="c" x="82" y="34" rx="2" ry="2"/><rect class="c" x="82" y="50" rx="2" ry="2"/><rect class="c" x="82" y="66" rx="2" ry="2"/><rect class="c c7" x="82" y="82" rx="2" ry="2"/><rect class="c" x="82" y="98" rx="2" ry="2"/><rect class="c" x="98" y="2" rx="2" ry="2"/><rect class="c c8" x="98" y="18" rx="2" ry="2"/><rect class="c" x="98" y="34" rx="2" ry="2"/><rect class="c" x="98" y="50" rx="2" ry="2"/><rect class="c" x="98" y="66" rx="2" ry="2"/><rect class="c" x="98" y="82" rx="2" ry="2"/><rect class="c" x="98" y="98" rx="2" ry="2"/><rect class="c" x="114" y="2" rx="2" ry="2"/><rect class="c" x="114" y="18" rx="2" ry="2"/><rect class="c" x="114" y="34" rx="2" ry="2"/><rect class="c" x="114" y="50" rx="2" ry="2"/><rect class="c" x="114" y="66" rx="2" ry="2"/><rect class="c" x="114" y="82" rx="2" ry="2"/><rect class="c" x="114" y="98" rx="2" ry="2"/><rect class="c" x="130" y="2" rx="2" ry="2"/><rect class="c" x="130" y="18" rx="2" ry="2"/><rect class="c" x="130" y="34" rx="2" ry="2"/><rect class="c" x="130" y="50" rx="2" ry="2"/><rect class="c" x="130" y="66" rx="2" ry="2"/><rect class="c" x="130" y="82" rx="2" ry="2"/><rect class="c" x="130" y="98" rx="2" ry="2"/><rect class="c" x="146" y="2" rx="2" ry="2"/><rect class="c" x="146" y="18" rx="2" ry="2"/><rect class="c" x="146" y="34" rx="2" ry="2"/><rect class="c" x="146" y="50" rx="2" ry="2"/><rect class="c" x="146" y="66" rx="2" ry="2"/><rect class="c" x="146" y="82" rx="2" ry="2"/><rect class="c" x="146" y="98" rx="2" ry="2"/><rect class="c" x="162" y="2" rx="2" ry="2"/><rect class="c" x="162" y="18" rx="2" ry="2"/><rect class="c" x="162" y="34" rx="2" ry="2"/><rect class="c" x="162" y="50" rx="2" ry="2"/><rect class="c" x="162" y="66" rx="2" ry="2"/><rect class="c" x="162" y="82" rx="2" ry="2"/><rect class="c" x="162" y="98" rx="2" ry="2"/><rect class="c" x="178" y="2" rx="2" ry="2"/><rect class="c" x="178" y="18" rx="2" ry="2"/><rect class="c c9" x="178" y="34" rx="2" ry="2"/><rect class="c" x="178" y="50" rx="2" ry="2"/><rect class="c ca" x="178" y="66" rx="2" ry="2"/><rect class="c cb" x="178" y="82" rx="2" ry="2"/><rect class="c" x="178" y="98" rx="2" ry="2"/><rect class="c" x="194" y="2" rx="2" ry="2"/><rect class="c" x="194" y="18" rx="2" ry="2"/><rect class="c cc" x="194" y="34" rx="2" ry="2"/><rect class="c" x="194" y="50" rx="2" ry="2"/><rect class="c cd" x="194" y="66" rx="2" ry="2"/><rect class="c" x="194" y="82" rx="2" ry="2"/><rect class="c" x="194" y="98" rx="2" ry="2"/><rect class="c" x="210" y="2" rx="2" ry="2"/><rect class="c" x="210" y="18" rx="2" ry="2"/><rect class="c" x="210" y="34" rx="2" ry="2"/><rect class="c ce" x="210" y="50" rx="2" ry="2"/><rect class="c" x="210" y="66" rx="2" ry="2"/><rect class="c cf" x="210" y="82" rx="2" ry="2"/><rect class="c" x="210" y="98" rx="2" ry="2"/><rect class="c" x="226" y="2" rx="2" ry="2"/><rect class="c cg" x="226" y="18" rx="2" ry="2"/><rect class="c ch" x="226" y="34" rx="2" ry="2"/><rect class="c" x="226" y="50" rx="2" ry="2"/><rect class="c" x="226" y="66" rx="2" ry="2"/><rect class="c" x="226" y="82" rx="2" ry="2"/><rect class="c" x="226" y="98" rx="2" ry="2"/><rect class="c" x="242" y="2" rx="2" ry="2"/><rect class="c" x="242" y="18" rx="2" ry="2"/><rect class="c" x="242" y="34" rx="2" ry="2"/><rect class="c ci" x="242" y="50" rx="2" ry="2"/><rect class="c" x="242" y="66" rx="2" ry="2"/><rect class="c" x="242" y="82" rx="2" ry="2"/><rect class="c" x="242" y="98" rx="2" ry="2"/><rect class="c" x="258" y="2" rx="2" ry="2"/><rect class="c" x="258" y="18" rx="2" ry="2"/><rect class="c" x="258" y="34" rx="2" ry="2"/><rect class="c" x="258" y="50" rx="2" ry="2"/><rect class="c" x="258" y="66" rx="2" ry="2"/><rect class="c" x="258" y="82" rx="2" ry="2"/><rect class="c" x="258" y="98" rx="2" ry="2"/><rect class="c" x="274" y="2" rx="2" ry="2"/><rect class="c" x="274" y="18" rx="2" ry="2"/><rect class="c" x="274" y="34" rx="2" ry="2"/><rect class="c" x="274" y="50" rx="2" ry="2"/><rect class="c" x="274" y="66" rx="2" ry="2"/><rect class="c" x="274" y="82" rx="2" ry="2"/><rect class="c" x="274" y="98" rx="2" ry="2"/><rect class="c" x="290" y="2" rx="2" ry="2"/><rect class="c" x="290" y="18" rx="2" ry="2"/><rect class="c" x="290" y="34" rx="2" ry="2"/><rect class="c" x="290" y="50" rx="2" ry="2"/><rect class="c" x="290" y="66" rx="2" ry="2"/><rect class="c" x="290" y="82" rx="2" ry="2"/><rect class="c" x="290" y="98" rx="2" ry="2"/><rect class="c" x="306" y="2" rx="2" ry="2"/><rect class="c" x="306" y="18" rx="2" ry="2"/><rect class="c" x="306" y="34" rx="2" ry="2"/><rect class="c" x="306" y="50" rx="2" ry="2"/><rect class="c" x="306" y="66" rx="2" ry="2"/><rect class="c" x="306" y="82" rx="2" ry="2"/><rect class="c" x="306" y="98" rx="2" ry="2"/><rect class="c" x="322" y="2" rx="2" ry="2"/><rect class="c" x="322" y="18" rx="2" ry="2"/><rect class="c" x="322" y="34" rx="2" ry="2"/><rect class="c" x="322" y="50" rx="2" ry="2"/><rect class="c" x="322" y="66" rx="2" ry="2"/><rect class="c" x="322" y="82" rx="2" ry="2"/><rect class="c" x="322" y="98" rx="2" ry="2"/><rect class="c" x="338" y="2" rx="2" ry="2"/><rect class="c cj" x="338" y="18" rx="2" ry="2"/><rect class="c" x="338" y="34" rx="2" ry="2"/><rect class="c" x="338" y="50" rx="2" ry="2"/><rect class="c" x="338" y="66" rx="2" ry="2"/><rect class="c" x="338" y="82" rx="2" ry="2"/><rect class="c" x="338" y="98" rx="2" ry="2"/><rect class="c" x="354" y="2" rx="2" ry="2"/><rect class="c" x="354" y="18" rx="2" ry="2"/><rect class="c" x="354" y="34" rx="2" ry="2"/><rect class="c" x="354" y="50" rx="2" ry="2"/><rect class="c" x="354" y="66" rx="2" ry="2"/><rect class="c" x="354" y="82" rx="2" ry="2"/><rect class="c" x="354" y="98" rx="2" ry="2"/><rect class="c" x="370" y="2" rx="2" ry="2"/><rect class="c" x="370" y="18" rx="2" ry="2"/><rect class="c" x="370" y="34" rx="2" ry="2"/><rect class="c" x="370" y="50" rx="2" ry="2"/><rect class="c" x="370" y="66" rx="2" ry="2"/><rect class="c" x="370" y="82" rx="2" ry="2"/><rect class="c ck" x="370" y="98" rx="2" ry="2"/><rect class="c" x="386" y="2" rx="2" ry="2"/><rect class="c" x="386" y="18" rx="2" ry="2"/><rect class="c" x="386" y="34" rx="2" ry="2"/><rect class="c" x="386" y="50" rx="2" ry="2"/><rect class="c" x="386" y="66" rx="2" ry="2"/><rect class="c" x="386" y="82" rx="2" ry="2"/><rect class="c" x="386" y="98" rx="2" ry="2"/><rect class="c" x="402" y="2" rx="2" ry="2"/><rect class="c" x="402" y="18" rx="2" ry="2"/><rect class="c" x="402" y="34" rx="2" ry="2"/><rect class="c" x="402" y="50" rx="2" ry="2"/><rect class="c" x="402" y="66" rx="2" ry="2"/><rect class="c" x="402" y="82" rx="2" ry="2"/><rect class="c" x="402" y="98" rx="2" ry="2"/><rect class="c" x="418" y="2" rx="2" ry="2"/><rect class="c" x="418" y="18" rx="2" ry="2"/><rect class="c" x="418" y="34" rx="2" ry="2"/><rect class="c" x="418" y="50" rx="2" ry="2"/><rect class="c" x="418" y="66" rx="2" ry="2"/><rect class="c" x="418" y="82" rx="2" ry="2"/><rect class="c" x="418" y="98" rx="2" ry="2"/><rect class="c" x="434" y="2" rx="2" ry="2"/><rect class="c" x="434" y="18" rx="2" ry="2"/><rect class="c" x="434" y="34" rx="2" ry="2"/><rect class="c cl" x="434" y="50" rx="2" ry="2"/><rect class="c" x="434" y="66" rx="2" ry="2"/><rect class="c" x="434" y="82" rx="2" ry="2"/><rect class="c" x="434" y="98" rx="2" ry="2"/><rect class="c" x="450" y="2" rx="2" ry="2"/><rect class="c" x="450" y="18" rx="2" ry="2"/><rect class="c" x="450" y="34" rx="2" ry="2"/><rect class="c" x="450" y="50" rx="2" ry="2"/><rect class="c" x="450" y="66" rx="2" ry="2"/><rect class="c" x="450" y="82" rx="2" ry="2"/><rect class="c" x="450" y="98" rx="2" ry="2"/><rect class="c cm" x="466" y="2" rx="2" ry="2"/><rect class="c" x="466" y="18" rx="2" ry="2"/><rect class="c" x="466" y="34" rx="2" ry="2"/><rect class="c" x="466" y="50" rx="2" ry="2"/><rect class="c" x="466" y="66" rx="2" ry="2"/><rect class="c" x="466" y="82" rx="2" ry="2"/><rect class="c" x="466" y="98" rx="2" ry="2"/><rect class="c" x="482" y="2" rx="2" ry="2"/><rect class="c" x="482" y="18" rx="2" ry="2"/><rect class="c" x="482" y="34" rx="2" ry="2"/><rect class="c" x="482" y="50" rx="2" ry="2"/><rect class="c" x="482" y="66" rx="2" ry="2"/><rect class="c" x="482" y="82" rx="2" ry="2"/><rect class="c" x="482" y="98" rx="2" ry="2"/><rect class="c" x="498" y="2" rx="2" ry="2"/><rect class="c" x="498" y="18" rx="2" ry="2"/><rect class="c" x="498" y="34" rx="2" ry="2"/><rect class="c cn" x="498" y="50" rx="2" ry="2"/><rect class="c" x="498" y="66" rx="2" ry="2"/><rect class="c" x="498" y="82" rx="2" ry="2"/><rect class="c" x="498" y="98" rx="2" ry="2"/><rect class="c" x="514" y="2" rx="2" ry="2"/><rect class="c" x="514" y="18" rx="2" ry="2"/><rect class="c" x="514" y="34" rx="2" ry="2"/><rect class="c" x="514" y="50" rx="2" ry="2"/><rect class="c" x="514" y="66" rx="2" ry="2"/><rect class="c" x="514" y="82" rx="2" ry="2"/><rect class="c" x="514" y="98" rx="2" ry="2"/><rect class="c" x="530" y="2" rx="2" ry="2"/><rect class="c" x="530" y="18" rx="2" ry="2"/><rect class="c" x="530" y="34" rx="2" ry="2"/><rect class="c" x="530" y="50" rx="2" ry="2"/><rect class="c co" x="530" y="66" rx="2" ry="2"/><rect class="c" x="530" y="82" rx="2" ry="2"/><rect class="c" x="530" y="98" rx="2" ry="2"/><rect class="c" x="546" y="2" rx="2" ry="2"/><rect class="c" x="546" y="18" rx="2" ry="2"/><rect class="c cp" x="546" y="34" rx="2" ry="2"/><rect class="c" x="546" y="50" rx="2" ry="2"/><rect class="c" x="546" y="66" rx="2" ry="2"/><rect class="c cq" x="546" y="82" rx="2" ry="2"/><rect class="c" x="546" y="98" rx="2" ry="2"/><rect class="c" x="562" y="2" rx="2" ry="2"/><rect class="c cr" x="562" y="18" rx="2" ry="2"/><rect class="c" x="562" y="34" rx="2" ry="2"/><rect class="c" x="562" y="50" rx="2" ry="2"/><rect class="c" x="562" y="66" rx="2" ry="2"/><rect class="c" x="562" y="82" rx="2" ry="2"/><rect class="c" x="562" y="98" rx="2" ry="2"/><rect class="c" x="578" y="2" rx="2" ry="2"/><rect class="c" x="578" y="18" rx="2" ry="2"/><rect class="c" x="578" y="34" rx="2" ry="2"/><rect class="c" x="578" y="50" rx="2" ry="2"/><rect class="c" x="578" y="66" rx="2" ry="2"/><rect class="c" x="578" y="82" rx="2" ry="2"/><rect class="c" x="578" y="98" rx="2" ry="2"/><rect class="c" x="594" y="2" rx="2" ry="2"/><rect class="c" x="594" y="18" rx="2" ry="2"/><rect class="c" x="594" y="34" rx="2" ry="2"/><rect class="c" x="594" y="50" rx="2" ry="2"/><rect class="c" x="594" y="66" rx="2" ry="2"/><rect class="c" x="594" y="82" rx="2" ry="2"/><rect class="c" x="594" y="98" rx="2" ry="2"/><rect class="c" x="610" y="2" rx="2" ry="2"/><rect class="c" x="610" y="18" rx="2" ry="2"/><rect class="c" x="610" y="34" rx="2" ry="2"/><rect class="c" x="610" y="50" rx="2" ry="2"/><rect class="c" x="610" y="66" rx="2" ry="2"/><rect class="c" x="610" y="82" rx="2" ry="2"/><rect class="c" x="610" y="98" rx="2" ry="2"/><rect class="c" x="626" y="2" rx="2" ry="2"/><rect class="c" x="626" y="18" rx="2" ry="2"/><rect class="c" x="626" y="34" rx="2" ry="2"/><rect class="c" x="626" y="50" rx="2" ry="2"/><rect class="c cs" x="626" y="66" rx="2" ry="2"/><rect class="c ct" x="626" y="82" rx="2" ry="2"/><rect class="c" x="626" y="98" rx="2" ry="2"/><rect class="c" x="642" y="2" rx="2" ry="2"/><rect class="c cu" x="642" y="18" rx="2" ry="2"/><rect class="c cv" x="642" y="34" rx="2" ry="2"/><rect class="c" x="642" y="50" rx="2" ry="2"/><rect class="c cw" x="642" y="66" rx="2" ry="2"/><rect class="c" x="642" y="82" rx="2" ry="2"/><rect class="c" x="642" y="98" rx="2" ry="2"/><rect class="c" x="658" y="2" rx="2" ry="2"/><rect class="c" x="658" y="18" rx="2" ry="2"/><rect class="c" x="658" y="34" rx="2" ry="2"/><rect class="c cx" x="658" y="50" rx="2" ry="2"/><rect class="c" x="658" y="66" rx="2" ry="2"/><rect class="c" x="658" y="82" rx="2" ry="2"/><rect class="c" x="658" y="98" rx="2" ry="2"/><rect class="c" x="674" y="2" rx="2" ry="2"/><rect class="c cy" x="674" y="18" rx="2" ry="2"/><rect class="c cz" x="674" y="34" rx="2" ry="2"/><rect class="c c10" x="674" y="50" rx="2" ry="2"/><rect class="c c11" x="674" y="66" rx="2" ry="2"/><rect class="c" x="674" y="82" rx="2" ry="2"/><rect class="c" x="674" y="98" rx="2" ry="2"/><rect class="c" x="690" y="2" rx="2" ry="2"/><rect class="c" x="690" y="18" rx="2" ry="2"/><rect class="c" x="690" y="34" rx="2" ry="2"/><rect class="c" x="690" y="50" rx="2" ry="2"/><rect class="c" x="690" y="66" rx="2" ry="2"/><rect class="c" x="690" y="82" rx="2" ry="2"/><rect class="c" x="690" y="98" rx="2" ry="2"/><rect class="c" x="706" y="2" rx="2" ry="2"/><rect class="c" x="706" y="18" rx="2" ry="2"/><rect class="c" x="706" y="34" rx="2" ry="2"/><rect class="c" x="706" y="50" rx="2" ry="2"/><rect class="c" x="706" y="66" rx="2" ry="2"/><rect class="c" x="706" y="82" rx="2" ry="2"/><rect class="c" x="706" y="98" rx="2" ry="2"/><rect class="c" x="722" y="2" rx="2" ry="2"/><rect class="c" x="722" y="18" rx="2" ry="2"/><rect class="c" x="722" y="34" rx="2" ry="2"/><rect class="c" x="722" y="50" rx="2" ry="2"/><rect class="c" x="722" y="66" rx="2" ry="2"/><rect class="c" x="722" y="82" rx="2" ry="2"/><rect class="c" x="722" y="98" rx="2" ry="2"/><rect class="c" x="738" y="2" rx="2" ry="2"/><rect class="c" x="738" y="18" rx="2" ry="2"/><rect class="c" x="738" y="34" rx="2" ry="2"/><rect class="c" x="738" y="50" rx="2" ry="2"/><rect class="c" x="738" y="66" rx="2" ry="2"/><rect class="c" x="738" y="82" rx="2" ry="2"/><rect class="c" x="738" y="98" rx="2" ry="2"/><rect class="c" x="754" y="2" rx="2" ry="2"/><rect class="c" x="754" y="18" rx="2" ry="2"/><rect class="c" x="754" y="34" rx="2" ry="2"/><rect class="c" x="754" y="50" rx="2" ry="2"/><rect class="c" x="754" y="66" rx="2" ry="2"/><rect class="c" x="754" y="82" rx="2" ry="2"/><rect class="c" x="754" y="98" rx="2" ry="2"/><rect class="c" x="770" y="2" rx="2" ry="2"/><rect class="c" x="770" y="18" rx="2" ry="2"/><rect class="c" x="770" y="34" rx="2" ry="2"/><rect class="c" x="770" y="50" rx="2" ry="2"/><rect class="c" x="770" y="66" rx="2" ry="2"/><rect class="c" x="770" y="82" rx="2" ry="2"/><rect class="c" x="770" y="98" rx="2" ry="2"/><rect class="c" x="786" y="2" rx="2" ry="2"/><rect class="c" x="786" y="18" rx="2" ry="2"/><rect class="c c12" x="786" y="34" rx="2" ry="2"/><rect class="c" x="786" y="50" rx="2" ry="2"/><rect class="c" x="786" y="66" rx="2" ry="2"/><rect class="c" x="786" y="82" rx="2" ry="2"/><rect class="c" x="786" y="98" rx="2" ry="2"/><rect class="c" x="802" y="2" rx="2" ry="2"/><rect class="c" x="802" y="18" rx="2" ry="2"/><rect class="c" x="802" y="34" rx="2" ry="2"/><rect class="c c13" x="802" y="50" rx="2" ry="2"/><rect class="c" x="802" y="66" rx="2" ry="2"/><rect class="c" x="802" y="82" rx="2" ry="2"/><rect class="c" x="802" y="98" rx="2" ry="2"/><rect class="c" x="818" y="2" rx="2" ry="2"/><rect class="c" x="818" y="18" rx="2" ry="2"/><rect class="c" x="818" y="34" rx="2" ry="2"/><rect class="c" x="818" y="50" rx="2" ry="2"/><rect class="c" x="818" y="66" rx="2" ry="2"/><rect class="c" x="818" y="82" rx="2" ry="2"/><rect class="c" x="818" y="98" rx="2" ry="2"/><rect class="c" x="834" y="2" rx="2" ry="2"/><rect class="c c14" x="834" y="18" rx="2" ry="2"/><rect class="c c15" x="834" y="34" rx="2" ry="2"/><rect class="c c16" x="834" y="50" rx="2" ry="2"/><rect class="u u0" height="12" width="572.5" x="0.0" y="144"/><rect class="u u1" height="12" width="178.1" x="571.9" y="144"/><rect class="u u2" height="12" width="79.5" x="749.4" y="144"/><rect class="u u3" height="12" width="20.3" x="828.3" y="144"/><rect class="s s0" x="0.8" y="0.8" width="14.4" height="14.4" rx="4.5" ry="4.5"/><rect class="s s1" x="1.8" y="1.8" width="12.3" height="12.3" rx="4.1" ry="4.1"/><rect class="s s2" x="2.6" y="2.6" width="10.8" height="10.8" rx="3.6" ry="3.6"/><rect class="s s3" x="3.0" y="3.0" width="9.9" height="9.9" rx="3.3" ry="3.3"/></svg>