<svg viewBox="-16 -32 880 192" width="880" height="192" xmlns="http://www.w3.org/2000/svg"><desc>Generated with https://github.com/Platane/snk</desc><style>:root{--cb:#1b1f230a;--cs:#d70401;--ce:#161b22;--c0:#161b22;--c1:#01311f;--c2:#034525;--c3:#0f6d31;--c4:#00c647}.c{shape-rendering:geometricPrecision;fill:var(--ce);stroke-width:1px;stroke:var(--cb);animation:none 23500ms linear infinite;width:12px;height:12px}@keyframes c0{2.97%{fill:var(--c1)}2.99%,100%{fill:var(--ce)}}.c.c0{fill:var(--c1);animation-name:c0}@keyframes c1{96.59%{fill:var(--c4)}96.61%,100%{fill:var(--ce)}}.c.c1{fill:var(--c4);animation-name:c1}@keyframes c2{96.16%{fill:var(--c4)}96.18%,100%{fill:var(--ce)}}.c.c2{fill:var(--c4);animation-name:c2}@keyframes c3{95.73%{fill:var(--c4)}95.75%,100%{fill:var(--ce)}}.c.c3{fill:var(--c4);animation-name:c3}@keyframes c4{48.5%{fill:var(--c2)}48.52%,100%{fill:var(--ce)}}.c.c4{fill:var(--c2);animation-name:c4}@keyframes c5{94.03%{fill:var(--c4)}94.05%,100%{fill:var(--ce)}}.c.c5{fill:var(--c4);animation-name:c5}@keyframes c6{44.67%{fill:var(--c2)}44.69%,100%{fill:var(--ce)}}.c.c6{fill:var(--c2);animation-name:c6}@keyframes c7{54.03%{fill:var(--c3)}54.05%,100%{fill:var(--ce)}}.c.c7{fill:var(--c3);animation-name:c7}@keyframes c8{53.61%{fill:var(--c3)}53.63%,100%{fill:var(--ce)}}.c.c8{fill:var(--c3);animation-name:c8}@keyframes c9{42.12%{fill:var(--c2)}42.14%,100%{fill:var(--ce)}}.c.c9{fill:var(--c2);animation-name:c9}@keyframes ca{54.46%{fill:var(--c3)}54.48%,100%{fill:var(--ce)}}.c.ca{fill:var(--c3);animation-name:ca}@keyframes cb{9.78%{fill:var(--c1)}9.8%,100%{fill:var(--ce)}}.c.cb{fill:var(--c1);animation-name:cb}@keyframes cc{37.86%{fill:var(--c2)}37.88%,100%{fill:var(--ce)}}.c.cc{fill:var(--c2);animation-name:cc}@keyframes cd{37.44%{fill:var(--c2)}37.46%,100%{fill:var(--ce)}}.c.cd{fill:var(--c2);animation-name:cd}@keyframes ce{14.88%{fill:var(--c1)}14.9%,100%{fill:var(--ce)}}.c.ce{fill:var(--c1);animation-name:ce}@keyframes cf{15.31%{fill:var(--c1)}15.33%,100%{fill:var(--ce)}}.c.cf{fill:var(--c1);animation-name:cf}@keyframes cg{85.95%{fill:var(--c4)}85.97%,100%{fill:var(--ce)}}.c.cg{fill:var(--c4);animation-name:cg}@keyframes ch{16.16%{fill:var(--c1)}16.18%,100%{fill:var(--ce)}}.c.ch{fill:var(--c1);animation-name:ch}@keyframes ci{17.44%{fill:var(--c1)}17.46%,100%{fill:var(--ce)}}.c.ci{fill:var(--c1);animation-name:ci}@keyframes cj{19.14%{fill:var(--c1)}19.16%,100%{fill:var(--ce)}}.c.cj{fill:var(--c1);animation-name:cj}@keyframes ck{82.54%{fill:var(--c4)}82.56%,100%{fill:var(--ce)}}.c.ck{fill:var(--c4);animation-name:ck}@keyframes cl{20.42%{fill:var(--c1)}20.44%,100%{fill:var(--ce)}}.c.cl{fill:var(--c1);animation-name:cl}@keyframes cm{22.54%{fill:var(--c1)}22.56%,100%{fill:var(--ce)}}.c.cm{fill:var(--c1);animation-name:cm}@keyframes cn{25.1%{fill:var(--c1)}25.12%,100%{fill:var(--ce)}}.c.cn{fill:var(--c1);animation-name:cn}@keyframes co{76.16%{fill:var(--c4)}76.18%,100%{fill:var(--ce)}}.c.co{fill:var(--c4);animation-name:co}@keyframes cp{76.59%{fill:var(--c4)}76.61%,100%{fill:var(--ce)}}.c.cp{fill:var(--c4);animation-name:cp}@keyframes cq{29.35%{fill:var(--c2)}29.37%,100%{fill:var(--ce)}}.c.cq{fill:var(--c2);animation-name:cq}@keyframes cr{74.88%{fill:var(--c4)}74.9%,100%{fill:var(--ce)}}.c.cr{fill:var(--c4);animation-name:cr}@keyframes cs{28.08%{fill:var(--c1)}28.1%,100%{fill:var(--ce)}}.c.cs{fill:var(--c1);animation-name:cs}@keyframes ct{27.65%{fill:var(--c1)}27.67%,100%{fill:var(--ce)}}.c.ct{fill:var(--c1);animation-name:ct}@keyframes cu{71.05%{fill:var(--c4)}71.07%,100%{fill:var(--ce)}}.c.cu{fill:var(--c4);animation-name:cu}@keyframes cv{70.63%{fill:var(--c3)}70.65%,100%{fill:var(--ce)}}.c.cv{fill:var(--c3);animation-name:cv}.u{transform-origin:0 0;transform:scale(0,1);animation:none linear 23500ms infinite}@keyframes u0{2.97%{transform:scale(0.000,1)}2.99%,9.78%{transform:scale(0.083,1)}9.8%,14.88%{transform:scale(0.167,1)}14.9%,15.31%{transform:scale(0.250,1)}15.33%,16.16%{transform:scale(0.333,1)}16.18%,17.44%{transform:scale(0.417,1)}17.46%,19.14%{transform:scale(0.500,1)}19.16%,20.42%{transform:scale(0.583,1)}20.44%,22.54%{transform:scale(0.667,1)}22.56%,25.1%{transform:scale(0.750,1)}25.12%,27.65%{transform:scale(0.833,1)}27.67%,28.08%{transform:scale(0.917,1)}28.1%,100%{transform:scale(1.000,1)}}.u.u0{fill:var(--c1);animation-name:u0;transform-origin:0.0px 0}@keyframes u1{29.35%{transform:scale(0.000,1)}29.37%,37.44%{transform:scale(0.167,1)}37.46%,37.86%{transform:scale(0.333,1)}37.88%,42.12%{transform:scale(0.500,1)}42.14%,44.67%{transform:scale(0.667,1)}44.69%,48.5%{transform:scale(0.833,1)}48.52%,100%{transform:scale(1.000,1)}}.u.u1{fill:var(--c2);animation-name:u1;transform-origin:318.0px 0}@keyframes u2{53.61%{transform:scale(0.000,1)}53.63%,54.03%{transform:scale(0.250,1)}54.05%,54.46%{transform:scale(0.500,1)}54.48%,70.63%{transform:scale(0.750,1)}70.65%,100%{transform:scale(1.000,1)}}.u.u2{fill:var(--c3);animation-name:u2;transform-origin:477.0px 0}@keyframes u3{71.05%{transform:scale(0.000,1)}71.07%,74.88%{transform:scale(0.100,1)}74.9%,76.16%{transform:scale(0.200,1)}76.18%,76.59%{transform:scale(0.300,1)}76.61%,82.54%{transform:scale(0.400,1)}82.56%,85.95%{transform:scale(0.500,1)}85.97%,94.03%{transform:scale(0.600,1)}94.05%,95.73%{transform:scale(0.700,1)}95.75%,96.16%{transform:scale(0.800,1)}96.18%,96.59%{transform:scale(0.900,1)}96.61%,100%{transform:scale(1.000,1)}}.u.u3{fill:var(--c4);animation-name:u3;transform-origin:583.0px 0}.s{shape-rendering:geometricPrecision;fill:var(--cs);animation:none linear 23500ms infinite}@keyframes s0{0%,99.57%{transform:translate(0px,-16px)}0.43%{transform:translate(0px,0px)}2.13%,97.45%{transform:translate(64px,0px)}4.26%{transform:translate(64px,80px)}5.11%,49.36%{transform:translate(96px,80px)}5.53%,48.09%,49.79%{transform:translate(96px,64px)}8.94%{transform:translate(224px,64px)}9.79%,41.28%{transform:translate(224px,32px)}12.77%{transform:translate(336px,32px)}13.19%{transform:translate(336px,16px)}14.47%{transform:translate(384px,16px)}14.89%{transform:translate(384px,32px)}15.74%{transform:translate(416px,32px)}16.17%{transform:translate(416px,16px)}17.02%,18.72%{transform:translate(448px,16px)}17.45%{transform:translate(448px,0px)}17.87%{transform:translate(464px,0px)}18.3%{transform:translate(464px,16px)}19.57%{transform:translate(448px,48px)}20%{transform:translate(464px,48px)}20.43%{transform:translate(464px,64px)}22.13%{transform:translate(528px,64px)}22.55%{transform:translate(528px,48px)}26.81%{transform:translate(688px,48px)}28.09%{transform:translate(688px,0px)}28.94%{transform:translate(656px,0px)}29.36%{transform:translate(656px,16px)}37.02%{transform:translate(368px,16px)}37.45%{transform:translate(368px,32px)}41.7%{transform:translate(224px,48px)}42.55%{transform:translate(192px,48px)}43.83%{transform:translate(192px,0px)}46.38%{transform:translate(96px,0px)}48.51%{transform:translate(80px,64px)}48.94%{transform:translate(80px,80px)}52.77%{transform:translate(208px,64px)}54.04%{transform:translate(208px,16px)}69.36%{transform:translate(784px,16px)}70.21%{transform:translate(784px,48px)}70.64%{transform:translate(800px,48px)}71.06%{transform:translate(800px,32px)}75.32%{transform:translate(640px,32px)}76.6%{transform:translate(640px,80px)}77.02%{transform:translate(624px,80px)}78.3%{transform:translate(624px,32px)}84.26%{transform:translate(400px,32px)}85.96%{transform:translate(400px,96px)}86.38%{transform:translate(384px,96px)}86.81%{transform:translate(384px,80px)}94.04%{transform:translate(112px,80px)}94.89%{transform:translate(112px,48px)}95.74%{transform:translate(80px,48px)}97.02%{transform:translate(80px,0px)}97.87%{transform:translate(64px,-16px)}}.s.s0{transform:translate(0px,-16px);animation-name:s0}@keyframes s1{0%,99.57%{transform:translate(16px,-16px)}0.43%{transform:translate(0px,-16px)}0.85%{transform:translate(0px,0px)}2.55%,97.87%{transform:translate(64px,0px)}4.68%{transform:translate(64px,80px)}5.53%,49.79%{transform:translate(96px,80px)}5.96%,48.51%,50.21%{transform:translate(96px,64px)}9.36%{transform:translate(224px,64px)}10.21%,41.7%{transform:translate(224px,32px)}13.19%{transform:translate(336px,32px)}13.62%{transform:translate(336px,16px)}14.89%{transform:translate(384px,16px)}15.32%{transform:translate(384px,32px)}16.17%{transform:translate(416px,32px)}16.6%{transform:translate(416px,16px)}17.45%,19.15%{transform:translate(448px,16px)}17.87%{transform:translate(448px,0px)}18.3%{transform:translate(464px,0px)}18.72%{transform:translate(464px,16px)}20%{transform:translate(448px,48px)}20.43%{transform:translate(464px,48px)}20.85%{transform:translate(464px,64px)}22.55%{transform:translate(528px,64px)}22.98%{transform:translate(528px,48px)}27.23%{transform:translate(688px,48px)}28.51%{transform:translate(688px,0px)}29.36%{transform:translate(656px,0px)}29.79%{transform:translate(656px,16px)}37.45%{transform:translate(368px,16px)}37.87%{transform:translate(368px,32px)}42.13%{transform:translate(224px,48px)}42.98%{transform:translate(192px,48px)}44.26%{transform:translate(192px,0px)}46.81%{transform:translate(96px,0px)}48.94%{transform:translate(80px,64px)}49.36%{transform:translate(80px,80px)}53.19%{transform:translate(208px,64px)}54.47%{transform:translate(208px,16px)}69.79%{transform:translate(784px,16px)}70.64%{transform:translate(784px,48px)}71.06%{transform:translate(800px,48px)}71.49%{transform:translate(800px,32px)}75.74%{transform:translate(640px,32px)}77.02%{transform:translate(640px,80px)}77.45%{transform:translate(624px,80px)}78.72%{transform:translate(624px,32px)}84.68%{transform:translate(400px,32px)}86.38%{transform:translate(400px,96px)}86.81%{transform:translate(384px,96px)}87.23%{transform:translate(384px,80px)}94.47%{transform:translate(112px,80px)}95.32%{transform:translate(112px,48px)}96.17%{transform:translate(80px,48px)}97.45%{transform:translate(80px,0px)}98.3%{transform:translate(64px,-16px)}}.s.s1{transform:translate(16px,-16px);animation-name:s1}@keyframes s2{0%,99.57%{transform:translate(32px,-16px)}0.85%{transform:translate(0px,-16px)}1.28%{transform:translate(0px,0px)}2.98%,98.3%{transform:translate(64px,0px)}5.11%{transform:translate(64px,80px)}5.96%,50.21%{transform:translate(96px,80px)}6.38%,48.94%,50.64%{transform:translate(96px,64px)}9.79%{transform:translate(224px,64px)}10.64%,42.13%{transform:translate(224px,32px)}13.62%{transform:translate(336px,32px)}14.04%{transform:translate(336px,16px)}15.32%{transform:translate(384px,16px)}15.74%{transform:translate(384px,32px)}16.6%{transform:translate(416px,32px)}17.02%{transform:translate(416px,16px)}17.87%,19.57%{transform:translate(448px,16px)}18.3%{transform:translate(448px,0px)}18.72%{transform:translate(464px,0px)}19.15%{transform:translate(464px,16px)}20.43%{transform:translate(448px,48px)}20.85%{transform:translate(464px,48px)}21.28%{transform:translate(464px,64px)}22.98%{transform:translate(528px,64px)}23.4%{transform:translate(528px,48px)}27.66%{transform:translate(688px,48px)}28.94%{transform:translate(688px,0px)}29.79%{transform:translate(656px,0px)}30.21%{transform:translate(656px,16px)}37.87%{transform:translate(368px,16px)}38.3%{transform:translate(368px,32px)}42.55%{transform:translate(224px,48px)}43.4%{transform:translate(192px,48px)}44.68%{transform:translate(192px,0px)}47.23%{transform:translate(96px,0px)}49.36%{transform:translate(80px,64px)}49.79%{transform:translate(80px,80px)}53.62%{transform:translate(208px,64px)}54.89%{transform:translate(208px,16px)}70.21%{transform:translate(784px,16px)}71.06%{transform:translate(784px,48px)}71.49%{transform:translate(800px,48px)}71.91%{transform:translate(800px,32px)}76.17%{transform:translate(640px,32px)}77.45%{transform:translate(640px,80px)}77.87%{transform:translate(624px,80px)}79.15%{transform:translate(624px,32px)}85.11%{transform:translate(400px,32px)}86.81%{transform:translate(400px,96px)}87.23%{transform:translate(384px,96px)}87.66%{transform:translate(384px,80px)}94.89%{transform:translate(112px,80px)}95.74%{transform:translate(112px,48px)}96.6%{transform:translate(80px,48px)}97.87%{transform:translate(80px,0px)}98.72%{transform:translate(64px,-16px)}}.s.s2{transform:translate(32px,-16px);animation-name:s2}@keyframes s3{0%,99.57%{transform:translate(48px,-16px)}1.28%{transform:translate(0px,-16px)}1.7%{transform:translate(0px,0px)}3.4%,98.72%{transform:translate(64px,0px)}5.53%{transform:translate(64px,80px)}6.38%,50.64%{transform:translate(96px,80px)}6.81%,49.36%,51.06%{transform:translate(96px,64px)}10.21%{transform:translate(224px,64px)}11.06%,42.55%{transform:translate(224px,32px)}14.04%{transform:translate(336px,32px)}14.47%{transform:translate(336px,16px)}15.74%{transform:translate(384px,16px)}16.17%{transform:translate(384px,32px)}17.02%{transform:translate(416px,32px)}17.45%{transform:translate(416px,16px)}18.3%,20%{transform:translate(448px,16px)}18.72%{transform:translate(448px,0px)}19.15%{transform:translate(464px,0px)}19.57%{transform:translate(464px,16px)}20.85%{transform:translate(448px,48px)}21.28%{transform:translate(464px,48px)}21.7%{transform:translate(464px,64px)}23.4%{transform:translate(528px,64px)}23.83%{transform:translate(528px,48px)}28.09%{transform:translate(688px,48px)}29.36%{transform:translate(688px,0px)}30.21%{transform:translate(656px,0px)}30.64%{transform:translate(656px,16px)}38.3%{transform:translate(368px,16px)}38.72%{transform:translate(368px,32px)}42.98%{transform:translate(224px,48px)}43.83%{transform:translate(192px,48px)}45.11%{transform:translate(192px,0px)}47.66%{transform:translate(96px,0px)}49.79%{transform:translate(80px,64px)}50.21%{transform:translate(80px,80px)}54.04%{transform:translate(208px,64px)}55.32%{transform:translate(208px,16px)}70.64%{transform:translate(784px,16px)}71.49%{transform:translate(784px,48px)}71.91%{transform:translate(800px,48px)}72.34%{transform:translate(800px,32px)}76.6%{transform:translate(640px,32px)}77.87%{transform:translate(640px,80px)}78.3%{transform:translate(624px,80px)}79.57%{transform:translate(624px,32px)}85.53%{transform:translate(400px,32px)}87.23%{transform:translate(400px,96px)}87.66%{transform:translate(384px,96px)}88.09%{transform:translate(384px,80px)}95.32%{transform:translate(112px,80px)}96.17%{transform:translate(112px,48px)}97.02%{transform:translate(80px,48px)}98.3%{transform:translate(80px,0px)}99.15%{transform:translate(64px,-16px)}}.s.s3{transform:translate(48px,-16px);animation-name:s3}</style><rect class="c" x="2" y="2" rx="2" ry="2"/><rect class="c" x="2" y="18" rx="2" ry="2"/><rect class="c" x="2" y="34" rx="2" ry="2"/><rect class="c" x="2" y="50" rx="2" ry="2"/><rect class="c" x="2" y="66" rx="2" ry="2"/><rect class="c" x="2" y="82" rx="2" ry="2"/><rect class="c" x="2" y="98" rx="2" ry="2"/><rect class="c" x="18" y="2" rx="2" ry="2"/><rect class="c" x="18" y="18" rx="2" ry="2"/><rect class="c" x="18" y="34" rx="2" ry="2"/><rect class="c" x="18" y="50" rx="2" ry="2"/><rect class="c" x="18" y="66" rx="2" ry="2"/><rect class="c" x="18" y="82" rx="2" ry="2"/><rect class="c" x="18" y="98" rx="2" ry="2"/><rect class="c" x="34" y="2" rx="2" ry="2"/><rect class="c" x="34" y="18" rx="2" ry="2"/><rect class="c" x="34" y="34" rx="2" ry="2"/><rect class="c" x="34" y="50" rx="2" ry="2"/><rect class="c" x="34" y="66" rx="2" ry="2"/><rect class="c" x="34" y="82" rx="2" ry="2"/><rect class="c" x="34" y="98" rx="2" ry="2"/><rect class="c" x="50" y="2" rx="2" ry="2"/><rect class="c" x="50" y="18" rx="2" ry="2"/><rect class="c" x="50" y="34" rx="2" ry="2"/><rect class="c" x="50" y="50" rx="2" ry="2"/><rect class="c" x="50" y="66" rx="2" ry="2"/><rect class="c" x="50" y="82" rx="2" ry="2"/><rect class="c" x="50" y="98" rx="2" ry="2"/><rect class="c" x="66" y="2" rx="2" ry="2"/><rect class="c" x="66" y="18" rx="2" ry="2"/><rect class="c c0" x="66" y="34" rx="2" ry="2"/><rect class="c" x="66" y="50" rx="2" ry="2"/><rect class="c" x="66" y="66" rx="2" ry="2"/><rect class="c" x="66" y="82" rx="2" ry="2"/><rect class="c" x="66" y="98" rx="2" ry="2"/><rect class="c" x="82" y="2" rx="2" ry="2"/><rect class="c c1" x="82" y="18" rx="2" ry="2"/><rect class="c c2" x="82" y="34" rx="2" ry="2"/><rect class="c c3" x="82" y="50" rx="2" ry="2"/><rect class="c c4" x="82" y="66" rx="2" ry="2"/><rect class="c" x="82" y="82" rx="2" ry="2"/><rect class="c" x="82" y="98" rx="2" ry="2"/><rect class="c" x="98" y="2" rx="2" ry="2"/><rect class="c" x="98" y="18" rx="2" ry="2"/><rect class="c" x="98" y="34" rx="2" ry="2"/><rect class="c" x="98" y="50" rx="2" ry="2"/><rect class="c" x="98" y="66" rx="2" ry="2"/><rect class="c" x="98" y="82" rx="2" ry="2"/><rect class="c" x="98" y="98" rx="2" ry="2"/><rect class="c" x="114" y="2" rx="2" ry="2"/><rect class="c" x="114" y="18" rx="2" ry="2"/><rect class="c" x="114" y="34" rx="2" ry="2"/><rect class="c" x="114" y="50" rx="2" ry="2"/><rect class="c" x="114" y="66" rx="2" ry="2"/><rect class="c c5" x="114" y="82" rx="2" ry="2"/><rect class="c" x="114" y="98" rx="2" ry="2"/><rect class="c" x="130" y="2" rx="2" ry="2"/><rect class="c" x="130" y="18" rx="2" ry="2"/><rect class="c" x="130" y="34" rx="2" ry="2"/><rect class="c" x="130" y="50" rx="2" ry="2"/><rect class="c" x="130" y="66" rx="2" ry="2"/><rect class="c" x="130" y="82" rx="2" ry="2"/><rect class="c" x="130" y="98" rx="2" ry="2"/><rect class="c" x="146" y="2" rx="2" ry="2"/><rect class="c" x="146" y="18" rx="2" ry="2"/><rect class="c" x="146" y="34" rx="2" ry="2"/><rect class="c" x="146" y="50" rx="2" ry="2"/><rect class="c" x="146" y="66" rx="2" ry="2"/><rect class="c" x="146" y="82" rx="2" ry="2"/><rect class="c" x="146" y="98" rx="2" ry="2"/><rect class="c c6" x="162" y="2" rx="2" ry="2"/><rect class="c" x="162" y="18" rx="2" ry="2"/><rect class="c" x="162" y="34" rx="2" ry="2"/><rect class="c" x="162" y="50" rx="2" ry="2"/><rect class="c" x="162" y="66" rx="2" ry="2"/><rect class="c" x="162" y="82" rx="2" ry="2"/><rect class="c" x="162" y="98" rx="2" ry="2"/><rect class="c" x="178" y="2" rx="2" ry="2"/><rect class="c" x="178" y="18" rx="2" ry="2"/><rect class="c" x="178" y="34" rx="2" ry="2"/><rect class="c" x="178" y="50" rx="2" ry="2"/><rect class="c" x="178" y="66" rx="2" ry="2"/><rect class="c" x="178" y="82" rx="2" ry="2"/><rect class="c" x="178" y="98" rx="2" ry="2"/><rect class="c" x="194" y="2" rx="2" ry="2"/><rect class="c" x="194" y="18" rx="2" ry="2"/><rect class="c" x="194" y="34" rx="2" ry="2"/><rect class="c" x="194" y="50" rx="2" ry="2"/><rect class="c" x="194" y="66" rx="2" ry="2"/><rect class="c" x="194" y="82" rx="2" ry="2"/><rect class="c" x="194" y="98" rx="2" ry="2"/><rect class="c" x="210" y="2" rx="2" ry="2"/><rect class="c c7" x="210" y="18" rx="2" ry="2"/><rect class="c c8" x="210" y="34" rx="2" ry="2"/><rect class="c c9" x="210" y="50" rx="2" ry="2"/><rect class="c" x="210" y="66" rx="2" ry="2"/><rect class="c" x="210" y="82" rx="2" ry="2"/><rect class="c" x="210" y="98" rx="2" ry="2"/><rect class="c" x="226" y="2" rx="2" ry="2"/><rect class="c ca" x="226" y="18" rx="2" ry="2"/><rect class="c cb" x="226" y="34" rx="2" ry="2"/><rect class="c" x="226" y="50" rx="2" ry="2"/><rect class="c" x="226" y="66" rx="2" ry="2"/><rect class="c" x="226" y="82" rx="2" ry="2"/><rect class="c" x="226" y="98" rx="2" ry="2"/><rect class="c" x="242" y="2" rx="2" ry="2"/><rect class="c" x="242" y="18" rx="2" ry="2"/><rect class="c" x="242" y="34" rx="2" ry="2"/><rect class="c" x="242" y="50" rx="2" ry="2"/><rect class="c" x="242" y="66" rx="2" ry="2"/><rect class="c" x="242" y="82" rx="2" ry="2"/><rect class="c" x="242" y="98" rx="2" ry="2"/><rect class="c" x="258" y="2" rx="2" ry="2"/><rect class="c" x="258" y="18" rx="2" ry="2"/><rect class="c" x="258" y="34" rx="2" ry="2"/><rect class="c" x="258" y="50" rx="2" ry="2"/><rect class="c" x="258" y="66" rx="2" ry="2"/><rect class="c" x="258" y="82" rx="2" ry="2"/><rect class="c" x="258" y="98" rx="2" ry="2"/><rect class="c" x="274" y="2" rx="2" ry="2"/><rect class="c" x="274" y="18" rx="2" ry="2"/><rect class="c" x="274" y="34" rx="2" ry="2"/><rect class="c" x="274" y="50" rx="2" ry="2"/><rect class="c" x="274" y="66" rx="2" ry="2"/><rect class="c" x="274" y="82" rx="2" ry="2"/><rect class="c" x="274" y="98" rx="2" ry="2"/><rect class="c" x="290" y="2" rx="2" ry="2"/><rect class="c" x="290" y="18" rx="2" ry="2"/><rect class="c" x="290" y="34" rx="2" ry="2"/><rect class="c" x="290" y="50" rx="2" ry="2"/><rect class="c" x="290" y="66" rx="2" ry="2"/><rect class="c" x="290" y="82" rx="2" ry="2"/><rect class="c" x="290" y="98" rx="2" ry="2"/><rect class="c" x="306" y="2" rx="2" ry="2"/><rect class="c" x="306" y="18" rx="2" ry="2"/><rect class="c" x="306" y="34" rx="2" ry="2"/><rect class="c" x="306" y="50" rx="2" ry="2"/><rect class="c" x="306" y="66" rx="2" ry="2"/><rect class="c" x="306" y="82" rx="2" ry="2"/><rect class="c" x="306" y="98" rx="2" ry="2"/><rect class="c" x="322" y="2" rx="2" ry="2"/><rect class="c" x="322" y="18" rx="2" ry="2"/><rect class="c" x="322" y="34" rx="2" ry="2"/><rect class="c" x="322" y="50" rx="2" ry="2"/><rect class="c" x="322" y="66" rx="2" ry="2"/><rect class="c" x="322" y="82" rx="2" ry="2"/><rect class="c" x="322" y="98" rx="2" ry="2"/><rect class="c" x="338" y="2" rx="2" ry="2"/><rect class="c" x="338" y="18" rx="2" ry="2"/><rect class="c" x="338" y="34" rx="2" ry="2"/><rect class="c" x="338" y="50" rx="2" ry="2"/><rect class="c" x="338" y="66" rx="2" ry="2"/><rect class="c" x="338" y="82" rx="2" ry="2"/><rect class="c" x="338" y="98" rx="2" ry="2"/><rect class="c" x="354" y="2" rx="2" ry="2"/><rect class="c" x="354" y="18" rx="2" ry="2"/><rect class="c cc" x="354" y="34" rx="2" ry="2"/><rect class="c" x="354" y="50" rx="2" ry="2"/><rect class="c" x="354" y="66" rx="2" ry="2"/><rect class="c" x="354" y="82" rx="2" ry="2"/><rect class="c" x="354" y="98" rx="2" ry="2"/><rect class="c" x="370" y="2" rx="2" ry="2"/><rect class="c" x="370" y="18" rx="2" ry="2"/><rect class="c cd" x="370" y="34" rx="2" ry="2"/><rect class="c" x="370" y="50" rx="2" ry="2"/><rect class="c" x="370" y="66" rx="2" ry="2"/><rect class="c" x="370" y="82" rx="2" ry="2"/><rect class="c" x="370" y="98" rx="2" ry="2"/><rect class="c" x="386" y="2" rx="2" ry="2"/><rect class="c" x="386" y="18" rx="2" ry="2"/><rect class="c ce" x="386" y="34" rx="2" ry="2"/><rect class="c" x="386" y="50" rx="2" ry="2"/><rect class="c" x="386" y="66" rx="2" ry="2"/><rect class="c" x="386" y="82" rx="2" ry="2"/><rect class="c" x="386" y="98" rx="2" ry="2"/><rect class="c" x="402" y="2" rx="2" ry="2"/><rect class="c" x="402" y="18" rx="2" ry="2"/><rect class="c cf" x="402" y="34" rx="2" ry="2"/><rect class="c" x="402" y="50" rx="2" ry="2"/><rect class="c" x="402" y="66" rx="2" ry="2"/><rect class="c" x="402" y="82" rx="2" ry="2"/><rect class="c cg" x="402" y="98" rx="2" ry="2"/><rect class="c" x="418" y="2" rx="2" ry="2"/><rect class="c ch" x="418" y="18" rx="2" ry="2"/><rect class="c" x="418" y="34" rx="2" ry="2"/><rect class="c" x="418" y="50" rx="2" ry="2"/><rect class="c" x="418" y="66" rx="2" ry="2"/><rect class="c" x="418" y="82" rx="2" ry="2"/><rect class="c" x="418" y="98" rx="2" ry="2"/><rect class="c" x="434" y="2" rx="2" ry="2"/><rect class="c" x="434" y="18" rx="2" ry="2"/><rect class="c" x="434" y="34" rx="2" ry="2"/><rect class="c" x="434" y="50" rx="2" ry="2"/><rect class="c" x="434" y="66" rx="2" ry="2"/><rect class="c" x="434" y="82" rx="2" ry="2"/><rect class="c" x="434" y="98" rx="2" ry="2"/><rect class="c ci" x="450" y="2" rx="2" ry="2"/><rect class="c" x="450" y="18" rx="2" ry="2"/><rect class="c cj" x="450" y="34" rx="2" ry="2"/><rect class="c" x="450" y="50" rx="2" ry="2"/><rect class="c" x="450" y="66" rx="2" ry="2"/><rect class="c" x="450" y="82" rx="2" ry="2"/><rect class="c" x="450" y="98" rx="2" ry="2"/><rect class="c" x="466" y="2" rx="2" ry="2"/><rect class="c" x="466" y="18" rx="2" ry="2"/><rect class="c ck" x="466" y="34" rx="2" ry="2"/><rect class="c" x="466" y="50" rx="2" ry="2"/><rect class="c cl" x="466" y="66" rx="2" ry="2"/><rect class="c" x="466" y="82" rx="2" ry="2"/><rect class="c" x="466" y="98" rx="2" ry="2"/><rect class="c" x="482" y="2" rx="2" ry="2"/><rect class="c" x="482" y="18" rx="2" ry="2"/><rect class="c" x="482" y="34" rx="2" ry="2"/><rect class="c" x="482" y="50" rx="2" ry="2"/><rect class="c" x="482" y="66" rx="2" ry="2"/><rect class="c" x="482" y="82" rx="2" ry="2"/><rect class="c" x="482" y="98" rx="2" ry="2"/><rect class="c" x="498" y="2" rx="2" ry="2"/><rect class="c" x="498" y="18" rx="2" ry="2"/><rect class="c" x="498" y="34" rx="2" ry="2"/><rect class="c" x="498" y="50" rx="2" ry="2"/><rect class="c" x="498" y="66" rx="2" ry="2"/><rect class="c" x="498" y="82" rx="2" ry="2"/><rect class="c" x="498" y="98" rx="2" ry="2"/><rect class="c" x="514" y="2" rx="2" ry="2"/><rect class="c" x="514" y="18" rx="2" ry="2"/><rect class="c" x="514" y="34" rx="2" ry="2"/><rect class="c" x="514" y="50" rx="2" ry="2"/><rect class="c" x="514" y="66" rx="2" ry="2"/><rect class="c" x="514" y="82" rx="2" ry="2"/><rect class="c" x="514" y="98" rx="2" ry="2"/><rect class="c" x="530" y="2" rx="2" ry="2"/><rect class="c" x="530" y="18" rx="2" ry="2"/><rect class="c" x="530" y="34" rx="2" ry="2"/><rect class="c cm" x="530" y="50" rx="2" ry="2"/><rect class="c" x="530" y="66" rx="2" ry="2"/><rect class="c" x="530" y="82" rx="2" ry="2"/><rect class="c" x="530" y="98" rx="2" ry="2"/><rect class="c" x="546" y="2" rx="2" ry="2"/><rect class="c" x="546" y="18" rx="2" ry="2"/><rect class="c" x="546" y="34" rx="2" ry="2"/><rect class="c" x="546" y="50" rx="2" ry="2"/><rect class="c" x="546" y="66" rx="2" ry="2"/><rect class="c" x="546" y="82" rx="2" ry="2"/><rect class="c" x="546" y="98" rx="2" ry="2"/><rect class="c" x="562" y="2" rx="2" ry="2"/><rect class="c" x="562" y="18" rx="2" ry="2"/><rect class="c" x="562" y="34" rx="2" ry="2"/><rect class="c" x="562" y="50" rx="2" ry="2"/><rect class="c" x="562" y="66" rx="2" ry="2"/><rect class="c" x="562" y="82" rx="2" ry="2"/><rect class="c" x="562" y="98" rx="2" ry="2"/><rect class="c" x="578" y="2" rx="2" ry="2"/><rect class="c" x="578" y="18" rx="2" ry="2"/><rect class="c" x="578" y="34" rx="2" ry="2"/><rect class="c" x="578" y="50" rx="2" ry="2"/><rect class="c" x="578" y="66" rx="2" ry="2"/><rect class="c" x="578" y="82" rx="2" ry="2"/><rect class="c" x="578" y="98" rx="2" ry="2"/><rect class="c" x="594" y="2" rx="2" ry="2"/><rect class="c" x="594" y="18" rx="2" ry="2"/><rect class="c" x="594" y="34" rx="2" ry="2"/><rect class="c" x="594" y="50" rx="2" ry="2"/><rect class="c" x="594" y="66" rx="2" ry="2"/><rect class="c" x="594" y="82" rx="2" ry="2"/><rect class="c" x="594" y="98" rx="2" ry="2"/><rect class="c" x="610" y="2" rx="2" ry="2"/><rect class="c" x="610" y="18" rx="2" ry="2"/><rect class="c" x="610" y="34" rx="2" ry="2"/><rect class="c" x="610" y="50" rx="2" ry="2"/><rect class="c" x="610" y="66" rx="2" ry="2"/><rect class="c" x="610" y="82" rx="2" ry="2"/><rect class="c" x="610" y="98" rx="2" ry="2"/><rect class="c" x="626" y="2" rx="2" ry="2"/><rect class="c" x="626" y="18" rx="2" ry="2"/><rect class="c" x="626" y="34" rx="2" ry="2"/><rect class="c cn" x="626" y="50" rx="2" ry="2"/><rect class="c" x="626" y="66" rx="2" ry="2"/><rect class="c" x="626" y="82" rx="2" ry="2"/><rect class="c" x="626" y="98" rx="2" ry="2"/><rect class="c" x="642" y="2" rx="2" ry="2"/><rect class="c" x="642" y="18" rx="2" ry="2"/><rect class="c" x="642" y="34" rx="2" ry="2"/><rect class="c" x="642" y="50" rx="2" ry="2"/><rect class="c co" x="642" y="66" rx="2" ry="2"/><rect class="c cp" x="642" y="82" rx="2" ry="2"/><rect class="c" x="642" y="98" rx="2" ry="2"/><rect class="c" x="658" y="2" rx="2" ry="2"/><rect class="c cq" x="658" y="18" rx="2" ry="2"/><rect class="c cr" x="658" y="34" rx="2" ry="2"/><rect class="c" x="658" y="50" rx="2" ry="2"/><rect class="c" x="658" y="66" rx="2" ry="2"/><rect class="c" x="658" y="82" rx="2" ry="2"/><rect class="c" x="658" y="98" rx="2" ry="2"/><rect class="c" x="674" y="2" rx="2" ry="2"/><rect class="c" x="674" y="18" rx="2" ry="2"/><rect class="c" x="674" y="34" rx="2" ry="2"/><rect class="c" x="674" y="50" rx="2" ry="2"/><rect class="c" x="674" y="66" rx="2" ry="2"/><rect class="c" x="674" y="82" rx="2" ry="2"/><rect class="c" x="674" y="98" rx="2" ry="2"/><rect class="c cs" x="690" y="2" rx="2" ry="2"/><rect class="c ct" x="690" y="18" rx="2" ry="2"/><rect class="c" x="690" y="34" rx="2" ry="2"/><rect class="c" x="690" y="50" rx="2" ry="2"/><rect class="c" x="690" y="66" rx="2" ry="2"/><rect class="c" x="690" y="82" rx="2" ry="2"/><rect class="c" x="690" y="98" rx="2" ry="2"/><rect class="c" x="706" y="2" rx="2" ry="2"/><rect class="c" x="706" y="18" rx="2" ry="2"/><rect class="c" x="706" y="34" rx="2" ry="2"/><rect class="c" x="706" y="50" rx="2" ry="2"/><rect class="c" x="706" y="66" rx="2" ry="2"/><rect class="c" x="706" y="82" rx="2" ry="2"/><rect class="c" x="706" y="98" rx="2" ry="2"/><rect class="c" x="722" y="2" rx="2" ry="2"/><rect class="c" x="722" y="18" rx="2" ry="2"/><rect class="c" x="722" y="34" rx="2" ry="2"/><rect class="c" x="722" y="50" rx="2" ry="2"/><rect class="c" x="722" y="66" rx="2" ry="2"/><rect class="c" x="722" y="82" rx="2" ry="2"/><rect class="c" x="722" y="98" rx="2" ry="2"/><rect class="c" x="738" y="2" rx="2" ry="2"/><rect class="c" x="738" y="18" rx="2" ry="2"/><rect class="c" x="738" y="34" rx="2" ry="2"/><rect class="c" x="738" y="50" rx="2" ry="2"/><rect class="c" x="738" y="66" rx="2" ry="2"/><rect class="c" x="738" y="82" rx="2" ry="2"/><rect class="c" x="738" y="98" rx="2" ry="2"/><rect class="c" x="754" y="2" rx="2" ry="2"/><rect class="c" x="754" y="18" rx="2" ry="2"/><rect class="c" x="754" y="34" rx="2" ry="2"/><rect class="c" x="754" y="50" rx="2" ry="2"/><rect class="c" x="754" y="66" rx="2" ry="2"/><rect class="c" x="754" y="82" rx="2" ry="2"/><rect class="c" x="754" y="98" rx="2" ry="2"/><rect class="c" x="770" y="2" rx="2" ry="2"/><rect class="c" x="770" y="18" rx="2" ry="2"/><rect class="c" x="770" y="34" rx="2" ry="2"/><rect class="c" x="770" y="50" rx="2" ry="2"/><rect class="c" x="770" y="66" rx="2" ry="2"/><rect class="c" x="770" y="82" rx="2" ry="2"/><rect class="c" x="770" y="98" rx="2" ry="2"/><rect class="c" x="786" y="2" rx="2" ry="2"/><rect class="c" x="786" y="18" rx="2" ry="2"/><rect class="c" x="786" y="34" rx="2" ry="2"/><rect class="c" x="786" y="50" rx="2" ry="2"/><rect class="c" x="786" y="66" rx="2" ry="2"/><rect class="c" x="786" y="82" rx="2" ry="2"/><rect class="c" x="786" y="98" rx="2" ry="2"/><rect class="c" x="802" y="2" rx="2" ry="2"/><rect class="c" x="802" y="18" rx="2" ry="2"/><rect class="c cu" x="802" y="34" rx="2" ry="2"/><rect class="c cv" x="802" y="50" rx="2" ry="2"/><rect class="c" x="802" y="66" rx="2" ry="2"/><rect class="c" x="802" y="82" rx="2" ry="2"/><rect class="c" x="802" y="98" rx="2" ry="2"/><rect class="c" x="818" y="2" rx="2" ry="2"/><rect class="c" x="818" y="18" rx="2" ry="2"/><rect class="c" x="818" y="34" rx="2" ry="2"/><rect class="c" x="818" y="50" rx="2" ry="2"/><rect class="c" x="818" y="66" rx="2" ry="2"/><rect class="c" x="818" y="82" rx="2" ry="2"/><rect class="c" x="818" y="98" rx="2" ry="2"/><rect class="c" x="834" y="2" rx="2" ry="2"/><rect class="c" x="834" y="18" rx="2" ry="2"/><rect class="c" x="834" y="34" rx="2" ry="2"/><rect class="c" x="834" y="50" rx="2" ry="2"/><rect class="c" x="834" y="66" rx="2" ry="2"/><rect class="c" x="834" y="82" rx="2" ry="2"/><rect class="u u0" height="12" width="318.6" x="0.0" y="144"/><rect class="u u1" height="12" width="159.6" x="318.0" y="144"/><rect class="u u2" height="12" width="106.6" x="477.0" y="144"/><rect class="u u3" height="12" width="265.6" x="583.0" y="144"/><rect class="s s0" x="0.8" y="0.8" width="14.4" height="14.4" rx="4.5" ry="4.5"/><rect class="s s1" x="1.8" y="1.8" width="12.3" height="12.3" rx="4.1" ry="4.1"/><rect class="s s2" x="2.6" y="2.6" width="10.8" height="10.8" rx="3.6" ry="3.6"/><rect class="s s3" x="3.0" y="3.0" width="9.9" height="9.9" rx="3.3" ry="3.3"/></svg>