<svg viewBox="-16 -32 880 192" width="880" height="192" xmlns="http://www.w3.org/2000/svg"><desc>Generated with https://github.com/Platane/snk</desc><style>:root{--cb:#1b1f230a;--cs:#d70401;--ce:#161b22;--c0:#161b22;--c1:#01311f;--c2:#034525;--c3:#0f6d31;--c4:#00c647}.c{shape-rendering:geometricPrecision;fill:var(--ce);stroke-width:1px;stroke:var(--cb);animation:none 28300ms linear infinite;width:12px;height:12px}@keyframes c0{0.34%{fill:var(--c1)}0.36%,100%{fill:var(--ce)}}.c.c0{fill:var(--c1);animation-name:c0}@keyframes c1{3.88%{fill:var(--c1)}3.9%,100%{fill:var(--ce)}}.c.c1{fill:var(--c1);animation-name:c1}@keyframes c2{1.05%{fill:var(--c1)}1.07%,100%{fill:var(--ce)}}.c.c2{fill:var(--c1);animation-name:c2}@keyframes c3{3.52%{fill:var(--c1)}3.54%,100%{fill:var(--ce)}}.c.c3{fill:var(--c1);animation-name:c3}@keyframes c4{58.65%{fill:var(--c2)}58.67%,100%{fill:var(--ce)}}.c.c4{fill:var(--c2);animation-name:c4}@keyframes c5{1.76%{fill:var(--c1)}1.78%,100%{fill:var(--ce)}}.c.c5{fill:var(--c1);animation-name:c5}@keyframes c6{7.41%{fill:var(--c1)}7.43%,100%{fill:var(--ce)}}.c.c6{fill:var(--c1);animation-name:c6}@keyframes c7{10.94%{fill:var(--c1)}10.96%,100%{fill:var(--ce)}}.c.c7{fill:var(--c1);animation-name:c7}@keyframes c8{56.53%{fill:var(--c2)}56.55%,100%{fill:var(--ce)}}.c.c8{fill:var(--c2);animation-name:c8}@keyframes c9{7.76%{fill:var(--c1)}7.78%,100%{fill:var(--ce)}}.c.c9{fill:var(--c1);animation-name:c9}@keyframes ca{10.59%{fill:var(--c1)}10.61%,100%{fill:var(--ce)}}.c.ca{fill:var(--c1);animation-name:ca}@keyframes cb{55.11%{fill:var(--c2)}55.13%,100%{fill:var(--ce)}}.c.cb{fill:var(--c2);animation-name:cb}@keyframes cc{12.71%{fill:var(--c1)}12.73%,100%{fill:var(--ce)}}.c.cc{fill:var(--c1);animation-name:cc}@keyframes cd{63.24%{fill:var(--c3)}63.26%,100%{fill:var(--ce)}}.c.cd{fill:var(--c3);animation-name:cd}@keyframes ce{8.47%{fill:var(--c1)}8.49%,100%{fill:var(--ce)}}.c.ce{fill:var(--c1);animation-name:ce}@keyframes cf{9.18%{fill:var(--c1)}9.2%,100%{fill:var(--ce)}}.c.cf{fill:var(--c1);animation-name:cf}@keyframes cg{19.07%{fill:var(--c1)}19.09%,100%{fill:var(--ce)}}.c.cg{fill:var(--c1);animation-name:cg}@keyframes ch{16.6%{fill:var(--c1)}16.62%,100%{fill:var(--ce)}}.c.ch{fill:var(--c1);animation-name:ch}@keyframes ci{50.17%{fill:var(--c2)}50.19%,100%{fill:var(--ce)}}.c.ci{fill:var(--c2);animation-name:ci}@keyframes cj{22.25%{fill:var(--c1)}22.27%,100%{fill:var(--ce)}}.c.cj{fill:var(--c1);animation-name:cj}@keyframes ck{24.02%{fill:var(--c1)}24.04%,100%{fill:var(--ce)}}.c.ck{fill:var(--c1);animation-name:ck}@keyframes cl{46.28%{fill:var(--c2)}46.3%,100%{fill:var(--ce)}}.c.cl{fill:var(--c2);animation-name:cl}@keyframes cm{25.43%{fill:var(--c1)}25.45%,100%{fill:var(--ce)}}.c.cm{fill:var(--c1);animation-name:cm}@keyframes cn{46.99%{fill:var(--c2)}47.01%,100%{fill:var(--ce)}}.c.cn{fill:var(--c2);animation-name:cn}@keyframes co{26.14%{fill:var(--c1)}26.16%,100%{fill:var(--ce)}}.c.co{fill:var(--c1);animation-name:co}@keyframes cp{28.61%{fill:var(--c1)}28.63%,100%{fill:var(--ce)}}.c.cp{fill:var(--c1);animation-name:cp}@keyframes cq{74.19%{fill:var(--c3)}74.21%,100%{fill:var(--ce)}}.c.cq{fill:var(--c3);animation-name:cq}@keyframes cr{72.43%{fill:var(--c3)}72.45%,100%{fill:var(--ce)}}.c.cr{fill:var(--c3);animation-name:cr}@keyframes cs{41.69%{fill:var(--c2)}41.71%,100%{fill:var(--ce)}}.c.cs{fill:var(--c2);animation-name:cs}@keyframes ct{73.49%{fill:var(--c3)}73.51%,100%{fill:var(--ce)}}.c.ct{fill:var(--c3);animation-name:ct}@keyframes cu{42.39%{fill:var(--c2)}42.41%,100%{fill:var(--ce)}}.c.cu{fill:var(--c2);animation-name:cu}@keyframes cv{32.85%{fill:var(--c1)}32.87%,100%{fill:var(--ce)}}.c.cv{fill:var(--c1);animation-name:cv}@keyframes cw{32.5%{fill:var(--c1)}32.52%,100%{fill:var(--ce)}}.c.cw{fill:var(--c1);animation-name:cw}@keyframes cx{32.15%{fill:var(--c1)}32.17%,100%{fill:var(--ce)}}.c.cx{fill:var(--c1);animation-name:cx}@keyframes cy{31.79%{fill:var(--c1)}31.81%,100%{fill:var(--ce)}}.c.cy{fill:var(--c1);animation-name:cy}@keyframes cz{35.68%{fill:var(--c1)}35.7%,100%{fill:var(--ce)}}.c.cz{fill:var(--c1);animation-name:cz}@keyframes c10{36.39%{fill:var(--c1)}36.41%,100%{fill:var(--ce)}}.c.c10{fill:var(--c1);animation-name:c10}@keyframes c11{81.62%{fill:var(--c4)}81.64%,100%{fill:var(--ce)}}.c.c11{fill:var(--c4);animation-name:c11}@keyframes c12{37.45%{fill:var(--c2)}37.47%,100%{fill:var(--ce)}}.c.c12{fill:var(--c2);animation-name:c12}@keyframes c13{37.09%{fill:var(--c2)}37.11%,100%{fill:var(--ce)}}.c.c13{fill:var(--c2);animation-name:c13}@keyframes c14{79.5%{fill:var(--c3)}79.52%,100%{fill:var(--ce)}}.c.c14{fill:var(--c3);animation-name:c14}.u{transform-origin:0 0;transform:scale(0,1);animation:none linear 28300ms infinite}@keyframes u0{0.34%{transform:scale(0.000,1)}0.36%,1.05%{transform:scale(0.040,1)}1.07%,1.76%{transform:scale(0.080,1)}1.78%,3.52%{transform:scale(0.120,1)}3.54%,3.88%{transform:scale(0.160,1)}3.9%,7.41%{transform:scale(0.200,1)}7.43%,7.76%{transform:scale(0.240,1)}7.78%,8.47%{transform:scale(0.280,1)}8.49%,9.18%{transform:scale(0.320,1)}9.2%,10.59%{transform:scale(0.360,1)}10.61%,10.94%{transform:scale(0.400,1)}10.96%,12.71%{transform:scale(0.440,1)}12.73%,16.6%{transform:scale(0.480,1)}16.62%,19.07%{transform:scale(0.520,1)}19.09%,22.25%{transform:scale(0.560,1)}22.27%,24.02%{transform:scale(0.600,1)}24.04%,25.43%{transform:scale(0.640,1)}25.45%,26.14%{transform:scale(0.680,1)}26.16%,28.61%{transform:scale(0.720,1)}28.63%,31.79%{transform:scale(0.760,1)}31.81%,32.15%{transform:scale(0.800,1)}32.17%,32.5%{transform:scale(0.840,1)}32.52%,32.85%{transform:scale(0.880,1)}32.87%,35.68%{transform:scale(0.920,1)}35.7%,36.39%{transform:scale(0.960,1)}36.41%,100%{transform:scale(1.000,1)}}.u.u0{fill:var(--c1);animation-name:u0;transform-origin:0.0px 0}@keyframes u1{37.09%{transform:scale(0.000,1)}37.11%,37.45%{transform:scale(0.100,1)}37.47%,41.69%{transform:scale(0.200,1)}41.71%,42.39%{transform:scale(0.300,1)}42.41%,46.28%{transform:scale(0.400,1)}46.3%,46.99%{transform:scale(0.500,1)}47.01%,50.17%{transform:scale(0.600,1)}50.19%,55.11%{transform:scale(0.700,1)}55.13%,56.53%{transform:scale(0.800,1)}56.55%,58.65%{transform:scale(0.900,1)}58.67%,100%{transform:scale(1.000,1)}}.u.u1{fill:var(--c2);animation-name:u1;transform-origin:517.1px 0}@keyframes u2{63.24%{transform:scale(0.000,1)}63.26%,72.43%{transform:scale(0.200,1)}72.45%,73.49%{transform:scale(0.400,1)}73.51%,74.19%{transform:scale(0.600,1)}74.21%,79.5%{transform:scale(0.800,1)}79.52%,100%{transform:scale(1.000,1)}}.u.u2{fill:var(--c3);animation-name:u2;transform-origin:723.9px 0}@keyframes u3{81.62%{transform:scale(0.000,1)}81.64%,100%{transform:scale(1.000,1)}}.u.u3{fill:var(--c4);animation-name:u3;transform-origin:827.3px 0}.s{shape-rendering:geometricPrecision;fill:var(--cs);animation:none linear 28300ms infinite}@keyframes s0{0%,99.65%{transform:translate(0px,-16px)}0.35%{transform:translate(0px,0px)}0.71%{transform:translate(16px,0px)}1.06%{transform:translate(16px,16px)}1.77%{transform:translate(48px,16px)}2.12%{transform:translate(48px,32px)}2.83%{transform:translate(16px,32px)}3.53%{transform:translate(16px,64px)}3.89%{transform:translate(0px,64px)}4.24%{transform:translate(0px,48px)}7.07%,11.31%,55.83%{transform:translate(128px,48px)}7.42%{transform:translate(128px,32px)}8.83%{transform:translate(192px,32px)}9.19%{transform:translate(192px,48px)}9.54%{transform:translate(176px,48px)}9.89%,62.19%{transform:translate(176px,64px)}10.95%{transform:translate(128px,64px)}11.66%{transform:translate(144px,48px)}12.01%{transform:translate(144px,64px)}12.37%{transform:translate(160px,64px)}12.72%{transform:translate(160px,80px)}16.25%{transform:translate(320px,80px)}16.61%{transform:translate(320px,96px)}16.96%{transform:translate(304px,96px)}18.73%{transform:translate(304px,16px)}19.08%{transform:translate(288px,16px)}19.43%{transform:translate(288px,0px)}22.97%{transform:translate(448px,0px)}24.03%{transform:translate(448px,48px)}25.09%{transform:translate(496px,48px)}25.44%{transform:translate(496px,32px)}25.8%{transform:translate(512px,32px)}26.15%{transform:translate(512px,16px)}27.56%{transform:translate(576px,16px)}28.62%,73.85%{transform:translate(576px,64px)}28.98%{transform:translate(560px,64px)}29.68%{transform:translate(560px,96px)}31.1%{transform:translate(624px,96px)}32.86%{transform:translate(624px,16px)}35.34%{transform:translate(736px,16px)}35.69%{transform:translate(736px,32px)}36.04%{transform:translate(752px,32px)}36.4%{transform:translate(752px,48px)}37.1%{transform:translate(784px,48px)}37.46%{transform:translate(784px,32px)}41.7%{transform:translate(592px,32px)}42.05%{transform:translate(592px,48px)}42.4%{transform:translate(608px,48px)}42.76%{transform:translate(608px,32px)}45.58%{transform:translate(480px,32px)}46.29%{transform:translate(480px,64px)}46.64%{transform:translate(496px,64px)}47%{transform:translate(496px,80px)}47.35%{transform:translate(480px,80px)}48.06%{transform:translate(480px,48px)}56.54%{transform:translate(128px,80px)}58.66%{transform:translate(32px,80px)}59.01%{transform:translate(32px,64px)}63.25%{transform:translate(176px,16px)}72.44%{transform:translate(592px,16px)}73.5%{transform:translate(592px,64px)}74.2%{transform:translate(576px,80px)}79.51%{transform:translate(816px,80px)}80.92%{transform:translate(816px,16px)}95.76%{transform:translate(144px,16px)}96.47%{transform:translate(144px,-16px)}}.s.s0{transform:translate(0px,-16px);animation-name:s0}@keyframes s1{0%,99.65%{transform:translate(16px,-16px)}0.35%{transform:translate(0px,-16px)}0.71%{transform:translate(0px,0px)}1.06%{transform:translate(16px,0px)}1.41%{transform:translate(16px,16px)}2.12%{transform:translate(48px,16px)}2.47%{transform:translate(48px,32px)}3.18%{transform:translate(16px,32px)}3.89%{transform:translate(16px,64px)}4.24%{transform:translate(0px,64px)}4.59%{transform:translate(0px,48px)}7.42%,11.66%,56.18%{transform:translate(128px,48px)}7.77%{transform:translate(128px,32px)}9.19%{transform:translate(192px,32px)}9.54%{transform:translate(192px,48px)}9.89%{transform:translate(176px,48px)}10.25%,62.54%{transform:translate(176px,64px)}11.31%{transform:translate(128px,64px)}12.01%{transform:translate(144px,48px)}12.37%{transform:translate(144px,64px)}12.72%{transform:translate(160px,64px)}13.07%{transform:translate(160px,80px)}16.61%{transform:translate(320px,80px)}16.96%{transform:translate(320px,96px)}17.31%{transform:translate(304px,96px)}19.08%{transform:translate(304px,16px)}19.43%{transform:translate(288px,16px)}19.79%{transform:translate(288px,0px)}23.32%{transform:translate(448px,0px)}24.38%{transform:translate(448px,48px)}25.44%{transform:translate(496px,48px)}25.8%{transform:translate(496px,32px)}26.15%{transform:translate(512px,32px)}26.5%{transform:translate(512px,16px)}27.92%{transform:translate(576px,16px)}28.98%,74.2%{transform:translate(576px,64px)}29.33%{transform:translate(560px,64px)}30.04%{transform:translate(560px,96px)}31.45%{transform:translate(624px,96px)}33.22%{transform:translate(624px,16px)}35.69%{transform:translate(736px,16px)}36.04%{transform:translate(736px,32px)}36.4%{transform:translate(752px,32px)}36.75%{transform:translate(752px,48px)}37.46%{transform:translate(784px,48px)}37.81%{transform:translate(784px,32px)}42.05%{transform:translate(592px,32px)}42.4%{transform:translate(592px,48px)}42.76%{transform:translate(608px,48px)}43.11%{transform:translate(608px,32px)}45.94%{transform:translate(480px,32px)}46.64%{transform:translate(480px,64px)}47%{transform:translate(496px,64px)}47.35%{transform:translate(496px,80px)}47.7%{transform:translate(480px,80px)}48.41%{transform:translate(480px,48px)}56.89%{transform:translate(128px,80px)}59.01%{transform:translate(32px,80px)}59.36%{transform:translate(32px,64px)}63.6%{transform:translate(176px,16px)}72.79%{transform:translate(592px,16px)}73.85%{transform:translate(592px,64px)}74.56%{transform:translate(576px,80px)}79.86%{transform:translate(816px,80px)}81.27%{transform:translate(816px,16px)}96.11%{transform:translate(144px,16px)}96.82%{transform:translate(144px,-16px)}}.s.s1{transform:translate(16px,-16px);animation-name:s1}@keyframes s2{0%,99.65%{transform:translate(32px,-16px)}0.71%{transform:translate(0px,-16px)}1.06%{transform:translate(0px,0px)}1.41%{transform:translate(16px,0px)}1.77%{transform:translate(16px,16px)}2.47%{transform:translate(48px,16px)}2.83%{transform:translate(48px,32px)}3.53%{transform:translate(16px,32px)}4.24%{transform:translate(16px,64px)}4.59%{transform:translate(0px,64px)}4.95%{transform:translate(0px,48px)}7.77%,12.01%,56.54%{transform:translate(128px,48px)}8.13%{transform:translate(128px,32px)}9.54%{transform:translate(192px,32px)}9.89%{transform:translate(192px,48px)}10.25%{transform:translate(176px,48px)}10.6%,62.9%{transform:translate(176px,64px)}11.66%{transform:translate(128px,64px)}12.37%{transform:translate(144px,48px)}12.72%{transform:translate(144px,64px)}13.07%{transform:translate(160px,64px)}13.43%{transform:translate(160px,80px)}16.96%{transform:translate(320px,80px)}17.31%{transform:translate(320px,96px)}17.67%{transform:translate(304px,96px)}19.43%{transform:translate(304px,16px)}19.79%{transform:translate(288px,16px)}20.14%{transform:translate(288px,0px)}23.67%{transform:translate(448px,0px)}24.73%{transform:translate(448px,48px)}25.8%{transform:translate(496px,48px)}26.15%{transform:translate(496px,32px)}26.5%{transform:translate(512px,32px)}26.86%{transform:translate(512px,16px)}28.27%{transform:translate(576px,16px)}29.33%,74.56%{transform:translate(576px,64px)}29.68%{transform:translate(560px,64px)}30.39%{transform:translate(560px,96px)}31.8%{transform:translate(624px,96px)}33.57%{transform:translate(624px,16px)}36.04%{transform:translate(736px,16px)}36.4%{transform:translate(736px,32px)}36.75%{transform:translate(752px,32px)}37.1%{transform:translate(752px,48px)}37.81%{transform:translate(784px,48px)}38.16%{transform:translate(784px,32px)}42.4%{transform:translate(592px,32px)}42.76%{transform:translate(592px,48px)}43.11%{transform:translate(608px,48px)}43.46%{transform:translate(608px,32px)}46.29%{transform:translate(480px,32px)}47%{transform:translate(480px,64px)}47.35%{transform:translate(496px,64px)}47.7%{transform:translate(496px,80px)}48.06%{transform:translate(480px,80px)}48.76%{transform:translate(480px,48px)}57.24%{transform:translate(128px,80px)}59.36%{transform:translate(32px,80px)}59.72%{transform:translate(32px,64px)}63.96%{transform:translate(176px,16px)}73.14%{transform:translate(592px,16px)}74.2%{transform:translate(592px,64px)}74.91%{transform:translate(576px,80px)}80.21%{transform:translate(816px,80px)}81.63%{transform:translate(816px,16px)}96.47%{transform:translate(144px,16px)}97.17%{transform:translate(144px,-16px)}}.s.s2{transform:translate(32px,-16px);animation-name:s2}@keyframes s3{0%,99.65%{transform:translate(48px,-16px)}1.06%{transform:translate(0px,-16px)}1.41%{transform:translate(0px,0px)}1.77%{transform:translate(16px,0px)}2.12%{transform:translate(16px,16px)}2.83%{transform:translate(48px,16px)}3.18%{transform:translate(48px,32px)}3.89%{transform:translate(16px,32px)}4.59%{transform:translate(16px,64px)}4.95%{transform:translate(0px,64px)}5.3%{transform:translate(0px,48px)}8.13%,12.37%,56.89%{transform:translate(128px,48px)}8.48%{transform:translate(128px,32px)}9.89%{transform:translate(192px,32px)}10.25%{transform:translate(192px,48px)}10.6%{transform:translate(176px,48px)}10.95%,63.25%{transform:translate(176px,64px)}12.01%{transform:translate(128px,64px)}12.72%{transform:translate(144px,48px)}13.07%{transform:translate(144px,64px)}13.43%{transform:translate(160px,64px)}13.78%{transform:translate(160px,80px)}17.31%{transform:translate(320px,80px)}17.67%{transform:translate(320px,96px)}18.02%{transform:translate(304px,96px)}19.79%{transform:translate(304px,16px)}20.14%{transform:translate(288px,16px)}20.49%{transform:translate(288px,0px)}24.03%{transform:translate(448px,0px)}25.09%{transform:translate(448px,48px)}26.15%{transform:translate(496px,48px)}26.5%{transform:translate(496px,32px)}26.86%{transform:translate(512px,32px)}27.21%{transform:translate(512px,16px)}28.62%{transform:translate(576px,16px)}29.68%,74.91%{transform:translate(576px,64px)}30.04%{transform:translate(560px,64px)}30.74%{transform:translate(560px,96px)}32.16%{transform:translate(624px,96px)}33.92%{transform:translate(624px,16px)}36.4%{transform:translate(736px,16px)}36.75%{transform:translate(736px,32px)}37.1%{transform:translate(752px,32px)}37.46%{transform:translate(752px,48px)}38.16%{transform:translate(784px,48px)}38.52%{transform:translate(784px,32px)}42.76%{transform:translate(592px,32px)}43.11%{transform:translate(592px,48px)}43.46%{transform:translate(608px,48px)}43.82%{transform:translate(608px,32px)}46.64%{transform:translate(480px,32px)}47.35%{transform:translate(480px,64px)}47.7%{transform:translate(496px,64px)}48.06%{transform:translate(496px,80px)}48.41%{transform:translate(480px,80px)}49.12%{transform:translate(480px,48px)}57.6%{transform:translate(128px,80px)}59.72%{transform:translate(32px,80px)}60.07%{transform:translate(32px,64px)}64.31%{transform:translate(176px,16px)}73.5%{transform:translate(592px,16px)}74.56%{transform:translate(592px,64px)}75.27%{transform:translate(576px,80px)}80.57%{transform:translate(816px,80px)}81.98%{transform:translate(816px,16px)}96.82%{transform:translate(144px,16px)}97.53%{transform:translate(144px,-16px)}}.s.s3{transform:translate(48px,-16px);animation-name:s3}</style><rect class="c c0" x="2" y="2" rx="2" ry="2"/><rect class="c" x="2" y="18" rx="2" ry="2"/><rect class="c" x="2" y="34" rx="2" ry="2"/><rect class="c" x="2" y="50" rx="2" ry="2"/><rect class="c c1" x="2" y="66" rx="2" ry="2"/><rect class="c" x="2" y="82" rx="2" ry="2"/><rect class="c" x="2" y="98" rx="2" ry="2"/><rect class="c" x="18" y="2" rx="2" ry="2"/><rect class="c c2" x="18" y="18" rx="2" ry="2"/><rect class="c" x="18" y="34" rx="2" ry="2"/><rect class="c" x="18" y="50" rx="2" ry="2"/><rect class="c c3" x="18" y="66" rx="2" ry="2"/><rect class="c" x="18" y="82" rx="2" ry="2"/><rect class="c" x="18" y="98" rx="2" ry="2"/><rect class="c" x="34" y="2" rx="2" ry="2"/><rect class="c" x="34" y="18" rx="2" ry="2"/><rect class="c" x="34" y="34" rx="2" ry="2"/><rect class="c" x="34" y="50" rx="2" ry="2"/><rect class="c" x="34" y="66" rx="2" ry="2"/><rect class="c c4" x="34" y="82" rx="2" ry="2"/><rect class="c" x="34" y="98" rx="2" ry="2"/><rect class="c" x="50" y="2" rx="2" ry="2"/><rect class="c c5" x="50" y="18" rx="2" ry="2"/><rect class="c" x="50" y="34" rx="2" ry="2"/><rect class="c" x="50" y="50" rx="2" ry="2"/><rect class="c" x="50" y="66" rx="2" ry="2"/><rect class="c" x="50" y="82" rx="2" ry="2"/><rect class="c" x="50" y="98" rx="2" ry="2"/><rect class="c" x="66" y="2" rx="2" ry="2"/><rect class="c" x="66" y="18" rx="2" ry="2"/><rect class="c" x="66" y="34" rx="2" ry="2"/><rect class="c" x="66" y="50" rx="2" ry="2"/><rect class="c" x="66" y="66" rx="2" ry="2"/><rect class="c" x="66" y="82" rx="2" ry="2"/><rect class="c" x="66" y="98" rx="2" ry="2"/><rect class="c" x="82" y="2" rx="2" ry="2"/><rect class="c" x="82" y="18" rx="2" ry="2"/><rect class="c" x="82" y="34" rx="2" ry="2"/><rect class="c" x="82" y="50" rx="2" ry="2"/><rect class="c" x="82" y="66" rx="2" ry="2"/><rect class="c" x="82" y="82" rx="2" ry="2"/><rect class="c" x="82" y="98" rx="2" ry="2"/><rect class="c" x="98" y="2" rx="2" ry="2"/><rect class="c" x="98" y="18" rx="2" ry="2"/><rect class="c" x="98" y="34" rx="2" ry="2"/><rect class="c" x="98" y="50" rx="2" ry="2"/><rect class="c" x="98" y="66" rx="2" ry="2"/><rect class="c" x="98" y="82" rx="2" ry="2"/><rect class="c" x="98" y="98" rx="2" ry="2"/><rect class="c" x="114" y="2" rx="2" ry="2"/><rect class="c" x="114" y="18" rx="2" ry="2"/><rect class="c" x="114" y="34" rx="2" ry="2"/><rect class="c" x="114" y="50" rx="2" ry="2"/><rect class="c" x="114" y="66" rx="2" ry="2"/><rect class="c" x="114" y="82" rx="2" ry="2"/><rect class="c" x="114" y="98" rx="2" ry="2"/><rect class="c" x="130" y="2" rx="2" ry="2"/><rect class="c" x="130" y="18" rx="2" ry="2"/><rect class="c c6" x="130" y="34" rx="2" ry="2"/><rect class="c" x="130" y="50" rx="2" ry="2"/><rect class="c c7" x="130" y="66" rx="2" ry="2"/><rect class="c c8" x="130" y="82" rx="2" ry="2"/><rect class="c" x="130" y="98" rx="2" ry="2"/><rect class="c" x="146" y="2" rx="2" ry="2"/><rect class="c" x="146" y="18" rx="2" ry="2"/><rect class="c c9" x="146" y="34" rx="2" ry="2"/><rect class="c" x="146" y="50" rx="2" ry="2"/><rect class="c ca" x="146" y="66" rx="2" ry="2"/><rect class="c" x="146" y="82" rx="2" ry="2"/><rect class="c" x="146" y="98" rx="2" ry="2"/><rect class="c" x="162" y="2" rx="2" ry="2"/><rect class="c" x="162" y="18" rx="2" ry="2"/><rect class="c" x="162" y="34" rx="2" ry="2"/><rect class="c cb" x="162" y="50" rx="2" ry="2"/><rect class="c" x="162" y="66" rx="2" ry="2"/><rect class="c cc" x="162" y="82" rx="2" ry="2"/><rect class="c" x="162" y="98" rx="2" ry="2"/><rect class="c" x="178" y="2" rx="2" ry="2"/><rect class="c cd" x="178" y="18" rx="2" ry="2"/><rect class="c ce" x="178" y="34" rx="2" ry="2"/><rect class="c" x="178" y="50" rx="2" ry="2"/><rect class="c" x="178" y="66" rx="2" ry="2"/><rect class="c" x="178" y="82" rx="2" ry="2"/><rect class="c" x="178" y="98" rx="2" ry="2"/><rect class="c" x="194" y="2" rx="2" ry="2"/><rect class="c" x="194" y="18" rx="2" ry="2"/><rect class="c" x="194" y="34" rx="2" ry="2"/><rect class="c cf" x="194" y="50" rx="2" ry="2"/><rect class="c" x="194" y="66" rx="2" ry="2"/><rect class="c" x="194" y="82" rx="2" ry="2"/><rect class="c" x="194" y="98" rx="2" ry="2"/><rect class="c" x="210" y="2" rx="2" ry="2"/><rect class="c" x="210" y="18" rx="2" ry="2"/><rect class="c" x="210" y="34" rx="2" ry="2"/><rect class="c" x="210" y="50" rx="2" ry="2"/><rect class="c" x="210" y="66" rx="2" ry="2"/><rect class="c" x="210" y="82" rx="2" ry="2"/><rect class="c" x="210" y="98" rx="2" ry="2"/><rect class="c" x="226" y="2" rx="2" ry="2"/><rect class="c" x="226" y="18" rx="2" ry="2"/><rect class="c" x="226" y="34" rx="2" ry="2"/><rect class="c" x="226" y="50" rx="2" ry="2"/><rect class="c" x="226" y="66" rx="2" ry="2"/><rect class="c" x="226" y="82" rx="2" ry="2"/><rect class="c" x="226" y="98" rx="2" ry="2"/><rect class="c" x="242" y="2" rx="2" ry="2"/><rect class="c" x="242" y="18" rx="2" ry="2"/><rect class="c" x="242" y="34" rx="2" ry="2"/><rect class="c" x="242" y="50" rx="2" ry="2"/><rect class="c" x="242" y="66" rx="2" ry="2"/><rect class="c" x="242" y="82" rx="2" ry="2"/><rect class="c" x="242" y="98" rx="2" ry="2"/><rect class="c" x="258" y="2" rx="2" ry="2"/><rect class="c" x="258" y="18" rx="2" ry="2"/><rect class="c" x="258" y="34" rx="2" ry="2"/><rect class="c" x="258" y="50" rx="2" ry="2"/><rect class="c" x="258" y="66" rx="2" ry="2"/><rect class="c" x="258" y="82" rx="2" ry="2"/><rect class="c" x="258" y="98" rx="2" ry="2"/><rect class="c" x="274" y="2" rx="2" ry="2"/><rect class="c" x="274" y="18" rx="2" ry="2"/><rect class="c" x="274" y="34" rx="2" ry="2"/><rect class="c" x="274" y="50" rx="2" ry="2"/><rect class="c" x="274" y="66" rx="2" ry="2"/><rect class="c" x="274" y="82" rx="2" ry="2"/><rect class="c" x="274" y="98" rx="2" ry="2"/><rect class="c" x="290" y="2" rx="2" ry="2"/><rect class="c cg" x="290" y="18" rx="2" ry="2"/><rect class="c" x="290" y="34" rx="2" ry="2"/><rect class="c" x="290" y="50" rx="2" ry="2"/><rect class="c" x="290" y="66" rx="2" ry="2"/><rect class="c" x="290" y="82" rx="2" ry="2"/><rect class="c" x="290" y="98" rx="2" ry="2"/><rect class="c" x="306" y="2" rx="2" ry="2"/><rect class="c" x="306" y="18" rx="2" ry="2"/><rect class="c" x="306" y="34" rx="2" ry="2"/><rect class="c" x="306" y="50" rx="2" ry="2"/><rect class="c" x="306" y="66" rx="2" ry="2"/><rect class="c" x="306" y="82" rx="2" ry="2"/><rect class="c" x="306" y="98" rx="2" ry="2"/><rect class="c" x="322" y="2" rx="2" ry="2"/><rect class="c" x="322" y="18" rx="2" ry="2"/><rect class="c" x="322" y="34" rx="2" ry="2"/><rect class="c" x="322" y="50" rx="2" ry="2"/><rect class="c" x="322" y="66" rx="2" ry="2"/><rect class="c" x="322" y="82" rx="2" ry="2"/><rect class="c ch" x="322" y="98" rx="2" ry="2"/><rect class="c" x="338" y="2" rx="2" ry="2"/><rect class="c" x="338" y="18" rx="2" ry="2"/><rect class="c" x="338" y="34" rx="2" ry="2"/><rect class="c" x="338" y="50" rx="2" ry="2"/><rect class="c" x="338" y="66" rx="2" ry="2"/><rect class="c" x="338" y="82" rx="2" ry="2"/><rect class="c" x="338" y="98" rx="2" ry="2"/><rect class="c" x="354" y="2" rx="2" ry="2"/><rect class="c" x="354" y="18" rx="2" ry="2"/><rect class="c" x="354" y="34" rx="2" ry="2"/><rect class="c" x="354" y="50" rx="2" ry="2"/><rect class="c" x="354" y="66" rx="2" ry="2"/><rect class="c" x="354" y="82" rx="2" ry="2"/><rect class="c" x="354" y="98" rx="2" ry="2"/><rect class="c" x="370" y="2" rx="2" ry="2"/><rect class="c" x="370" y="18" rx="2" ry="2"/><rect class="c" x="370" y="34" rx="2" ry="2"/><rect class="c" x="370" y="50" rx="2" ry="2"/><rect class="c" x="370" y="66" rx="2" ry="2"/><rect class="c" x="370" y="82" rx="2" ry="2"/><rect class="c" x="370" y="98" rx="2" ry="2"/><rect class="c" x="386" y="2" rx="2" ry="2"/><rect class="c" x="386" y="18" rx="2" ry="2"/><rect class="c" x="386" y="34" rx="2" ry="2"/><rect class="c ci" x="386" y="50" rx="2" ry="2"/><rect class="c" x="386" y="66" rx="2" ry="2"/><rect class="c" x="386" y="82" rx="2" ry="2"/><rect class="c" x="386" y="98" rx="2" ry="2"/><rect class="c" x="402" y="2" rx="2" ry="2"/><rect class="c" x="402" y="18" rx="2" ry="2"/><rect class="c" x="402" y="34" rx="2" ry="2"/><rect class="c" x="402" y="50" rx="2" ry="2"/><rect class="c" x="402" y="66" rx="2" ry="2"/><rect class="c" x="402" y="82" rx="2" ry="2"/><rect class="c" x="402" y="98" rx="2" ry="2"/><rect class="c cj" x="418" y="2" rx="2" ry="2"/><rect class="c" x="418" y="18" rx="2" ry="2"/><rect class="c" x="418" y="34" rx="2" ry="2"/><rect class="c" x="418" y="50" rx="2" ry="2"/><rect class="c" x="418" y="66" rx="2" ry="2"/><rect class="c" x="418" y="82" rx="2" ry="2"/><rect class="c" x="418" y="98" rx="2" ry="2"/><rect class="c" x="434" y="2" rx="2" ry="2"/><rect class="c" x="434" y="18" rx="2" ry="2"/><rect class="c" x="434" y="34" rx="2" ry="2"/><rect class="c" x="434" y="50" rx="2" ry="2"/><rect class="c" x="434" y="66" rx="2" ry="2"/><rect class="c" x="434" y="82" rx="2" ry="2"/><rect class="c" x="434" y="98" rx="2" ry="2"/><rect class="c" x="450" y="2" rx="2" ry="2"/><rect class="c" x="450" y="18" rx="2" ry="2"/><rect class="c" x="450" y="34" rx="2" ry="2"/><rect class="c ck" x="450" y="50" rx="2" ry="2"/><rect class="c" x="450" y="66" rx="2" ry="2"/><rect class="c" x="450" y="82" rx="2" ry="2"/><rect class="c" x="450" y="98" rx="2" ry="2"/><rect class="c" x="466" y="2" rx="2" ry="2"/><rect class="c" x="466" y="18" rx="2" ry="2"/><rect class="c" x="466" y="34" rx="2" ry="2"/><rect class="c" x="466" y="50" rx="2" ry="2"/><rect class="c" x="466" y="66" rx="2" ry="2"/><rect class="c" x="466" y="82" rx="2" ry="2"/><rect class="c" x="466" y="98" rx="2" ry="2"/><rect class="c" x="482" y="2" rx="2" ry="2"/><rect class="c" x="482" y="18" rx="2" ry="2"/><rect class="c" x="482" y="34" rx="2" ry="2"/><rect class="c" x="482" y="50" rx="2" ry="2"/><rect class="c cl" x="482" y="66" rx="2" ry="2"/><rect class="c" x="482" y="82" rx="2" ry="2"/><rect class="c" x="482" y="98" rx="2" ry="2"/><rect class="c" x="498" y="2" rx="2" ry="2"/><rect class="c" x="498" y="18" rx="2" ry="2"/><rect class="c cm" x="498" y="34" rx="2" ry="2"/><rect class="c" x="498" y="50" rx="2" ry="2"/><rect class="c" x="498" y="66" rx="2" ry="2"/><rect class="c cn" x="498" y="82" rx="2" ry="2"/><rect class="c" x="498" y="98" rx="2" ry="2"/><rect class="c" x="514" y="2" rx="2" ry="2"/><rect class="c co" x="514" y="18" rx="2" ry="2"/><rect class="c" x="514" y="34" rx="2" ry="2"/><rect class="c" x="514" y="50" rx="2" ry="2"/><rect class="c" x="514" y="66" rx="2" ry="2"/><rect class="c" x="514" y="82" rx="2" ry="2"/><rect class="c" x="514" y="98" rx="2" ry="2"/><rect class="c" x="530" y="2" rx="2" ry="2"/><rect class="c" x="530" y="18" rx="2" ry="2"/><rect class="c" x="530" y="34" rx="2" ry="2"/><rect class="c" x="530" y="50" rx="2" ry="2"/><rect class="c" x="530" y="66" rx="2" ry="2"/><rect class="c" x="530" y="82" rx="2" ry="2"/><rect class="c" x="530" y="98" rx="2" ry="2"/><rect class="c" x="546" y="2" rx="2" ry="2"/><rect class="c" x="546" y="18" rx="2" ry="2"/><rect class="c" x="546" y="34" rx="2" ry="2"/><rect class="c" x="546" y="50" rx="2" ry="2"/><rect class="c" x="546" y="66" rx="2" ry="2"/><rect class="c" x="546" y="82" rx="2" ry="2"/><rect class="c" x="546" y="98" rx="2" ry="2"/><rect class="c" x="562" y="2" rx="2" ry="2"/><rect class="c" x="562" y="18" rx="2" ry="2"/><rect class="c" x="562" y="34" rx="2" ry="2"/><rect class="c" x="562" y="50" rx="2" ry="2"/><rect class="c" x="562" y="66" rx="2" ry="2"/><rect class="c" x="562" y="82" rx="2" ry="2"/><rect class="c" x="562" y="98" rx="2" ry="2"/><rect class="c" x="578" y="2" rx="2" ry="2"/><rect class="c" x="578" y="18" rx="2" ry="2"/><rect class="c" x="578" y="34" rx="2" ry="2"/><rect class="c" x="578" y="50" rx="2" ry="2"/><rect class="c cp" x="578" y="66" rx="2" ry="2"/><rect class="c cq" x="578" y="82" rx="2" ry="2"/><rect class="c" x="578" y="98" rx="2" ry="2"/><rect class="c" x="594" y="2" rx="2" ry="2"/><rect class="c cr" x="594" y="18" rx="2" ry="2"/><rect class="c cs" x="594" y="34" rx="2" ry="2"/><rect class="c" x="594" y="50" rx="2" ry="2"/><rect class="c ct" x="594" y="66" rx="2" ry="2"/><rect class="c" x="594" y="82" rx="2" ry="2"/><rect class="c" x="594" y="98" rx="2" ry="2"/><rect class="c" x="610" y="2" rx="2" ry="2"/><rect class="c" x="610" y="18" rx="2" ry="2"/><rect class="c" x="610" y="34" rx="2" ry="2"/><rect class="c cu" x="610" y="50" rx="2" ry="2"/><rect class="c" x="610" y="66" rx="2" ry="2"/><rect class="c" x="610" y="82" rx="2" ry="2"/><rect class="c" x="610" y="98" rx="2" ry="2"/><rect class="c" x="626" y="2" rx="2" ry="2"/><rect class="c cv" x="626" y="18" rx="2" ry="2"/><rect class="c cw" x="626" y="34" rx="2" ry="2"/><rect class="c cx" x="626" y="50" rx="2" ry="2"/><rect class="c cy" x="626" y="66" rx="2" ry="2"/><rect class="c" x="626" y="82" rx="2" ry="2"/><rect class="c" x="626" y="98" rx="2" ry="2"/><rect class="c" x="642" y="2" rx="2" ry="2"/><rect class="c" x="642" y="18" rx="2" ry="2"/><rect class="c" x="642" y="34" rx="2" ry="2"/><rect class="c" x="642" y="50" rx="2" ry="2"/><rect class="c" x="642" y="66" rx="2" ry="2"/><rect class="c" x="642" y="82" rx="2" ry="2"/><rect class="c" x="642" y="98" rx="2" ry="2"/><rect class="c" x="658" y="2" rx="2" ry="2"/><rect class="c" x="658" y="18" rx="2" ry="2"/><rect class="c" x="658" y="34" rx="2" ry="2"/><rect class="c" x="658" y="50" rx="2" ry="2"/><rect class="c" x="658" y="66" rx="2" ry="2"/><rect class="c" x="658" y="82" rx="2" ry="2"/><rect class="c" x="658" y="98" rx="2" ry="2"/><rect class="c" x="674" y="2" rx="2" ry="2"/><rect class="c" x="674" y="18" rx="2" ry="2"/><rect class="c" x="674" y="34" rx="2" ry="2"/><rect class="c" x="674" y="50" rx="2" ry="2"/><rect class="c" x="674" y="66" rx="2" ry="2"/><rect class="c" x="674" y="82" rx="2" ry="2"/><rect class="c" x="674" y="98" rx="2" ry="2"/><rect class="c" x="690" y="2" rx="2" ry="2"/><rect class="c" x="690" y="18" rx="2" ry="2"/><rect class="c" x="690" y="34" rx="2" ry="2"/><rect class="c" x="690" y="50" rx="2" ry="2"/><rect class="c" x="690" y="66" rx="2" ry="2"/><rect class="c" x="690" y="82" rx="2" ry="2"/><rect class="c" x="690" y="98" rx="2" ry="2"/><rect class="c" x="706" y="2" rx="2" ry="2"/><rect class="c" x="706" y="18" rx="2" ry="2"/><rect class="c" x="706" y="34" rx="2" ry="2"/><rect class="c" x="706" y="50" rx="2" ry="2"/><rect class="c" x="706" y="66" rx="2" ry="2"/><rect class="c" x="706" y="82" rx="2" ry="2"/><rect class="c" x="706" y="98" rx="2" ry="2"/><rect class="c" x="722" y="2" rx="2" ry="2"/><rect class="c" x="722" y="18" rx="2" ry="2"/><rect class="c" x="722" y="34" rx="2" ry="2"/><rect class="c" x="722" y="50" rx="2" ry="2"/><rect class="c" x="722" y="66" rx="2" ry="2"/><rect class="c" x="722" y="82" rx="2" ry="2"/><rect class="c" x="722" y="98" rx="2" ry="2"/><rect class="c" x="738" y="2" rx="2" ry="2"/><rect class="c" x="738" y="18" rx="2" ry="2"/><rect class="c cz" x="738" y="34" rx="2" ry="2"/><rect class="c" x="738" y="50" rx="2" ry="2"/><rect class="c" x="738" y="66" rx="2" ry="2"/><rect class="c" x="738" y="82" rx="2" ry="2"/><rect class="c" x="738" y="98" rx="2" ry="2"/><rect class="c" x="754" y="2" rx="2" ry="2"/><rect class="c" x="754" y="18" rx="2" ry="2"/><rect class="c" x="754" y="34" rx="2" ry="2"/><rect class="c c10" x="754" y="50" rx="2" ry="2"/><rect class="c" x="754" y="66" rx="2" ry="2"/><rect class="c" x="754" y="82" rx="2" ry="2"/><rect class="c" x="754" y="98" rx="2" ry="2"/><rect class="c" x="770" y="2" rx="2" ry="2"/><rect class="c" x="770" y="18" rx="2" ry="2"/><rect class="c" x="770" y="34" rx="2" ry="2"/><rect class="c" x="770" y="50" rx="2" ry="2"/><rect class="c" x="770" y="66" rx="2" ry="2"/><rect class="c" x="770" y="82" rx="2" ry="2"/><rect class="c" x="770" y="98" rx="2" ry="2"/><rect class="c" x="786" y="2" rx="2" ry="2"/><rect class="c c11" x="786" y="18" rx="2" ry="2"/><rect class="c c12" x="786" y="34" rx="2" ry="2"/><rect class="c c13" x="786" y="50" rx="2" ry="2"/><rect class="c" x="786" y="66" rx="2" ry="2"/><rect class="c" x="786" y="82" rx="2" ry="2"/><rect class="c" x="786" y="98" rx="2" ry="2"/><rect class="c" x="802" y="2" rx="2" ry="2"/><rect class="c" x="802" y="18" rx="2" ry="2"/><rect class="c" x="802" y="34" rx="2" ry="2"/><rect class="c" x="802" y="50" rx="2" ry="2"/><rect class="c" x="802" y="66" rx="2" ry="2"/><rect class="c" x="802" y="82" rx="2" ry="2"/><rect class="c" x="802" y="98" rx="2" ry="2"/><rect class="c" x="818" y="2" rx="2" ry="2"/><rect class="c" x="818" y="18" rx="2" ry="2"/><rect class="c" x="818" y="34" rx="2" ry="2"/><rect class="c" x="818" y="50" rx="2" ry="2"/><rect class="c" x="818" y="66" rx="2" ry="2"/><rect class="c c14" x="818" y="82" rx="2" ry="2"/><rect class="c" x="818" y="98" rx="2" ry="2"/><rect class="c" x="834" y="2" rx="2" ry="2"/><rect class="c" x="834" y="18" rx="2" ry="2"/><rect class="c" x="834" y="34" rx="2" ry="2"/><rect class="u u0" height="12" width="517.7" x="0.0" y="144"/><rect class="u u1" height="12" width="207.4" x="517.1" y="144"/><rect class="u u2" height="12" width="104.0" x="723.9" y="144"/><rect class="u u3" height="12" width="21.3" x="827.3" y="144"/><rect class="s s0" x="0.8" y="0.8" width="14.4" height="14.4" rx="4.5" ry="4.5"/><rect class="s s1" x="1.8" y="1.8" width="12.3" height="12.3" rx="4.1" ry="4.1"/><rect class="s s2" x="2.6" y="2.6" width="10.8" height="10.8" rx="3.6" ry="3.6"/><rect class="s s3" x="3.0" y="3.0" width="9.9" height="9.9" rx="3.3" ry="3.3"/></svg>