<svg viewBox="-16 -32 880 192" width="880" height="192" xmlns="http://www.w3.org/2000/svg"><desc>Generated with https://github.com/Platane/snk</desc><style>:root{--cb:#1b1f230a;--cs:#d70401;--ce:#ebedf0;--c0:#ebedf0;--c1:#9be9a8;--c2:#40c463;--c3:#30a14e;--c4:#216e39}.c{shape-rendering:geometricPrecision;fill:var(--ce);stroke-width:1px;stroke:var(--cb);animation:none 27700ms linear infinite;width:12px;height:12px}@keyframes c0{6.49%{fill:var(--c1)}6.51%,100%{fill:var(--ce)}}.c.c0{fill:var(--c1);animation-name:c0}@keyframes c1{59.56%{fill:var(--c3)}59.58%,100%{fill:var(--ce)}}.c.c1{fill:var(--c3);animation-name:c1}@keyframes c2{57.03%{fill:var(--c3)}57.05%,100%{fill:var(--ce)}}.c.c2{fill:var(--c3);animation-name:c2}@keyframes c3{56.67%{fill:var(--c2)}56.69%,100%{fill:var(--ce)}}.c.c3{fill:var(--c2);animation-name:c3}@keyframes c4{58.83%{fill:var(--c3)}58.85%,100%{fill:var(--ce)}}.c.c4{fill:var(--c3);animation-name:c4}@keyframes c5{3.96%{fill:var(--c1)}3.98%,100%{fill:var(--ce)}}.c.c5{fill:var(--c1);animation-name:c5}@keyframes c6{2.88%{fill:var(--c1)}2.9%,100%{fill:var(--ce)}}.c.c6{fill:var(--c1);animation-name:c6}@keyframes c7{3.24%{fill:var(--c1)}3.26%,100%{fill:var(--ce)}}.c.c7{fill:var(--c1);animation-name:c7}@keyframes c8{3.6%{fill:var(--c1)}3.62%,100%{fill:var(--ce)}}.c.c8{fill:var(--c1);animation-name:c8}@keyframes c9{4.68%{fill:var(--c1)}4.7%,100%{fill:var(--ce)}}.c.c9{fill:var(--c1);animation-name:c9}@keyframes ca{12.26%{fill:var(--c1)}12.28%,100%{fill:var(--ce)}}.c.ca{fill:var(--c1);animation-name:ca}@keyframes cb{93.13%{fill:var(--c4)}93.15%,100%{fill:var(--ce)}}.c.cb{fill:var(--c4);animation-name:cb}@keyframes cc{52.34%{fill:var(--c2)}52.36%,100%{fill:var(--ce)}}.c.cc{fill:var(--c2);animation-name:cc}@keyframes cd{51.98%{fill:var(--c2)}52%,100%{fill:var(--ce)}}.c.cd{fill:var(--c2);animation-name:cd}@keyframes ce{14.07%{fill:var(--c1)}14.09%,100%{fill:var(--ce)}}.c.ce{fill:var(--c1);animation-name:ce}@keyframes cf{64.97%{fill:var(--c3)}64.99%,100%{fill:var(--ce)}}.c.cf{fill:var(--c3);animation-name:cf}@keyframes cg{20.21%{fill:var(--c1)}20.23%,100%{fill:var(--ce)}}.c.cg{fill:var(--c1);animation-name:cg}@keyframes ch{18.76%{fill:var(--c1)}18.78%,100%{fill:var(--ce)}}.c.ch{fill:var(--c1);animation-name:ch}@keyframes ci{17.68%{fill:var(--c1)}17.7%,100%{fill:var(--ce)}}.c.ci{fill:var(--c1);animation-name:ci}@keyframes cj{17.32%{fill:var(--c1)}17.34%,100%{fill:var(--ce)}}.c.cj{fill:var(--c1);animation-name:cj}@keyframes ck{18.4%{fill:var(--c1)}18.42%,100%{fill:var(--ce)}}.c.ck{fill:var(--c1);animation-name:ck}@keyframes cl{18.04%{fill:var(--c1)}18.06%,100%{fill:var(--ce)}}.c.cl{fill:var(--c1);animation-name:cl}@keyframes cm{25.26%{fill:var(--c1)}25.28%,100%{fill:var(--ce)}}.c.cm{fill:var(--c1);animation-name:cm}@keyframes cn{25.62%{fill:var(--c1)}25.64%,100%{fill:var(--ce)}}.c.cn{fill:var(--c1);animation-name:cn}@keyframes co{25.98%{fill:var(--c1)}26%,100%{fill:var(--ce)}}.c.co{fill:var(--c1);animation-name:co}@keyframes cp{26.34%{fill:var(--c1)}26.36%,100%{fill:var(--ce)}}.c.cp{fill:var(--c1);animation-name:cp}@keyframes cq{43.67%{fill:var(--c2)}43.69%,100%{fill:var(--ce)}}.c.cq{fill:var(--c2);animation-name:cq}@keyframes cr{27.07%{fill:var(--c1)}27.09%,100%{fill:var(--ce)}}.c.cr{fill:var(--c1);animation-name:cr}@keyframes cs{28.15%{fill:var(--c1)}28.17%,100%{fill:var(--ce)}}.c.cs{fill:var(--c1);animation-name:cs}@keyframes ct{29.59%{fill:var(--c1)}29.61%,100%{fill:var(--ce)}}.c.ct{fill:var(--c1);animation-name:ct}@keyframes cu{74%{fill:var(--c3)}74.02%,100%{fill:var(--ce)}}.c.cu{fill:var(--c3);animation-name:cu}@keyframes cv{30.68%{fill:var(--c1)}30.7%,100%{fill:var(--ce)}}.c.cv{fill:var(--c1);animation-name:cv}@keyframes cw{32.48%{fill:var(--c1)}32.5%,100%{fill:var(--ce)}}.c.cw{fill:var(--c1);animation-name:cw}@keyframes cx{34.65%{fill:var(--c1)}34.67%,100%{fill:var(--ce)}}.c.cx{fill:var(--c1);animation-name:cx}@keyframes cy{37.54%{fill:var(--c2)}37.56%,100%{fill:var(--ce)}}.c.cy{fill:var(--c2);animation-name:cy}@keyframes cz{79.05%{fill:var(--c3)}79.07%,100%{fill:var(--ce)}}.c.cz{fill:var(--c3);animation-name:cz}@keyframes c10{36.09%{fill:var(--c1)}36.11%,100%{fill:var(--ce)}}.c.c10{fill:var(--c1);animation-name:c10}.u{transform-origin:0 0;transform:scale(0,1);animation:none linear 27700ms infinite}@keyframes u0{2.88%{transform:scale(0.000,1)}2.9%,3.24%{transform:scale(0.040,1)}3.26%,3.6%{transform:scale(0.080,1)}3.62%,3.96%{transform:scale(0.120,1)}3.98%,4.68%{transform:scale(0.160,1)}4.7%,6.49%{transform:scale(0.200,1)}6.51%,12.26%{transform:scale(0.240,1)}12.28%,14.07%{transform:scale(0.280,1)}14.09%,17.32%{transform:scale(0.320,1)}17.34%,17.68%{transform:scale(0.360,1)}17.7%,18.04%{transform:scale(0.400,1)}18.06%,18.4%{transform:scale(0.440,1)}18.42%,18.76%{transform:scale(0.480,1)}18.78%,20.21%{transform:scale(0.520,1)}20.23%,25.26%{transform:scale(0.560,1)}25.28%,25.62%{transform:scale(0.600,1)}25.64%,25.98%{transform:scale(0.640,1)}26%,26.34%{transform:scale(0.680,1)}26.36%,27.07%{transform:scale(0.720,1)}27.09%,28.15%{transform:scale(0.760,1)}28.17%,29.59%{transform:scale(0.800,1)}29.61%,30.68%{transform:scale(0.840,1)}30.7%,32.48%{transform:scale(0.880,1)}32.5%,34.65%{transform:scale(0.920,1)}34.67%,36.09%{transform:scale(0.960,1)}36.11%,100%{transform:scale(1.000,1)}}.u.u0{fill:var(--c1);animation-name:u0;transform-origin:0.0px 0}@keyframes u1{37.54%{transform:scale(0.000,1)}37.56%,43.67%{transform:scale(0.200,1)}43.69%,51.98%{transform:scale(0.400,1)}52%,52.34%{transform:scale(0.600,1)}52.36%,56.67%{transform:scale(0.800,1)}56.69%,100%{transform:scale(1.000,1)}}.u.u1{fill:var(--c2);animation-name:u1;transform-origin:573.0px 0}@keyframes u2{57.03%{transform:scale(0.000,1)}57.05%,58.83%{transform:scale(0.167,1)}58.85%,59.56%{transform:scale(0.333,1)}59.58%,64.97%{transform:scale(0.500,1)}64.99%,74%{transform:scale(0.667,1)}74.02%,79.05%{transform:scale(0.833,1)}79.07%,100%{transform:scale(1.000,1)}}.u.u2{fill:var(--c3);animation-name:u2;transform-origin:687.6px 0}@keyframes u3{93.13%{transform:scale(0.000,1)}93.15%,100%{transform:scale(1.000,1)}}.u.u3{fill:var(--c4);animation-name:u3;transform-origin:825.1px 0}.s{shape-rendering:geometricPrecision;fill:var(--cs);animation:none linear 27700ms infinite}@keyframes s0{0%,99.64%{transform:translate(0px,-16px)}0.36%{transform:translate(0px,0px)}2.53%{transform:translate(96px,0px)}3.61%,5.05%{transform:translate(96px,48px)}3.97%{transform:translate(80px,48px)}4.33%{transform:translate(80px,64px)}4.69%{transform:translate(96px,64px)}6.14%{transform:translate(48px,48px)}6.5%,59.21%{transform:translate(48px,64px)}6.86%{transform:translate(32px,64px)}7.22%{transform:translate(32px,48px)}11.91%,13.36%{transform:translate(240px,48px)}12.27%{transform:translate(240px,32px)}12.64%{transform:translate(224px,32px)}13%{transform:translate(224px,48px)}13.72%{transform:translate(240px,64px)}16.97%{transform:translate(384px,64px)}17.69%{transform:translate(384px,32px)}18.05%{transform:translate(400px,32px)}18.41%{transform:translate(400px,16px)}18.77%{transform:translate(384px,16px)}19.13%{transform:translate(384px,0px)}20.22%{transform:translate(336px,0px)}20.58%{transform:translate(336px,16px)}24.91%{transform:translate(528px,16px)}25.27%{transform:translate(528px,32px)}26.71%{transform:translate(592px,32px)}27.08%{transform:translate(592px,16px)}27.8%,29.24%{transform:translate(624px,16px)}28.16%{transform:translate(624px,0px)}28.52%{transform:translate(640px,0px)}28.88%{transform:translate(640px,16px)}29.96%{transform:translate(624px,48px)}30.32%{transform:translate(640px,48px)}30.69%{transform:translate(640px,64px)}32.13%{transform:translate(704px,64px)}32.49%{transform:translate(704px,48px)}35.38%{transform:translate(832px,48px)}36.1%{transform:translate(832px,16px)}36.46%{transform:translate(816px,16px)}37.55%{transform:translate(816px,64px)}42.96%{transform:translate(576px,64px)}43.68%{transform:translate(576px,96px)}44.04%{transform:translate(560px,96px)}45.13%{transform:translate(560px,48px)}51.99%{transform:translate(256px,48px)}52.35%{transform:translate(256px,32px)}56.68%,58.12%{transform:translate(64px,32px)}57.04%,97.47%{transform:translate(64px,16px)}57.4%{transform:translate(80px,16px)}57.76%{transform:translate(80px,32px)}58.84%{transform:translate(64px,64px)}59.57%{transform:translate(48px,80px)}72.92%{transform:translate(640px,80px)}74.01%{transform:translate(640px,32px)}77.98%{transform:translate(816px,32px)}79.06%{transform:translate(816px,80px)}79.42%{transform:translate(800px,80px)}80.87%{transform:translate(800px,16px)}98.19%{transform:translate(64px,-16px)}}.s.s0{transform:translate(0px,-16px);animation-name:s0}@keyframes s1{0%,99.64%{transform:translate(16px,-16px)}0.36%{transform:translate(0px,-16px)}0.72%{transform:translate(0px,0px)}2.89%{transform:translate(96px,0px)}3.97%,5.42%{transform:translate(96px,48px)}4.33%{transform:translate(80px,48px)}4.69%{transform:translate(80px,64px)}5.05%{transform:translate(96px,64px)}6.5%{transform:translate(48px,48px)}6.86%,59.57%{transform:translate(48px,64px)}7.22%{transform:translate(32px,64px)}7.58%{transform:translate(32px,48px)}12.27%,13.72%{transform:translate(240px,48px)}12.64%{transform:translate(240px,32px)}13%{transform:translate(224px,32px)}13.36%{transform:translate(224px,48px)}14.08%{transform:translate(240px,64px)}17.33%{transform:translate(384px,64px)}18.05%{transform:translate(384px,32px)}18.41%{transform:translate(400px,32px)}18.77%{transform:translate(400px,16px)}19.13%{transform:translate(384px,16px)}19.49%{transform:translate(384px,0px)}20.58%{transform:translate(336px,0px)}20.94%{transform:translate(336px,16px)}25.27%{transform:translate(528px,16px)}25.63%{transform:translate(528px,32px)}27.08%{transform:translate(592px,32px)}27.44%{transform:translate(592px,16px)}28.16%,29.6%{transform:translate(624px,16px)}28.52%{transform:translate(624px,0px)}28.88%{transform:translate(640px,0px)}29.24%{transform:translate(640px,16px)}30.32%{transform:translate(624px,48px)}30.69%{transform:translate(640px,48px)}31.05%{transform:translate(640px,64px)}32.49%{transform:translate(704px,64px)}32.85%{transform:translate(704px,48px)}35.74%{transform:translate(832px,48px)}36.46%{transform:translate(832px,16px)}36.82%{transform:translate(816px,16px)}37.91%{transform:translate(816px,64px)}43.32%{transform:translate(576px,64px)}44.04%{transform:translate(576px,96px)}44.4%{transform:translate(560px,96px)}45.49%{transform:translate(560px,48px)}52.35%{transform:translate(256px,48px)}52.71%{transform:translate(256px,32px)}57.04%,58.48%{transform:translate(64px,32px)}57.4%,97.83%{transform:translate(64px,16px)}57.76%{transform:translate(80px,16px)}58.12%{transform:translate(80px,32px)}59.21%{transform:translate(64px,64px)}59.93%{transform:translate(48px,80px)}73.29%{transform:translate(640px,80px)}74.37%{transform:translate(640px,32px)}78.34%{transform:translate(816px,32px)}79.42%{transform:translate(816px,80px)}79.78%{transform:translate(800px,80px)}81.23%{transform:translate(800px,16px)}98.56%{transform:translate(64px,-16px)}}.s.s1{transform:translate(16px,-16px);animation-name:s1}@keyframes s2{0%,99.64%{transform:translate(32px,-16px)}0.72%{transform:translate(0px,-16px)}1.08%{transform:translate(0px,0px)}3.25%{transform:translate(96px,0px)}4.33%,5.78%{transform:translate(96px,48px)}4.69%{transform:translate(80px,48px)}5.05%{transform:translate(80px,64px)}5.42%{transform:translate(96px,64px)}6.86%{transform:translate(48px,48px)}7.22%,59.93%{transform:translate(48px,64px)}7.58%{transform:translate(32px,64px)}7.94%{transform:translate(32px,48px)}12.64%,14.08%{transform:translate(240px,48px)}13%{transform:translate(240px,32px)}13.36%{transform:translate(224px,32px)}13.72%{transform:translate(224px,48px)}14.44%{transform:translate(240px,64px)}17.69%{transform:translate(384px,64px)}18.41%{transform:translate(384px,32px)}18.77%{transform:translate(400px,32px)}19.13%{transform:translate(400px,16px)}19.49%{transform:translate(384px,16px)}19.86%{transform:translate(384px,0px)}20.94%{transform:translate(336px,0px)}21.3%{transform:translate(336px,16px)}25.63%{transform:translate(528px,16px)}25.99%{transform:translate(528px,32px)}27.44%{transform:translate(592px,32px)}27.8%{transform:translate(592px,16px)}28.52%,29.96%{transform:translate(624px,16px)}28.88%{transform:translate(624px,0px)}29.24%{transform:translate(640px,0px)}29.6%{transform:translate(640px,16px)}30.69%{transform:translate(624px,48px)}31.05%{transform:translate(640px,48px)}31.41%{transform:translate(640px,64px)}32.85%{transform:translate(704px,64px)}33.21%{transform:translate(704px,48px)}36.1%{transform:translate(832px,48px)}36.82%{transform:translate(832px,16px)}37.18%{transform:translate(816px,16px)}38.27%{transform:translate(816px,64px)}43.68%{transform:translate(576px,64px)}44.4%{transform:translate(576px,96px)}44.77%{transform:translate(560px,96px)}45.85%{transform:translate(560px,48px)}52.71%{transform:translate(256px,48px)}53.07%{transform:translate(256px,32px)}57.4%,58.84%{transform:translate(64px,32px)}57.76%,98.19%{transform:translate(64px,16px)}58.12%{transform:translate(80px,16px)}58.48%{transform:translate(80px,32px)}59.57%{transform:translate(64px,64px)}60.29%{transform:translate(48px,80px)}73.65%{transform:translate(640px,80px)}74.73%{transform:translate(640px,32px)}78.7%{transform:translate(816px,32px)}79.78%{transform:translate(816px,80px)}80.14%{transform:translate(800px,80px)}81.59%{transform:translate(800px,16px)}98.92%{transform:translate(64px,-16px)}}.s.s2{transform:translate(32px,-16px);animation-name:s2}@keyframes s3{0%,99.64%{transform:translate(48px,-16px)}1.08%{transform:translate(0px,-16px)}1.44%{transform:translate(0px,0px)}3.61%{transform:translate(96px,0px)}4.69%,6.14%{transform:translate(96px,48px)}5.05%{transform:translate(80px,48px)}5.42%{transform:translate(80px,64px)}5.78%{transform:translate(96px,64px)}7.22%{transform:translate(48px,48px)}7.58%,60.29%{transform:translate(48px,64px)}7.94%{transform:translate(32px,64px)}8.3%{transform:translate(32px,48px)}13%,14.44%{transform:translate(240px,48px)}13.36%{transform:translate(240px,32px)}13.72%{transform:translate(224px,32px)}14.08%{transform:translate(224px,48px)}14.8%{transform:translate(240px,64px)}18.05%{transform:translate(384px,64px)}18.77%{transform:translate(384px,32px)}19.13%{transform:translate(400px,32px)}19.49%{transform:translate(400px,16px)}19.86%{transform:translate(384px,16px)}20.22%{transform:translate(384px,0px)}21.3%{transform:translate(336px,0px)}21.66%{transform:translate(336px,16px)}25.99%{transform:translate(528px,16px)}26.35%{transform:translate(528px,32px)}27.8%{transform:translate(592px,32px)}28.16%{transform:translate(592px,16px)}28.88%,30.32%{transform:translate(624px,16px)}29.24%{transform:translate(624px,0px)}29.6%{transform:translate(640px,0px)}29.96%{transform:translate(640px,16px)}31.05%{transform:translate(624px,48px)}31.41%{transform:translate(640px,48px)}31.77%{transform:translate(640px,64px)}33.21%{transform:translate(704px,64px)}33.57%{transform:translate(704px,48px)}36.46%{transform:translate(832px,48px)}37.18%{transform:translate(832px,16px)}37.55%{transform:translate(816px,16px)}38.63%{transform:translate(816px,64px)}44.04%{transform:translate(576px,64px)}44.77%{transform:translate(576px,96px)}45.13%{transform:translate(560px,96px)}46.21%{transform:translate(560px,48px)}53.07%{transform:translate(256px,48px)}53.43%{transform:translate(256px,32px)}57.76%,59.21%{transform:translate(64px,32px)}58.12%,98.56%{transform:translate(64px,16px)}58.48%{transform:translate(80px,16px)}58.84%{transform:translate(80px,32px)}59.93%{transform:translate(64px,64px)}60.65%{transform:translate(48px,80px)}74.01%{transform:translate(640px,80px)}75.09%{transform:translate(640px,32px)}79.06%{transform:translate(816px,32px)}80.14%{transform:translate(816px,80px)}80.51%{transform:translate(800px,80px)}81.95%{transform:translate(800px,16px)}99.28%{transform:translate(64px,-16px)}}.s.s3{transform:translate(48px,-16px);animation-name:s3}</style><rect class="c" x="2" y="2" rx="2" ry="2"/><rect class="c" x="2" y="18" rx="2" ry="2"/><rect class="c" x="2" y="34" rx="2" ry="2"/><rect class="c" x="2" y="50" rx="2" ry="2"/><rect class="c" x="2" y="66" rx="2" ry="2"/><rect class="c" x="2" y="82" rx="2" ry="2"/><rect class="c" x="2" y="98" rx="2" ry="2"/><rect class="c" x="18" y="2" rx="2" ry="2"/><rect class="c" x="18" y="18" rx="2" ry="2"/><rect class="c" x="18" y="34" rx="2" ry="2"/><rect class="c" x="18" y="50" rx="2" ry="2"/><rect class="c" x="18" y="66" rx="2" ry="2"/><rect class="c" x="18" y="82" rx="2" ry="2"/><rect class="c" x="18" y="98" rx="2" ry="2"/><rect class="c" x="34" y="2" rx="2" ry="2"/><rect class="c" x="34" y="18" rx="2" ry="2"/><rect class="c" x="34" y="34" rx="2" ry="2"/><rect class="c" x="34" y="50" rx="2" ry="2"/><rect class="c" x="34" y="66" rx="2" ry="2"/><rect class="c" x="34" y="82" rx="2" ry="2"/><rect class="c" x="34" y="98" rx="2" ry="2"/><rect class="c" x="50" y="2" rx="2" ry="2"/><rect class="c" x="50" y="18" rx="2" ry="2"/><rect class="c" x="50" y="34" rx="2" ry="2"/><rect class="c" x="50" y="50" rx="2" ry="2"/><rect class="c c0" x="50" y="66" rx="2" ry="2"/><rect class="c c1" x="50" y="82" rx="2" ry="2"/><rect class="c" x="50" y="98" rx="2" ry="2"/><rect class="c" x="66" y="2" rx="2" ry="2"/><rect class="c c2" x="66" y="18" rx="2" ry="2"/><rect class="c c3" x="66" y="34" rx="2" ry="2"/><rect class="c" x="66" y="50" rx="2" ry="2"/><rect class="c c4" x="66" y="66" rx="2" ry="2"/><rect class="c" x="66" y="82" rx="2" ry="2"/><rect class="c" x="66" y="98" rx="2" ry="2"/><rect class="c" x="82" y="2" rx="2" ry="2"/><rect class="c" x="82" y="18" rx="2" ry="2"/><rect class="c" x="82" y="34" rx="2" ry="2"/><rect class="c c5" x="82" y="50" rx="2" ry="2"/><rect class="c" x="82" y="66" rx="2" ry="2"/><rect class="c" x="82" y="82" rx="2" ry="2"/><rect class="c" x="82" y="98" rx="2" ry="2"/><rect class="c" x="98" y="2" rx="2" ry="2"/><rect class="c c6" x="98" y="18" rx="2" ry="2"/><rect class="c c7" x="98" y="34" rx="2" ry="2"/><rect class="c c8" x="98" y="50" rx="2" ry="2"/><rect class="c c9" x="98" y="66" rx="2" ry="2"/><rect class="c" x="98" y="82" rx="2" ry="2"/><rect class="c" x="98" y="98" rx="2" ry="2"/><rect class="c" x="114" y="2" rx="2" ry="2"/><rect class="c" x="114" y="18" rx="2" ry="2"/><rect class="c" x="114" y="34" rx="2" ry="2"/><rect class="c" x="114" y="50" rx="2" ry="2"/><rect class="c" x="114" y="66" rx="2" ry="2"/><rect class="c" x="114" y="82" rx="2" ry="2"/><rect class="c" x="114" y="98" rx="2" ry="2"/><rect class="c" x="130" y="2" rx="2" ry="2"/><rect class="c" x="130" y="18" rx="2" ry="2"/><rect class="c" x="130" y="34" rx="2" ry="2"/><rect class="c" x="130" y="50" rx="2" ry="2"/><rect class="c" x="130" y="66" rx="2" ry="2"/><rect class="c" x="130" y="82" rx="2" ry="2"/><rect class="c" x="130" y="98" rx="2" ry="2"/><rect class="c" x="146" y="2" rx="2" ry="2"/><rect class="c" x="146" y="18" rx="2" ry="2"/><rect class="c" x="146" y="34" rx="2" ry="2"/><rect class="c" x="146" y="50" rx="2" ry="2"/><rect class="c" x="146" y="66" rx="2" ry="2"/><rect class="c" x="146" y="82" rx="2" ry="2"/><rect class="c" x="146" y="98" rx="2" ry="2"/><rect class="c" x="162" y="2" rx="2" ry="2"/><rect class="c" x="162" y="18" rx="2" ry="2"/><rect class="c" x="162" y="34" rx="2" ry="2"/><rect class="c" x="162" y="50" rx="2" ry="2"/><rect class="c" x="162" y="66" rx="2" ry="2"/><rect class="c" x="162" y="82" rx="2" ry="2"/><rect class="c" x="162" y="98" rx="2" ry="2"/><rect class="c" x="178" y="2" rx="2" ry="2"/><rect class="c" x="178" y="18" rx="2" ry="2"/><rect class="c" x="178" y="34" rx="2" ry="2"/><rect class="c" x="178" y="50" rx="2" ry="2"/><rect class="c" x="178" y="66" rx="2" ry="2"/><rect class="c" x="178" y="82" rx="2" ry="2"/><rect class="c" x="178" y="98" rx="2" ry="2"/><rect class="c" x="194" y="2" rx="2" ry="2"/><rect class="c" x="194" y="18" rx="2" ry="2"/><rect class="c" x="194" y="34" rx="2" ry="2"/><rect class="c" x="194" y="50" rx="2" ry="2"/><rect class="c" x="194" y="66" rx="2" ry="2"/><rect class="c" x="194" y="82" rx="2" ry="2"/><rect class="c" x="194" y="98" rx="2" ry="2"/><rect class="c" x="210" y="2" rx="2" ry="2"/><rect class="c" x="210" y="18" rx="2" ry="2"/><rect class="c" x="210" y="34" rx="2" ry="2"/><rect class="c" x="210" y="50" rx="2" ry="2"/><rect class="c" x="210" y="66" rx="2" ry="2"/><rect class="c" x="210" y="82" rx="2" ry="2"/><rect class="c" x="210" y="98" rx="2" ry="2"/><rect class="c" x="226" y="2" rx="2" ry="2"/><rect class="c" x="226" y="18" rx="2" ry="2"/><rect class="c" x="226" y="34" rx="2" ry="2"/><rect class="c" x="226" y="50" rx="2" ry="2"/><rect class="c" x="226" y="66" rx="2" ry="2"/><rect class="c" x="226" y="82" rx="2" ry="2"/><rect class="c" x="226" y="98" rx="2" ry="2"/><rect class="c" x="242" y="2" rx="2" ry="2"/><rect class="c" x="242" y="18" rx="2" ry="2"/><rect class="c ca" x="242" y="34" rx="2" ry="2"/><rect class="c" x="242" y="50" rx="2" ry="2"/><rect class="c" x="242" y="66" rx="2" ry="2"/><rect class="c" x="242" y="82" rx="2" ry="2"/><rect class="c" x="242" y="98" rx="2" ry="2"/><rect class="c" x="258" y="2" rx="2" ry="2"/><rect class="c cb" x="258" y="18" rx="2" ry="2"/><rect class="c cc" x="258" y="34" rx="2" ry="2"/><rect class="c cd" x="258" y="50" rx="2" ry="2"/><rect class="c ce" x="258" y="66" rx="2" ry="2"/><rect class="c" x="258" y="82" rx="2" ry="2"/><rect class="c" x="258" y="98" rx="2" ry="2"/><rect class="c" x="274" y="2" rx="2" ry="2"/><rect class="c" x="274" y="18" rx="2" ry="2"/><rect class="c" x="274" y="34" rx="2" ry="2"/><rect class="c" x="274" y="50" rx="2" ry="2"/><rect class="c" x="274" y="66" rx="2" ry="2"/><rect class="c" x="274" y="82" rx="2" ry="2"/><rect class="c" x="274" y="98" rx="2" ry="2"/><rect class="c" x="290" y="2" rx="2" ry="2"/><rect class="c" x="290" y="18" rx="2" ry="2"/><rect class="c" x="290" y="34" rx="2" ry="2"/><rect class="c" x="290" y="50" rx="2" ry="2"/><rect class="c" x="290" y="66" rx="2" ry="2"/><rect class="c cf" x="290" y="82" rx="2" ry="2"/><rect class="c" x="290" y="98" rx="2" ry="2"/><rect class="c" x="306" y="2" rx="2" ry="2"/><rect class="c" x="306" y="18" rx="2" ry="2"/><rect class="c" x="306" y="34" rx="2" ry="2"/><rect class="c" x="306" y="50" rx="2" ry="2"/><rect class="c" x="306" y="66" rx="2" ry="2"/><rect class="c" x="306" y="82" rx="2" ry="2"/><rect class="c" x="306" y="98" rx="2" ry="2"/><rect class="c" x="322" y="2" rx="2" ry="2"/><rect class="c" x="322" y="18" rx="2" ry="2"/><rect class="c" x="322" y="34" rx="2" ry="2"/><rect class="c" x="322" y="50" rx="2" ry="2"/><rect class="c" x="322" y="66" rx="2" ry="2"/><rect class="c" x="322" y="82" rx="2" ry="2"/><rect class="c" x="322" y="98" rx="2" ry="2"/><rect class="c cg" x="338" y="2" rx="2" ry="2"/><rect class="c" x="338" y="18" rx="2" ry="2"/><rect class="c" x="338" y="34" rx="2" ry="2"/><rect class="c" x="338" y="50" rx="2" ry="2"/><rect class="c" x="338" y="66" rx="2" ry="2"/><rect class="c" x="338" y="82" rx="2" ry="2"/><rect class="c" x="338" y="98" rx="2" ry="2"/><rect class="c" x="354" y="2" rx="2" ry="2"/><rect class="c" x="354" y="18" rx="2" ry="2"/><rect class="c" x="354" y="34" rx="2" ry="2"/><rect class="c" x="354" y="50" rx="2" ry="2"/><rect class="c" x="354" y="66" rx="2" ry="2"/><rect class="c" x="354" y="82" rx="2" ry="2"/><rect class="c" x="354" y="98" rx="2" ry="2"/><rect class="c" x="370" y="2" rx="2" ry="2"/><rect class="c" x="370" y="18" rx="2" ry="2"/><rect class="c" x="370" y="34" rx="2" ry="2"/><rect class="c" x="370" y="50" rx="2" ry="2"/><rect class="c" x="370" y="66" rx="2" ry="2"/><rect class="c" x="370" y="82" rx="2" ry="2"/><rect class="c" x="370" y="98" rx="2" ry="2"/><rect class="c" x="386" y="2" rx="2" ry="2"/><rect class="c ch" x="386" y="18" rx="2" ry="2"/><rect class="c ci" x="386" y="34" rx="2" ry="2"/><rect class="c cj" x="386" y="50" rx="2" ry="2"/><rect class="c" x="386" y="66" rx="2" ry="2"/><rect class="c" x="386" y="82" rx="2" ry="2"/><rect class="c" x="386" y="98" rx="2" ry="2"/><rect class="c" x="402" y="2" rx="2" ry="2"/><rect class="c ck" x="402" y="18" rx="2" ry="2"/><rect class="c cl" x="402" y="34" rx="2" ry="2"/><rect class="c" x="402" y="50" rx="2" ry="2"/><rect class="c" x="402" y="66" rx="2" ry="2"/><rect class="c" x="402" y="82" rx="2" ry="2"/><rect class="c" x="402" y="98" rx="2" ry="2"/><rect class="c" x="418" y="2" rx="2" ry="2"/><rect class="c" x="418" y="18" rx="2" ry="2"/><rect class="c" x="418" y="34" rx="2" ry="2"/><rect class="c" x="418" y="50" rx="2" ry="2"/><rect class="c" x="418" y="66" rx="2" ry="2"/><rect class="c" x="418" y="82" rx="2" ry="2"/><rect class="c" x="418" y="98" rx="2" ry="2"/><rect class="c" x="434" y="2" rx="2" ry="2"/><rect class="c" x="434" y="18" rx="2" ry="2"/><rect class="c" x="434" y="34" rx="2" ry="2"/><rect class="c" x="434" y="50" rx="2" ry="2"/><rect class="c" x="434" y="66" rx="2" ry="2"/><rect class="c" x="434" y="82" rx="2" ry="2"/><rect class="c" x="434" y="98" rx="2" ry="2"/><rect class="c" x="450" y="2" rx="2" ry="2"/><rect class="c" x="450" y="18" rx="2" ry="2"/><rect class="c" x="450" y="34" rx="2" ry="2"/><rect class="c" x="450" y="50" rx="2" ry="2"/><rect class="c" x="450" y="66" rx="2" ry="2"/><rect class="c" x="450" y="82" rx="2" ry="2"/><rect class="c" x="450" y="98" rx="2" ry="2"/><rect class="c" x="466" y="2" rx="2" ry="2"/><rect class="c" x="466" y="18" rx="2" ry="2"/><rect class="c" x="466" y="34" rx="2" ry="2"/><rect class="c" x="466" y="50" rx="2" ry="2"/><rect class="c" x="466" y="66" rx="2" ry="2"/><rect class="c" x="466" y="82" rx="2" ry="2"/><rect class="c" x="466" y="98" rx="2" ry="2"/><rect class="c" x="482" y="2" rx="2" ry="2"/><rect class="c" x="482" y="18" rx="2" ry="2"/><rect class="c" x="482" y="34" rx="2" ry="2"/><rect class="c" x="482" y="50" rx="2" ry="2"/><rect class="c" x="482" y="66" rx="2" ry="2"/><rect class="c" x="482" y="82" rx="2" ry="2"/><rect class="c" x="482" y="98" rx="2" ry="2"/><rect class="c" x="498" y="2" rx="2" ry="2"/><rect class="c" x="498" y="18" rx="2" ry="2"/><rect class="c" x="498" y="34" rx="2" ry="2"/><rect class="c" x="498" y="50" rx="2" ry="2"/><rect class="c" x="498" y="66" rx="2" ry="2"/><rect class="c" x="498" y="82" rx="2" ry="2"/><rect class="c" x="498" y="98" rx="2" ry="2"/><rect class="c" x="514" y="2" rx="2" ry="2"/><rect class="c" x="514" y="18" rx="2" ry="2"/><rect class="c" x="514" y="34" rx="2" ry="2"/><rect class="c" x="514" y="50" rx="2" ry="2"/><rect class="c" x="514" y="66" rx="2" ry="2"/><rect class="c" x="514" y="82" rx="2" ry="2"/><rect class="c" x="514" y="98" rx="2" ry="2"/><rect class="c" x="530" y="2" rx="2" ry="2"/><rect class="c" x="530" y="18" rx="2" ry="2"/><rect class="c cm" x="530" y="34" rx="2" ry="2"/><rect class="c" x="530" y="50" rx="2" ry="2"/><rect class="c" x="530" y="66" rx="2" ry="2"/><rect class="c" x="530" y="82" rx="2" ry="2"/><rect class="c" x="530" y="98" rx="2" ry="2"/><rect class="c" x="546" y="2" rx="2" ry="2"/><rect class="c" x="546" y="18" rx="2" ry="2"/><rect class="c cn" x="546" y="34" rx="2" ry="2"/><rect class="c" x="546" y="50" rx="2" ry="2"/><rect class="c" x="546" y="66" rx="2" ry="2"/><rect class="c" x="546" y="82" rx="2" ry="2"/><rect class="c" x="546" y="98" rx="2" ry="2"/><rect class="c" x="562" y="2" rx="2" ry="2"/><rect class="c" x="562" y="18" rx="2" ry="2"/><rect class="c co" x="562" y="34" rx="2" ry="2"/><rect class="c" x="562" y="50" rx="2" ry="2"/><rect class="c" x="562" y="66" rx="2" ry="2"/><rect class="c" x="562" y="82" rx="2" ry="2"/><rect class="c" x="562" y="98" rx="2" ry="2"/><rect class="c" x="578" y="2" rx="2" ry="2"/><rect class="c" x="578" y="18" rx="2" ry="2"/><rect class="c cp" x="578" y="34" rx="2" ry="2"/><rect class="c" x="578" y="50" rx="2" ry="2"/><rect class="c" x="578" y="66" rx="2" ry="2"/><rect class="c" x="578" y="82" rx="2" ry="2"/><rect class="c cq" x="578" y="98" rx="2" ry="2"/><rect class="c" x="594" y="2" rx="2" ry="2"/><rect class="c cr" x="594" y="18" rx="2" ry="2"/><rect class="c" x="594" y="34" rx="2" ry="2"/><rect class="c" x="594" y="50" rx="2" ry="2"/><rect class="c" x="594" y="66" rx="2" ry="2"/><rect class="c" x="594" y="82" rx="2" ry="2"/><rect class="c" x="594" y="98" rx="2" ry="2"/><rect class="c" x="610" y="2" rx="2" ry="2"/><rect class="c" x="610" y="18" rx="2" ry="2"/><rect class="c" x="610" y="34" rx="2" ry="2"/><rect class="c" x="610" y="50" rx="2" ry="2"/><rect class="c" x="610" y="66" rx="2" ry="2"/><rect class="c" x="610" y="82" rx="2" ry="2"/><rect class="c" x="610" y="98" rx="2" ry="2"/><rect class="c cs" x="626" y="2" rx="2" ry="2"/><rect class="c" x="626" y="18" rx="2" ry="2"/><rect class="c ct" x="626" y="34" rx="2" ry="2"/><rect class="c" x="626" y="50" rx="2" ry="2"/><rect class="c" x="626" y="66" rx="2" ry="2"/><rect class="c" x="626" y="82" rx="2" ry="2"/><rect class="c" x="626" y="98" rx="2" ry="2"/><rect class="c" x="642" y="2" rx="2" ry="2"/><rect class="c" x="642" y="18" rx="2" ry="2"/><rect class="c cu" x="642" y="34" rx="2" ry="2"/><rect class="c" x="642" y="50" rx="2" ry="2"/><rect class="c cv" x="642" y="66" rx="2" ry="2"/><rect class="c" x="642" y="82" rx="2" ry="2"/><rect class="c" x="642" y="98" rx="2" ry="2"/><rect class="c" x="658" y="2" rx="2" ry="2"/><rect class="c" x="658" y="18" rx="2" ry="2"/><rect class="c" x="658" y="34" rx="2" ry="2"/><rect class="c" x="658" y="50" rx="2" ry="2"/><rect class="c" x="658" y="66" rx="2" ry="2"/><rect class="c" x="658" y="82" rx="2" ry="2"/><rect class="c" x="658" y="98" rx="2" ry="2"/><rect class="c" x="674" y="2" rx="2" ry="2"/><rect class="c" x="674" y="18" rx="2" ry="2"/><rect class="c" x="674" y="34" rx="2" ry="2"/><rect class="c" x="674" y="50" rx="2" ry="2"/><rect class="c" x="674" y="66" rx="2" ry="2"/><rect class="c" x="674" y="82" rx="2" ry="2"/><rect class="c" x="674" y="98" rx="2" ry="2"/><rect class="c" x="690" y="2" rx="2" ry="2"/><rect class="c" x="690" y="18" rx="2" ry="2"/><rect class="c" x="690" y="34" rx="2" ry="2"/><rect class="c" x="690" y="50" rx="2" ry="2"/><rect class="c" x="690" y="66" rx="2" ry="2"/><rect class="c" x="690" y="82" rx="2" ry="2"/><rect class="c" x="690" y="98" rx="2" ry="2"/><rect class="c" x="706" y="2" rx="2" ry="2"/><rect class="c" x="706" y="18" rx="2" ry="2"/><rect class="c" x="706" y="34" rx="2" ry="2"/><rect class="c cw" x="706" y="50" rx="2" ry="2"/><rect class="c" x="706" y="66" rx="2" ry="2"/><rect class="c" x="706" y="82" rx="2" ry="2"/><rect class="c" x="706" y="98" rx="2" ry="2"/><rect class="c" x="722" y="2" rx="2" ry="2"/><rect class="c" x="722" y="18" rx="2" ry="2"/><rect class="c" x="722" y="34" rx="2" ry="2"/><rect class="c" x="722" y="50" rx="2" ry="2"/><rect class="c" x="722" y="66" rx="2" ry="2"/><rect class="c" x="722" y="82" rx="2" ry="2"/><rect class="c" x="722" y="98" rx="2" ry="2"/><rect class="c" x="738" y="2" rx="2" ry="2"/><rect class="c" x="738" y="18" rx="2" ry="2"/><rect class="c" x="738" y="34" rx="2" ry="2"/><rect class="c" x="738" y="50" rx="2" ry="2"/><rect class="c" x="738" y="66" rx="2" ry="2"/><rect class="c" x="738" y="82" rx="2" ry="2"/><rect class="c" x="738" y="98" rx="2" ry="2"/><rect class="c" x="754" y="2" rx="2" ry="2"/><rect class="c" x="754" y="18" rx="2" ry="2"/><rect class="c" x="754" y="34" rx="2" ry="2"/><rect class="c" x="754" y="50" rx="2" ry="2"/><rect class="c" x="754" y="66" rx="2" ry="2"/><rect class="c" x="754" y="82" rx="2" ry="2"/><rect class="c" x="754" y="98" rx="2" ry="2"/><rect class="c" x="770" y="2" rx="2" ry="2"/><rect class="c" x="770" y="18" rx="2" ry="2"/><rect class="c" x="770" y="34" rx="2" ry="2"/><rect class="c" x="770" y="50" rx="2" ry="2"/><rect class="c" x="770" y="66" rx="2" ry="2"/><rect class="c" x="770" y="82" rx="2" ry="2"/><rect class="c" x="770" y="98" rx="2" ry="2"/><rect class="c" x="786" y="2" rx="2" ry="2"/><rect class="c" x="786" y="18" rx="2" ry="2"/><rect class="c" x="786" y="34" rx="2" ry="2"/><rect class="c" x="786" y="50" rx="2" ry="2"/><rect class="c" x="786" y="66" rx="2" ry="2"/><rect class="c" x="786" y="82" rx="2" ry="2"/><rect class="c" x="786" y="98" rx="2" ry="2"/><rect class="c" x="802" y="2" rx="2" ry="2"/><rect class="c" x="802" y="18" rx="2" ry="2"/><rect class="c" x="802" y="34" rx="2" ry="2"/><rect class="c cx" x="802" y="50" rx="2" ry="2"/><rect class="c" x="802" y="66" rx="2" ry="2"/><rect class="c" x="802" y="82" rx="2" ry="2"/><rect class="c" x="802" y="98" rx="2" ry="2"/><rect class="c" x="818" y="2" rx="2" ry="2"/><rect class="c" x="818" y="18" rx="2" ry="2"/><rect class="c" x="818" y="34" rx="2" ry="2"/><rect class="c" x="818" y="50" rx="2" ry="2"/><rect class="c cy" x="818" y="66" rx="2" ry="2"/><rect class="c cz" x="818" y="82" rx="2" ry="2"/><rect class="c" x="818" y="98" rx="2" ry="2"/><rect class="c" x="834" y="2" rx="2" ry="2"/><rect class="c c10" x="834" y="18" rx="2" ry="2"/><rect class="c" x="834" y="34" rx="2" ry="2"/><rect class="u u0" height="12" width="573.6" x="0.0" y="144"/><rect class="u u1" height="12" width="115.2" x="573.0" y="144"/><rect class="u u2" height="12" width="138.1" x="687.6" y="144"/><rect class="u u3" height="12" width="23.5" x="825.1" y="144"/><rect class="s s0" x="0.8" y="0.8" width="14.4" height="14.4" rx="4.5" ry="4.5"/><rect class="s s1" x="1.8" y="1.8" width="12.3" height="12.3" rx="4.1" ry="4.1"/><rect class="s s2" x="2.6" y="2.6" width="10.8" height="10.8" rx="3.6" ry="3.6"/><rect class="s s3" x="3.0" y="3.0" width="9.9" height="9.9" rx="3.3" ry="3.3"/></svg>